<?xml version="1.0" standalone="no"?>
<!DOCTYPE svg PUBLIC "-//W3C//DTD SVG 1.1//EN" "http://www.w3.org/Graphics/SVG/1.1/DTD/svg11.dtd" >
<svg>
<metadata>
Created by FontForge 20090622 at Thu Jul  9 12:22:08 2020
 By deploy user
Copyright (c) 2019 Swiss Typefaces Sarl. All rights reserved.
</metadata>
<defs>
<font id="RivieraNights-Ultralight" horiz-adv-x="204" >
  <font-face 
    font-family="Riviera Nights Ultralight"
    font-weight="250"
    font-stretch="normal"
    units-per-em="1000"
    panose-1="2 11 2 4 0 0 0 0 0 0"
    ascent="787"
    descent="-213"
    x-height="500"
    cap-height="750"
    bbox="-200 -223 1206 1001"
    underline-thickness="27"
    underline-position="-80"
    unicode-range="U+000D-U+FEFF"
  />
<missing-glyph horiz-adv-x="700" 
d="M100 0v725h500v-725h-500zM133 706l217 -328l216 328h-433zM339 362l-220 334v-667zM360 362l221 -333v667zM350 346l-217 -327h433z" />
    <glyph glyph-name="f_f" unicode="ff" horiz-adv-x="629" 
d="M409 475h-271v-475h-34v475h-89v25h89v96q0 90 46 130.5t114 40.5q36 0 65 -12v-26q-31 12 -66 12q-125 0 -125 -138v-103h271v96q0 90 46 130.5t114 40.5q36 0 65 -12v-26q-31 12 -66 12q-125 0 -125 -138v-103h180v-25h-180v-475h-34v475z" />
    <glyph glyph-name="f_i" unicode="fi" horiz-adv-x="528" 
d="M138 603v-103h180v-25h-180v-475h-34v475h-89v25h89v96q0 90 46 130.5t114 40.5q36 0 65 -12v-26q-31 12 -66 12q-125 0 -125 -138zM426 687q-13 0 -21.5 8.5t-8.5 21.5t8.5 21.5t21.5 8.5t21.5 -8.5t8.5 -21.5t-8.5 -21.5t-21.5 -8.5zM443 0h-34v500h34v-500z" />
    <glyph glyph-name="f_f_i" unicode="ffi" horiz-adv-x="833" 
d="M409 475h-271v-475h-34v475h-89v25h89v96q0 90 46 130.5t114 40.5q36 0 65 -12v-26q-31 12 -66 12q-125 0 -125 -138v-103h271v96q0 90 46 130.5t114 40.5q36 0 65 -12v-26q-31 12 -66 12q-125 0 -125 -138v-103h180v-25h-180v-475h-34v475zM731 687q-13 0 -21.5 8.5
t-8.5 21.5t8.5 21.5t21.5 8.5t21.5 -8.5t8.5 -21.5t-8.5 -21.5t-21.5 -8.5zM748 0h-34v500h34v-500z" />
    <glyph glyph-name="f_l" unicode="fl" horiz-adv-x="528" 
d="M138 603v-103h180v-25h-180v-475h-34v475h-89v25h89v96q0 90 46 130.5t114 40.5q36 0 65 -12v-26q-31 12 -66 12q-125 0 -125 -138zM443 0h-34v750h34v-750z" />
    <glyph glyph-name="f_f_l" unicode="ffl" horiz-adv-x="833" 
d="M409 475h-271v-475h-34v475h-89v25h89v96q0 90 46 130.5t114 40.5q36 0 65 -12v-26q-31 12 -66 12q-125 0 -125 -138v-103h271v96q0 90 46 130.5t114 40.5q36 0 65 -12v-26q-31 12 -66 12q-125 0 -125 -138v-103h180v-25h-180v-475h-34v475zM748 0h-34v750h34v-750z" />
    <glyph glyph-name="f_t" unicode="ft" horiz-adv-x="614" 
d="M602 17q-46 -30 -103 -30q-63 0 -96.5 33.5t-33.5 100.5v354h-231v-475h-34v475h-89v25h89v96q0 90 46 130.5t114 40.5q36 0 65 -12v-26q-31 12 -66 12q-125 0 -125 -138v-103h200l65 70v-70h202v-25h-202v-354q0 -108 103 -108q46 0 96 33v-29z" />
    <glyph glyph-name="t_t" unicode="tt" horiz-adv-x="650" 
d="M124 475v-354q0 -108 103 -108q47 0 96 33v-29q-47 -30 -103 -30q-62 0 -96 33.5t-34 100.5v354h-54v5l88 90v-70h249l66 70v-70h202v-25h-202v-354q0 -108 103 -108q46 0 96 33v-29q-46 -30 -103 -30q-63 0 -96.5 33.5t-33.5 100.5v354h-281z" />
    <glyph glyph-name=".notdef" horiz-adv-x="700" 
d="M100 0v725h500v-725h-500zM133 706l217 -328l216 328h-433zM339 362l-220 334v-667zM360 362l221 -333v667zM350 346l-217 -327h433z" />
    <glyph glyph-name=".null" horiz-adv-x="0" 
 />
    <glyph glyph-name="nonmarkingreturn" horiz-adv-x="333" 
 />
    <glyph glyph-name="CR" unicode="&#xd;" horiz-adv-x="260" 
 />
    <glyph glyph-name="space" unicode=" " horiz-adv-x="260" 
 />
    <glyph glyph-name="exclam" unicode="!" horiz-adv-x="234" 
d="M127 162h-20l-8 324v264h36v-264zM79 29q0 17 10.5 27.5t27.5 10.5t27.5 -10.5t10.5 -27.5t-10.5 -27.5t-27.5 -10.5t-27.5 10.5t-10.5 27.5z" />
    <glyph glyph-name="quotedbl" unicode="&#x22;" horiz-adv-x="292" 
d="M62 750h49l-15 -227h-19zM181 750h49l-15 -227h-19z" />
    <glyph glyph-name="numbersign" unicode="#" horiz-adv-x="631" 
d="M161 0h-32l32 247h-125l4 27h124l29 218h-125l4 27h124l30 231h33l-30 -231h209l30 231h33l-30 -231h124l-4 -27h-124l-28 -218h124l-4 -27h-124l-32 -247h-32l32 247h-210zM197 274h209l29 218h-210z" />
    <glyph glyph-name="dollar" unicode="$" horiz-adv-x="548" 
d="M262 871h32v-104q86 -5 135.5 -55.5t56.5 -130.5h-33q-16 150 -159 158v-333l22 -10q101 -48 146 -91t45 -116q0 -86 -57 -141.5t-156 -60.5v-95h-32v95q-98 4 -158.5 63t-67.5 149h34q8 -85 61.5 -132.5t130.5 -52.5v372l-5 2q-45 21 -71 36t-56.5 39.5t-45 55.5
t-14.5 70q0 79 54 126t138 52v104zM246 429l16 -8v319q-71 -4 -114 -44t-43 -102q0 -60 36.5 -96.5t104.5 -68.5zM316 360l-22 10v-356q78 5 128 49.5t50 125.5q0 21 -6 40t-12 32t-23 28l-24.5 21.5t-31.5 19.5t-28.5 15t-30.5 15z" />
    <glyph glyph-name="percent" unicode="%" horiz-adv-x="859" 
d="M363 542q0 -97 -41.5 -158t-120.5 -61q-80 0 -121.5 61t-41.5 158q0 96 41.5 157t121.5 61q79 0 120.5 -61t41.5 -157zM708 750l-519 -750h-38l519 750h38zM329 542q0 88 -34 140.5t-94 52.5t-94.5 -52.5t-34.5 -140.5t35 -141t94 -53t93.5 53t34.5 141zM821 212
q0 -97 -41.5 -158t-120.5 -61q-80 0 -121.5 61t-41.5 158q0 96 41.5 157t121.5 61q79 0 120.5 -61t41.5 -157zM787 212q0 88 -34 140.5t-94 52.5t-94.5 -52.5t-34.5 -140.5t35 -141t94 -53t93.5 53t34.5 141z" />
    <glyph glyph-name="ampersand" unicode="&#x26;" horiz-adv-x="654" 
d="M631 0l-122 131q-80 -144 -230 -144q-106 0 -170 62t-64 160q0 82 46.5 142t126.5 93q-79 90 -79 162q0 68 49 114.5t129 46.5t128.5 -48.5t51.5 -132.5h-31q-14 153 -150 153q-67 0 -104.5 -37.5t-37.5 -94.5q0 -70 82 -158l418 -449h-43zM80 212q0 -94 56 -146.5
t143 -52.5q143 0 210 139l-248 266l-5 5q-156 -65 -156 -211z" />
    <glyph glyph-name="quotesingle" unicode="'" horiz-adv-x="173" 
d="M62 750h49l-15 -227h-19z" />
    <glyph glyph-name="parenleft" unicode="(" horiz-adv-x="244" 
d="M51 274q0 145 49 268t116 208h17q-152 -242 -152 -476t152 -476h-17q-67 85 -116 208t-49 268z" />
    <glyph glyph-name="parenright" unicode=")" horiz-adv-x="244" 
d="M193 274q0 -145 -49 -268t-116 -208h-17q152 242 152 476t-152 476h17q67 -85 116 -208t49 -268z" />
    <glyph glyph-name="asterisk" unicode="*" horiz-adv-x="402" 
d="M121 459l-24 18l84 111l-133 40l9 28l132 -45l-3 139h30l-3 -139l132 45l9 -28l-133 -40l84 -111l-24 -18l-80 114z" />
    <glyph glyph-name="plus" unicode="+" horiz-adv-x="613" 
d="M322 62h-31v250h-256v27h256v250h31v-250h256v-27h-256v-250z" />
    <glyph glyph-name="comma" unicode="," horiz-adv-x="177" 
d="M26 -185l64 185h-32v65h66v-66l-77 -184h-21z" />
    <glyph glyph-name="hyphen" unicode="-" horiz-adv-x="373" 
d="M70 250v28h233v-28h-233z" />
    <glyph glyph-name="period" unicode="." 
d="M64 29q0 17 11 27.5t27 10.5t27 -10.5t11 -27.5t-11 -27.5t-27 -10.5t-27 10.5t-11 27.5z" />
    <glyph glyph-name="slash" unicode="/" horiz-adv-x="398" 
d="M74 0h-38l287 750h39z" />
    <glyph glyph-name="zero" unicode="0" horiz-adv-x="698" 
d="M639 378q0 -111 -30.5 -197t-97.5 -139t-162 -53t-162 53t-97.5 139t-30.5 197t30.5 197t97.5 139t162 53t162 -53t97.5 -139t30.5 -197zM604 378q0 167 -68 264.5t-187 97.5t-187 -97.5t-68 -264.5t68 -264.5t187 -97.5t187 97.5t68 264.5z" />
    <glyph glyph-name="one" unicode="1" horiz-adv-x="278" 
d="M39 750h131v-750h-36v724h-120z" />
    <glyph glyph-name="two" unicode="2" horiz-adv-x="568" 
d="M81 26h446v-26h-482v24q0 53 18.5 97t56.5 81.5t71 61.5t87 58q103 63 147 114t44 130q0 88 -50.5 131t-127.5 43q-85 0 -139 -51t-57 -142h-31q1 103 67 161.5t163 58.5q90 0 150 -52t60 -147q0 -38 -11.5 -72t-28.5 -59t-46 -51t-55.5 -44t-65.5 -42q-91 -56 -124 -85
q-92 -81 -92 -189z" />
    <glyph glyph-name="three" unicode="3" horiz-adv-x="602" 
d="M232 391v26h56q91 0 141 39t50 115q0 77 -50 123t-135 46t-139 -46t-58 -124h-31q2 86 67.5 141.5t162.5 55.5q95 0 156.5 -54.5t61.5 -139.5q0 -63 -37 -111t-112 -57q86 -11 134 -64t48 -132q0 -98 -69.5 -160t-178.5 -62q-108 0 -178.5 61t-74.5 162h33
q6 -91 68.5 -143.5t152.5 -52.5q91 0 151.5 51t60.5 142q0 93 -63 138.5t-161 45.5h-56z" />
    <glyph glyph-name="four" unicode="4" horiz-adv-x="649" 
d="M458 437v-211h176v-26h-176v-200h-36v200h-415l451 574v-44l-396 -504h360v211h36z" />
    <glyph glyph-name="five" unicode="5" horiz-adv-x="586" 
d="M505 241q0 105 -60.5 163t-147.5 58q-69 0 -126 -36.5t-80 -94.5l-21 4l52 415h377v-26h-354l-42 -334q28 46 81 72.5t117 26.5q103 0 171 -66t68 -180t-69.5 -185t-180.5 -71q-103 0 -170.5 62t-72.5 161h34q6 -91 63.5 -143.5t145.5 -52.5q97 0 156 63t59 164z" />
    <glyph glyph-name="six" unicode="6" horiz-adv-x="592" 
d="M313 478q109 0 176.5 -70.5t67.5 -175.5q0 -106 -71.5 -175.5t-180.5 -69.5q-112 0 -182 73t-70 181q0 101 65 210t247 299h37q-145 -157 -206 -234.5t-83 -136.5q70 99 200 99zM305 14q97 0 157 59t60 159t-58 159.5t-152 59.5q-96 0 -160 -60t-64 -159q0 -100 60 -159
t157 -59z" />
    <glyph glyph-name="seven" unicode="7" horiz-adv-x="518" 
d="M13 724v26h497l-379 -750h-36l373 724h-455z" />
    <glyph glyph-name="eight" unicode="8" horiz-adv-x="600" 
d="M300 767q94 0 153.5 -53t59.5 -137q0 -119 -124 -170q75 -27 115 -79.5t40 -124.5q0 -96 -68 -156t-176 -60t-176 60t-68 156q0 72 40 124.5t115 79.5q-124 51 -124 170q0 84 59.5 137t153.5 53zM121 579q0 -71 49.5 -115t129.5 -44t129.5 44t49.5 115t-49.5 116
t-129.5 45t-129.5 -45t-49.5 -116zM91 204q0 -84 58.5 -137t150.5 -53t150.5 53t58.5 137t-58.5 137t-150.5 53t-150.5 -53t-58.5 -137z" />
    <glyph glyph-name="nine" unicode="9" horiz-adv-x="591" 
d="M279 276q-109 0 -176.5 70.5t-67.5 175.5q0 106 71.5 175.5t180.5 69.5q112 0 182 -73t70 -180q0 -98 -68.5 -205t-263.5 -309h-37q200 216 245 273t64 102q-70 -99 -200 -99zM287 740q-97 0 -157 -59t-60 -159t58 -159.5t152 -59.5q96 0 160 60t64 159q0 100 -60 159
t-157 59z" />
    <glyph glyph-name="colon" unicode=":" horiz-adv-x="216" 
d="M70 473q0 17 11 27.5t27 10.5t27 -10.5t11 -27.5t-11 -27.5t-27 -10.5t-27 10.5t-11 27.5zM70 29q0 17 11 27.5t27 10.5t27 -10.5t11 -27.5t-11 -27.5t-27 -10.5t-27 10.5t-11 27.5z" />
    <glyph glyph-name="semicolon" unicode=";" horiz-adv-x="262" 
d="M99 473q0 17 10.5 27.5t27.5 10.5t27.5 -10.5t10.5 -27.5t-10.5 -27.5t-27.5 -10.5t-27.5 10.5t-10.5 27.5zM73 -185l64 185h-32v65h66v-66l-77 -184h-21z" />
    <glyph glyph-name="less" unicode="&#x3c;" horiz-adv-x="605" 
d="M32 338l513 223v-31l-470 -203l470 -203v-32l-513 223v23z" />
    <glyph glyph-name="equal" unicode="=" horiz-adv-x="669" 
d="M596 448h-523v26h523v-26zM596 181h-523v26h523v-26z" />
    <glyph glyph-name="greater" unicode="&#x3e;" horiz-adv-x="605" 
d="M573 338v-23l-513 -223v32l470 203l-470 203v31z" />
    <glyph glyph-name="question" unicode="?" horiz-adv-x="478" 
d="M319 390q-52 -40 -71 -75.5t-19 -90.5v-22h-35v22q0 69 23 106t93 94q92 75 92 164q0 65 -42.5 108t-118.5 43q-75 0 -122.5 -44.5t-50.5 -124.5h-33q1 90 57.5 143.5t149.5 53.5q90 0 143.5 -49t53.5 -129q0 -61 -31 -108t-89 -91zM173 29q0 17 10.5 27.5t27.5 10.5
t27.5 -10.5t10.5 -27.5t-10.5 -27.5t-27.5 -10.5t-27.5 10.5t-10.5 27.5z" />
    <glyph glyph-name="at" unicode="@" horiz-adv-x="851" 
d="M543 283v33q-12 -66 -52.5 -105.5t-98.5 -39.5q-54 0 -92.5 31.5t-38.5 86.5q0 50 33.5 76t105.5 49q97 30 141 50v12q0 49 -29.5 73.5t-77.5 24.5q-74 0 -141 -62v33q61 55 144 55q62 0 99.5 -32.5t37.5 -95.5v-174q0 -109 81 -109q55 0 90 56.5t35 171.5
q0 150 -90 236.5t-233 86.5q-165 0 -269 -105.5t-104 -270.5q0 -154 91 -252t231 -98q103 0 178 37v-34q-78 -30 -178 -30q-157 0 -256.5 104.5t-99.5 269.5q0 179 113.5 292.5t296.5 113.5q158 0 256 -96t98 -264q0 -117 -45 -181t-116 -64q-50 0 -80 32t-30 89zM541 390
v48l-140 -48q-59 -20 -82.5 -39t-23.5 -59q0 -49 29.5 -72t69.5 -23q60 0 103.5 51t43.5 142z" />
    <glyph glyph-name="A" unicode="A" horiz-adv-x="687" 
d="M46 0h-36l334 784l333 -784h-38l-111 265h-371zM168 291h349l-174 416z" />
    <glyph glyph-name="B" unicode="B" horiz-adv-x="607" 
d="M515 569q0 -63 -36 -109.5t-112 -58.5q86 -4 138.5 -57t52.5 -137q0 -89 -58 -148t-177 -59h-217v750h181q117 0 172.5 -48.5t55.5 -132.5zM142 410h135q204 0 204 167q0 147 -204 147h-135v-314zM142 384v-358h168q100 0 156.5 45t56.5 135q0 89 -56 133.5t-157 44.5
h-168z" />
    <glyph glyph-name="C" unicode="C" horiz-adv-x="700" 
d="M53 377q0 174 107 282t279 108q138 0 229 -62v-35q-88 70 -228 70q-157 0 -254.5 -101t-97.5 -262t97.5 -262t254.5 -101q140 0 228 70v-35q-91 -62 -229 -62q-172 0 -279 108t-107 282z" />
    <glyph glyph-name="D" unicode="D" horiz-adv-x="786" 
d="M734 375q0 -172 -112.5 -273.5t-293.5 -101.5h-222v750h222q181 0 293.5 -101.5t112.5 -273.5zM142 26h187q167 0 269 94.5t102 254.5t-102 254.5t-269 94.5h-187v-698z" />
    <glyph glyph-name="E" unicode="E" horiz-adv-x="545" 
d="M481 384h-339v-358h349v-26h-385v750h385v-26h-349v-314h339v-26z" />
    <glyph glyph-name="F" unicode="F" horiz-adv-x="545" 
d="M142 724v-314h354v-26h-354v-384h-36v750h400v-26h-364z" />
    <glyph glyph-name="G" unicode="G" horiz-adv-x="822" 
d="M738 0l-6 178q-28 -85 -105 -138t-194 -53q-170 0 -275 109t-105 281t105 281t275 109q124 0 201 -59.5t112 -159.5h-34q-78 192 -279 192q-156 0 -250.5 -102t-94.5 -261t94.5 -261t250.5 -102q60 0 112 17.5t94.5 52.5t67 96t24.5 142v27h-248v26h275v-375h-20z" />
    <glyph glyph-name="H" unicode="H" horiz-adv-x="798" 
d="M142 750v-340h514v340h36v-750h-36v384h-514v-384h-36v750h36z" />
    <glyph glyph-name="I" unicode="I" horiz-adv-x="248" 
d="M142 0h-36v750h36v-750z" />
    <glyph glyph-name="J" unicode="J" horiz-adv-x="434" 
d="M176 -13q-68 0 -109 40.5t-46 108.5h33q8 -58 39.5 -89.5t83.5 -31.5q58 0 90 40.5t32 121.5v573h36v-566q0 -95 -42 -146t-117 -51z" />
    <glyph glyph-name="K" unicode="K" horiz-adv-x="591" 
d="M142 0h-36v750h36v-368l398 368h43l-402 -374l412 -376h-48l-403 367v-367z" />
    <glyph glyph-name="L" unicode="L" horiz-adv-x="503" 
d="M106 0v750h36v-724h349v-26h-385z" />
    <glyph glyph-name="M" unicode="M" horiz-adv-x="888" 
d="M782 0h-35v681l-303 -483l-302 483v-681h-36v750h31l308 -493l308 493h29v-750z" />
    <glyph glyph-name="N" unicode="N" horiz-adv-x="808" 
d="M702 750v-779l-561 707v-678h-35v750h19l542 -682v682h35z" />
    <glyph glyph-name="O" unicode="O" horiz-adv-x="868" 
d="M52 377q0 171 106.5 280.5t275.5 109.5t275.5 -109.5t106.5 -280.5t-106.5 -280.5t-275.5 -109.5t-275.5 109.5t-106.5 280.5zM434 740q-154 0 -250.5 -102.5t-96.5 -260.5t96.5 -260.5t250.5 -102.5t250.5 102.5t96.5 260.5t-96.5 260.5t-250.5 102.5z" />
    <glyph glyph-name="P" unicode="P" horiz-adv-x="580" 
d="M315 357h-173v-357h-36v750h209q111 0 171.5 -52.5t60.5 -144.5t-60.5 -144t-171.5 -52zM142 724v-341h160q210 0 210 171q0 170 -210 170h-160z" />
    <glyph glyph-name="Q" unicode="Q" horiz-adv-x="868" 
d="M52 377q0 171 106.5 280.5t275.5 109.5t275.5 -109.5t106.5 -280.5q0 -166 -100.5 -274.5t-262.5 -115.5q90 -91 239 -91q50 0 94 9v-28q-46 -8 -89 -8q-84 0 -159.5 28t-121.5 90q-162 7 -263 115.5t-101 274.5zM434 740q-154 0 -250.5 -102.5t-96.5 -260.5t96.5 -260.5
t250.5 -102.5t250.5 102.5t96.5 260.5t-96.5 260.5t-250.5 102.5z" />
    <glyph glyph-name="R" unicode="R" horiz-adv-x="615" 
d="M487 554q0 -86 -53.5 -134t-136.5 -57l341 -363h-44l-338 358h-114v-358h-36v750h147q109 0 171.5 -52.5t62.5 -143.5zM240 724h-98v-340h97q213 0 213 170t-212 170z" />
    <glyph glyph-name="S" unicode="S" horiz-adv-x="560" 
d="M250 429l70 -33q101 -48 146 -91t45 -116q0 -90 -62 -146t-168 -56q-105 0 -169.5 59.5t-71.5 152.5h34q9 -89 67.5 -137t140.5 -48q84 0 139 45t55 130q0 21 -6 40t-12 32t-23 28l-24.5 21.5t-31.5 19.5t-28.5 15t-30.5 15l-59 28q-45 21 -71 36t-56.5 39.5t-45 55.5
t-14.5 70q0 83 59 130.5t149 47.5q93 0 147 -51t61 -135h-33q-18 159 -177 159q-77 0 -124 -40.5t-47 -105.5q0 -60 36.5 -96.5t104.5 -68.5z" />
    <glyph glyph-name="T" unicode="T" horiz-adv-x="604" 
d="M284 0v724h-272v26h580v-26h-272v-724h-36z" />
    <glyph glyph-name="U" unicode="U" horiz-adv-x="772" 
d="M386 14q120 0 187.5 75.5t67.5 207.5v453h35v-451q0 -146 -77 -229t-213 -83t-213 83t-77 229v451h36v-453q0 -132 67.5 -207.5t186.5 -75.5z" />
    <glyph glyph-name="V" unicode="V" horiz-adv-x="686" 
d="M47 750l297 -703l296 703h36l-333 -784l-334 784h38z" />
    <glyph glyph-name="W" unicode="W" horiz-adv-x="916" 
d="M688 0h-9l-221 665l-221 -665h-9l-206 750h34l180 -657l222 663l225 -662l178 656h33z" />
    <glyph glyph-name="X" unicode="X" horiz-adv-x="658" 
d="M43 0h-41l306 386l-288 364h42l267 -337l268 337h41l-288 -363l306 -387h-42l-285 360z" />
    <glyph glyph-name="Y" unicode="Y" horiz-adv-x="614" 
d="M595 750l-270 -423v-327h-36v326l-270 424h39l250 -393l250 393h37z" />
    <glyph glyph-name="Z" unicode="Z" horiz-adv-x="636" 
d="M624 0h-623l563 724h-518v26h574l-563 -724h567v-26z" />
    <glyph glyph-name="bracketleft" unicode="[" horiz-adv-x="250" 
d="M218 -179v-21h-117v950h117v-21h-87v-908h87z" />
    <glyph glyph-name="backslash" unicode="\" horiz-adv-x="398" 
d="M324 0l-288 750h39l287 -750h-38z" />
    <glyph glyph-name="bracketright" unicode="]" horiz-adv-x="250" 
d="M32 -179h87v908h-87v21h117v-950h-117v21z" />
    <glyph glyph-name="asciicircum" unicode="^" horiz-adv-x="494" 
d="M71 392h-34l210 392l210 -392h-35l-175 330z" />
    <glyph glyph-name="underscore" unicode="_" horiz-adv-x="507" 
d="M475 -40h-443v27h443v-27z" />
    <glyph glyph-name="grave" unicode="`" horiz-adv-x="251" 
d="M181 614l-123 136h44l109 -136h-30z" />
    <glyph glyph-name="a" unicode="a" horiz-adv-x="488" 
d="M376 338v27q0 56 -39 88t-99 32q-86 0 -162 -65v33q78 58 165 58q76 0 122.5 -40t46.5 -109v-362h-32v148q-14 -74 -58.5 -116t-113.5 -42q-73 0 -120 43t-47 103q0 59 42.5 94t137.5 59q79 19 105.5 27.5t51.5 21.5zM376 240v70l-170 -49q-72 -21 -102 -47.5t-30 -72.5
q0 -57 38 -91t95 -34q73 0 121 58.5t48 165.5z" />
    <glyph glyph-name="b" unicode="b" horiz-adv-x="580" 
d="M117 101v-101h-32v750h34v-351q19 54 68.5 83t111.5 29q103 0 168 -73.5t65 -189.5t-65 -188.5t-168 -72.5q-63 0 -113 30.5t-69 83.5zM497 248q0 109 -54.5 173t-148.5 64q-72 0 -123.5 -45.5t-51.5 -124.5v-134q0 -79 51 -123.5t124 -44.5q94 0 148.5 63.5t54.5 171.5z
" />
    <glyph glyph-name="c" unicode="c" horiz-adv-x="460" 
d="M47 249q0 117 74 189.5t188 72.5q70 0 118 -24v-31q-49 29 -117 29q-102 0 -165 -65.5t-63 -170.5t63 -170.5t165 -65.5q66 0 117 30v-32q-48 -24 -118 -24q-114 0 -188 72.5t-74 189.5z" />
    <glyph glyph-name="d" unicode="d" horiz-adv-x="580" 
d="M461 397v353h34v-750h-32v101q-19 -54 -69 -84t-113 -30q-103 0 -168 73t-65 189t65 189t168 73q62 0 111.5 -30t68.5 -84zM83 249q0 -109 54.5 -172.5t148.5 -63.5q72 0 123.5 45.5t51.5 124.5v134q0 79 -51 123.5t-124 44.5q-94 0 -148.5 -63.5t-54.5 -172.5z" />
    <glyph glyph-name="e" unicode="e" horiz-adv-x="535" 
d="M289 -13q-105 0 -172.5 69.5t-67.5 191.5q0 127 67.5 195t166.5 68q97 0 153.5 -64t56.5 -182h-409v-17q0 -116 58.5 -175t147.5 -59q109 0 180 77v-35q-69 -69 -181 -69zM282 485q-83 0 -134.5 -52.5t-61.5 -142.5h373q-5 93 -50.5 144t-126.5 51z" />
    <glyph glyph-name="f" unicode="f" horiz-adv-x="324" 
d="M138 603v-103h180v-25h-180v-475h-34v475h-89v25h89v96q0 90 46 130.5t114 40.5q36 0 65 -12v-26q-31 12 -66 12q-125 0 -125 -138z" />
    <glyph glyph-name="g" unicode="g" horiz-adv-x="512" 
d="M62 83q0 58 83 87q-84 47 -84 158q0 84 55 133.5t135 49.5q34 0 67 -11h178v-25h-129q74 -53 74 -147q0 -83 -55 -133t-135 -50q-48 0 -84 14q-28 -8 -49 -26.5t-21 -43.5q0 -55 109 -51l95 4q83 3 130 -23t47 -82q0 -63 -59.5 -102t-158.5 -39q-130 0 -224 59v34
q94 -67 223 -67q49 0 88 9.5t68 35.5t29 66q0 49 -41.5 66.5t-119.5 15.5l-90 -3q-131 -4 -131 71zM251 485q-72 0 -114 -42.5t-42 -114.5t42 -114.5t114 -42.5t114 42.5t42 114.5t-42 114.5t-114 42.5z" />
    <glyph glyph-name="h" unicode="h" horiz-adv-x="569" 
d="M119 750v-369q16 59 68 94.5t119 35.5q85 0 135 -57.5t50 -150.5v-303h-34v288q0 93 -40.5 145t-116.5 52q-78 0 -129.5 -53t-51.5 -129v-303h-34v750h34z" />
    <glyph glyph-name="i" unicode="i" 
d="M102 687q-13 0 -21.5 8.5t-8.5 21.5t8.5 21.5t21.5 8.5t21.5 -8.5t8.5 -21.5t-8.5 -21.5t-21.5 -8.5zM119 0h-34v500h34v-500z" />
    <glyph glyph-name="j" unicode="j" 
d="M102 687q-13 0 -21.5 8.5t-8.5 21.5t8.5 21.5t21.5 8.5t21.5 -8.5t8.5 -21.5t-8.5 -21.5t-21.5 -8.5zM85 -40v540h34v-524q0 -80 -20 -115.5t-88 -73.5l-13 23q54 31 70.5 60t16.5 90z" />
    <glyph glyph-name="k" unicode="k" horiz-adv-x="459" 
d="M119 269v-269h-34v750h34v-476l276 226h41l-276 -227l302 -273h-45z" />
    <glyph glyph-name="l" unicode="l" 
d="M119 0h-34v750h34v-750z" />
    <glyph glyph-name="m" unicode="m" horiz-adv-x="885" 
d="M455 372q18 65 67.5 102t113.5 37q79 0 125 -56t46 -148v-307h-34v292q0 92 -37 142.5t-106 50.5q-72 0 -119.5 -51t-47.5 -127v-307h-34v292q0 92 -37 142.5t-106 50.5q-72 0 -119.5 -51t-47.5 -127v-307h-34v500h32v-116q18 61 65 94t110 33t105 -36.5t58 -102.5z" />
    <glyph glyph-name="n" unicode="n" horiz-adv-x="569" 
d="M117 500v-122q18 61 69.5 97t119.5 36q85 0 135 -57.5t50 -150.5v-303h-34v288q0 93 -40.5 145t-116.5 52q-78 0 -129.5 -53t-51.5 -129v-303h-34v500h32z" />
    <glyph glyph-name="o" unicode="o" horiz-adv-x="568" 
d="M48 249q0 118 65 190t171 72t171 -72t65 -190t-65 -190t-171 -72t-171 72t-65 190zM284 485q-93 0 -147 -63.5t-54 -172.5t54.5 -172.5t146.5 -63.5q93 0 147 63.5t54 172.5t-54 172.5t-147 63.5z" />
    <glyph glyph-name="p" unicode="p" horiz-adv-x="580" 
d="M119 101v-305h-34v704h32v-103q19 54 69 84t113 30q103 0 168 -73t65 -189t-65 -189t-168 -73q-62 0 -111.5 30t-68.5 84zM497 249q0 109 -54.5 172.5t-148.5 63.5q-72 0 -123.5 -45.5t-51.5 -124.5v-134q0 -79 51 -123.5t124 -44.5q94 0 148.5 63.5t54.5 172.5z" />
    <glyph glyph-name="q" unicode="q" horiz-adv-x="580" 
d="M463 397v103h32v-704h-34v303q-19 -54 -68.5 -83t-111.5 -29q-103 0 -168 73t-65 189t65 189t168 73q63 0 113 -30.5t69 -83.5zM83 249q0 -109 54.5 -172.5t148.5 -63.5q72 0 123.5 45.5t51.5 124.5v134q0 79 -51 123.5t-124 44.5q-94 0 -148.5 -63.5t-54.5 -172.5z" />
    <glyph glyph-name="r" unicode="r" horiz-adv-x="326" 
d="M117 500v-111q15 59 61.5 90t99.5 31q16 0 37 -4v-27q-23 5 -43 5q-64 0 -108.5 -49.5t-44.5 -134.5v-300h-34v500h32z" />
    <glyph glyph-name="s" unicode="s" horiz-adv-x="426" 
d="M367 388h-33q-6 43 -36 70t-81 27q-48 0 -82.5 -25t-34.5 -73q0 -72 94 -105l56 -20q65 -23 97.5 -53.5t32.5 -82.5q0 -62 -44.5 -100.5t-119.5 -38.5q-80 0 -127.5 41.5t-51.5 101.5h33q4 -54 46 -85.5t101 -31.5q64 0 96.5 31.5t32.5 80.5q0 45 -27.5 68t-82.5 43
l-45 16q-125 45 -125 130q0 60 45.5 94.5t107.5 34.5q66 0 103.5 -35.5t44.5 -87.5z" />
    <glyph glyph-name="t" unicode="t" horiz-adv-x="335" 
d="M323 46v-29q-47 -30 -103 -30q-62 0 -96 33.5t-34 100.5v354h-54v5l88 90v-70h202v-25h-202v-354q0 -108 103 -108q47 0 96 33z" />
    <glyph glyph-name="u" unicode="u" horiz-adv-x="551" 
d="M434 0v118q-19 -60 -63.5 -95.5t-110.5 -35.5q-83 0 -132.5 55.5t-49.5 152.5v305h34v-290q0 -93 40.5 -145t112.5 -52q74 0 120.5 52.5t46.5 129.5v305h34v-500h-32z" />
    <glyph glyph-name="v" unicode="v" horiz-adv-x="513" 
d="M257 -16l-240 516h37l204 -444l204 444h34z" />
    <glyph glyph-name="w" unicode="w" horiz-adv-x="686" 
d="M58 500l135 -423l150 427l152 -427l136 423h32l-161 -500h-14l-145 418l-145 -418h-14l-161 500h35z" />
    <glyph glyph-name="x" unicode="x" horiz-adv-x="488" 
d="M51 0h-39l212 257l-200 243h41l180 -218l180 218h39l-200 -242l212 -258h-41l-192 233z" />
    <glyph glyph-name="y" unicode="y" horiz-adv-x="513" 
d="M123 -204l118 244l-223 460h38l203 -424l205 424h33l-341 -704h-33z" />
    <glyph glyph-name="z" unicode="z" horiz-adv-x="475" 
d="M446 0h-431l381 475h-351v25h407l-381 -475h375v-25z" />
    <glyph glyph-name="braceleft" unicode="{" horiz-adv-x="265" 
d="M32 264v22h6q47 0 68.5 15.5t21.5 61.5q0 37 -21.5 120t-21.5 128q0 139 143 139h16v-21h-4q-66 0 -95.5 -26.5t-29.5 -89.5q0 -47 21 -130t21 -117q0 -74 -57 -91q57 -17 57 -91q0 -34 -21 -117t-21 -130q0 -63 29.5 -89.5t95.5 -26.5h4v-21h-16q-143 0 -143 139
q0 45 21.5 128t21.5 120q0 46 -21.5 61.5t-68.5 15.5h-6z" />
    <glyph glyph-name="bar" unicode="|" horiz-adv-x="232" 
d="M100 750h32v-850h-32v850z" />
    <glyph glyph-name="braceright" unicode="}" horiz-adv-x="265" 
d="M233 264h-6q-47 0 -68.5 -15.5t-21.5 -61.5q0 -37 21.5 -120t21.5 -128q0 -139 -143 -139h-16v21h4q66 0 95.5 26.5t29.5 89.5q0 47 -21 130t-21 117q0 74 57 91q-57 17 -57 91q0 34 21 117t21 130q0 63 -29.5 89.5t-95.5 26.5h-4v21h16q143 0 143 -139q0 -45 -21.5 -128
t-21.5 -120q0 -46 21.5 -61.5t68.5 -15.5h6v-22z" />
    <glyph glyph-name="asciitilde" unicode="~" horiz-adv-x="696" 
d="M473 323q76 0 150 70v-32q-65 -65 -150 -65q-47 0 -123 30t-120 30q-76 0 -150 -70v32q65 65 150 65q47 0 123 -30t120 -30z" />
    <glyph glyph-name="uni00A0" unicode="&#xa0;" horiz-adv-x="260" 
 />
    <glyph glyph-name="exclamdown" unicode="&#xa1;" horiz-adv-x="216" 
d="M146 525q0 -17 -11 -27.5t-27 -10.5t-27 10.5t-11 27.5t11 27.5t27 10.5t27 -10.5t11 -27.5zM98 392h20l8 -324v-268h-36v268z" />
    <glyph glyph-name="cent" unicode="&#xa2;" horiz-adv-x="482" 
d="M50 249q0 102 57.5 171.5t151.5 85.5v103h32v-99q7 1 21 1q70 0 118 -24v-31q-49 29 -117 29q-15 0 -22 -1v-470q7 -1 22 -1q66 0 117 30v-32q-48 -24 -118 -24q-14 0 -21 1v-99h-32v103q-94 16 -151.5 85.5t-57.5 171.5zM86 249q0 -90 46.5 -152t126.5 -79v462
q-80 -17 -126.5 -79t-46.5 -152z" />
    <glyph glyph-name="sterling" unicode="&#xa3;" horiz-adv-x="574" 
d="M461 331h-203q14 -33 14 -73q0 -128 -157 -223l1 -2q45 18 85.5 18t67 -10t65.5 -20.5t75 -10.5q58 0 121 41v-28q-55 -40 -123 -40q-36 0 -104 20t-111 20q-74 0 -146 -40l-12 26q90 44 146.5 108t56.5 141q0 38 -15 73h-135v27h120q-11 18 -46 59t-52.5 77.5
t-17.5 83.5q0 86 58.5 137.5t148.5 51.5t149.5 -53.5t62.5 -141.5h-32q-4 79 -52.5 123.5t-126.5 44.5q-80 0 -126.5 -43.5t-46.5 -116.5q0 -46 18.5 -82.5t52.5 -77t47 -62.5h217v-27z" />
    <glyph glyph-name="yen" unicode="&#xa5;" horiz-adv-x="596" 
d="M485 179h-169v-179h-36v179h-169v27h169v125h-169v27h156l-237 392h39l230 -382l230 382h37l-237 -392h156v-27h-169v-125h169v-27z" />
    <glyph glyph-name="brokenbar" unicode="&#xa6;" horiz-adv-x="232" 
d="M100 750h32v-350h-32v350zM100 250h32v-350h-32v350z" />
    <glyph glyph-name="section" unicode="&#xa7;" horiz-adv-x="561" 
d="M247 479l70 -34q104 -50 147.5 -88.5t43.5 -107.5q0 -112 -109 -153q53 -28 77.5 -58.5t24.5 -78.5q0 -77 -59 -120t-158 -43q-107 0 -172 59.5t-72 152.5h34q9 -89 67.5 -137t142.5 -48q76 0 129.5 34t53.5 98q0 19 -4.5 35t-15.5 29t-20.5 22.5t-28 20t-29 16t-33 15.5
t-30.5 14l-59 28q-33 16 -53.5 27t-47 29.5t-41 36.5t-25 44.5t-10.5 56.5q0 108 109 150q-49 26 -75 57t-26 78q0 72 58 112.5t141 40.5q92 0 147.5 -51t62.5 -135h-33q-9 80 -56 119.5t-123 39.5q-72 0 -117 -33.5t-45 -91.5q0 -27 9 -46.5t33 -37t38.5 -25.5t53.5 -27z
M236 175l70 -33l58 -28q109 31 109 131q0 21 -4.5 39t-15.5 33t-20 25t-28 21.5l-27.5 16.5t-31.5 16l-29 14l-58 29q-5 3 -14.5 7.5l-17 8t-14.5 7.5q-51 -14 -79.5 -47.5t-28.5 -83.5q0 -56 34.5 -91t96.5 -65z" />
    <glyph glyph-name="dieresis" unicode="&#xa8;" horiz-adv-x="406" 
d="M86 717q0 12 9 21t21 9t21 -9t9 -21t-9 -21t-21 -9t-21 9t-9 21zM260 717q0 12 9 21t21 9t21 -9t9 -21t-9 -21t-21 -9t-21 9t-9 21z" />
    <glyph glyph-name="copyright" unicode="&#xa9;" horiz-adv-x="880" 
d="M441 767q165 0 276.5 -112.5t111.5 -277.5t-111.5 -277.5t-276.5 -112.5t-277.5 112.5t-112.5 277.5t112.5 277.5t277.5 112.5zM441 14q150 0 252.5 104.5t102.5 258.5t-102.5 258.5t-252.5 104.5q-151 0 -254 -104.5t-103 -258.5t103 -258.5t254 -104.5zM214 377
q0 106 70.5 172.5t178.5 66.5q70 0 118 -24v-31q-49 29 -117 29q-96 0 -155 -59t-59 -154t59 -154t155 -59q66 0 117 30v-32q-48 -24 -118 -24q-108 0 -178.5 66.5t-70.5 172.5z" />
    <glyph glyph-name="ordfeminine" unicode="&#xaa;" horiz-adv-x="429" 
d="M309 649v11q0 39 -26 61.5t-67 22.5q-59 0 -113 -46v28q55 41 115 41q54 0 87.5 -28t33.5 -76v-254h-30v102q-8 -50 -39 -79.5t-78 -29.5q-51 0 -84 30.5t-33 71.5q0 43 30 68.5t98 42.5q74 19 106 34zM309 582v41l-115 -33q-47 -14 -67 -32.5t-20 -49.5
q0 -38 24.5 -60.5t61.5 -22.5q50 0 83 41.5t33 115.5zM87 250v27h262v-27h-262z" />
    <glyph glyph-name="guillemotleft" unicode="&#xab;" horiz-adv-x="460" 
d="M205 55l-159 198l159 198h41l-159 -198l159 -198h-41zM365 55l-159 198l159 198h41l-159 -198l159 -198h-41z" />
    <glyph glyph-name="uni00AD" unicode="&#xad;" horiz-adv-x="373" 
d="M70 250v28h233v-28h-233z" />
    <glyph glyph-name="registered" unicode="&#xae;" horiz-adv-x="462" 
d="M231 767q76 0 127.5 -51.5t51.5 -128.5t-51.5 -128.5t-127.5 -51.5t-127.5 51.5t-51.5 128.5t51.5 128.5t127.5 51.5zM231 430q66 0 110 45.5t44 111.5t-44 111.5t-110 45.5t-110 -45.5t-44 -111.5t44 -111.5t110 -45.5zM286 645q0 -24 -14 -38.5t-37 -17.5l90 -102h-29
l-88 99h-15v-99h-24v217h49q32 0 50 -16t18 -43zM212 684h-19v-80h19q49 0 49 40t-49 40z" />
    <glyph glyph-name="macron" unicode="&#xaf;" horiz-adv-x="344" 
d="M309 687h-274v24h274v-24z" />
    <glyph glyph-name="degree" unicode="&#xb0;" horiz-adv-x="386" 
d="M193 767q61 0 103.5 -43t42.5 -104t-42.5 -104t-103.5 -43t-103.5 43t-42.5 104t42.5 104t103.5 43zM193 501q48 0 80.5 34t32.5 85t-32.5 85t-80.5 34t-80.5 -34t-32.5 -85t32.5 -85t80.5 -34z" />
    <glyph glyph-name="twosuperior" unicode="&#xb2;" horiz-adv-x="348" 
d="M72 567h236v-28h-270v16q0 56 34 94.5t93 74.5q54 32 78 61.5t24 70.5q0 44 -25.5 65.5t-65.5 21.5q-43 0 -70 -26t-29 -72h-31q1 58 39 91t93 33q52 0 87.5 -29t35.5 -82q0 -51 -30.5 -85.5t-86.5 -68.5q-24 -14 -37.5 -24t-33.5 -28t-30 -39t-11 -46z" />
    <glyph glyph-name="threesuperior" unicode="&#xb3;" horiz-adv-x="366" 
d="M145 752v27h33q44 0 69 21t25 59q0 39 -25 61.5t-67 22.5q-43 0 -70 -23t-28 -62h-32q1 49 38 80t92 31q54 0 89.5 -30.5t35.5 -78.5q0 -34 -19 -60.5t-55 -33.5q44 -9 68.5 -38t24.5 -72q0 -54 -40.5 -89t-102.5 -35t-102 34t-42 91h32q3 -47 34.5 -73.5t77.5 -26.5
q47 0 78 26.5t31 73.5q0 46 -32 70.5t-80 24.5h-33z" />
    <glyph glyph-name="acute" unicode="&#xb4;" horiz-adv-x="251" 
d="M70 614h-29l109 136h42z" />
    <glyph glyph-name="paragraph" unicode="&#xb6;" horiz-adv-x="680" 
d="M264 357q-111 0 -171.5 52t-60.5 144t60.5 144.5t171.5 52.5h134v-954h-36v561h-98zM563 -204h-36v954h36v-954z" />
    <glyph glyph-name="periodcentered" unicode="&#xb7;" horiz-adv-x="216" 
d="M70 321q0 17 11 27.5t27 10.5t27 -10.5t11 -27.5t-11 -27.5t-27 -10.5t-27 10.5t-11 27.5z" />
    <glyph glyph-name="cedilla" unicode="&#xb8;" horiz-adv-x="245" 
d="M26 -180l8 17q38 -18 73 -18q31 0 49.5 13.5t18.5 37.5q0 22 -14.5 34.5t-37.5 12.5q-29 0 -52 -15l-11 8l57 93h27l-44 -71q13 7 33 7q33 0 52.5 -18.5t19.5 -48.5q0 -34 -25.5 -54.5t-67.5 -20.5t-86 23z" />
    <glyph glyph-name="onesuperior" unicode="&#xb9;" horiz-adv-x="203" 
d="M49 959h85v-420h-32v392h-82z" />
    <glyph glyph-name="ordmasculine" unicode="&#xba;" horiz-adv-x="486" 
d="M76 584q0 82 46.5 132.5t120.5 50.5t120.5 -50.5t46.5 -132.5t-46.5 -133t-120.5 -51t-120.5 51t-46.5 133zM243 744q-62 0 -98.5 -43t-36.5 -117t36.5 -117.5t98.5 -43.5t98.5 43.5t36.5 117.5t-36.5 117t-98.5 43zM88 250v27h310v-27h-310z" />
    <glyph glyph-name="guillemotright" unicode="&#xbb;" horiz-adv-x="460" 
d="M95 55h-41l159 198l-159 198h41l159 -198zM255 55h-41l159 198l-159 198h41l159 -198z" />
    <glyph glyph-name="onequarter" unicode="&#xbc;" horiz-adv-x="737" 
d="M48 750h85v-420h-32v392h-82zM560 750l-519 -750h-38l519 750h38zM619 245v-111h92v-27h-92v-107h-33v107h-238l271 326v-40l-213 -259h180v111h33z" />
    <glyph glyph-name="onehalf" unicode="&#xbd;" horiz-adv-x="711" 
d="M48 750h85v-420h-32v392h-82zM560 750l-519 -750h-38l519 750h38zM435 28h236v-28h-270v16q0 56 34 94.5t93 74.5q54 32 78 61.5t24 70.5q0 44 -25.5 65.5t-65.5 21.5q-43 0 -70 -26t-29 -72h-31q1 58 39 91t93 33q52 0 87.5 -29t35.5 -82q0 -51 -30.5 -85.5t-86.5 -68.5
q-24 -14 -37.5 -24t-33.5 -28t-30 -39t-11 -46z" />
    <glyph glyph-name="threequarters" unicode="&#xbe;" horiz-adv-x="900" 
d="M145 543v27h33q44 0 69 21t25 59q0 39 -25 61.5t-67 22.5q-43 0 -70 -23t-28 -62h-32q1 49 38 80t92 31q54 0 89.5 -30.5t35.5 -78.5q0 -34 -19 -60.5t-55 -33.5q44 -9 68.5 -38t24.5 -72q0 -54 -40.5 -89t-102.5 -35t-102 34t-42 91h32q3 -47 34.5 -73.5t77.5 -26.5
q47 0 78 26.5t31 73.5q0 46 -32 70.5t-80 24.5h-33zM723 750l-519 -750h-38l519 750h38zM782 245v-111h92v-27h-92v-107h-33v107h-238l271 326v-40l-213 -259h180v111h33z" />
    <glyph glyph-name="questiondown" unicode="&#xbf;" horiz-adv-x="469" 
d="M301 525q0 -17 -10.5 -27.5t-27.5 -10.5t-27.5 10.5t-10.5 27.5t10.5 27.5t27.5 10.5t27.5 -10.5t10.5 -27.5zM155 164q52 40 71 75.5t19 90.5v22h35v-22q0 -69 -23 -106t-93 -94q-92 -75 -92 -164q0 -65 42.5 -108t118.5 -43q75 0 122.5 44.5t50.5 124.5h33
q-1 -90 -57.5 -143.5t-149.5 -53.5q-90 0 -143.5 49t-53.5 129q0 61 31 108t89 91z" />
    <glyph glyph-name="Agrave" unicode="&#xc0;" horiz-adv-x="687" 
d="M329 814l-131 136h43l116 -136h-28zM46 0h-36l334 784l333 -784h-38l-111 265h-371zM168 291h349l-174 416z" />
    <glyph glyph-name="Aacute" unicode="&#xc1;" horiz-adv-x="687" 
d="M359 814h-29l119 136h42zM46 0h-36l334 784l333 -784h-38l-111 265h-371zM168 291h349l-174 416z" />
    <glyph glyph-name="Acircumflex" unicode="&#xc2;" horiz-adv-x="687" 
d="M357 950l154 -136h-36l-131 111l-131 -111h-36l156 136h24zM46 0h-36l334 784l333 -784h-38l-111 265h-371zM168 291h349l-174 416z" />
    <glyph glyph-name="Atilde" unicode="&#xc3;" horiz-adv-x="687" 
d="M477 928h30q-7 -40 -33 -62.5t-62 -22.5q-35 0 -74.5 29t-63.5 29q-25 0 -42.5 -16.5t-20.5 -44.5h-30q7 40 33 62.5t62 22.5q34 0 74 -29t64 -29q25 0 42.5 16.5t20.5 44.5zM46 0h-36l334 784l333 -784h-38l-111 265h-371zM168 291h349l-174 416z" />
    <glyph glyph-name="Adieresis" unicode="&#xc4;" horiz-adv-x="687" 
d="M211 882q0 12 9 21t21 9t21 -9t9 -21t-9 -21t-21 -9t-21 9t-9 21zM417 882q0 12 9 21t21 9t21 -9t9 -21t-9 -21t-21 -9t-21 9t-9 21zM46 0h-36l334 784l333 -784h-38l-111 265h-371zM168 291h349l-174 416z" />
    <glyph glyph-name="Aring" unicode="&#xc5;" horiz-adv-x="687" 
d="M443 905q0 -41 -29 -68t-70 -27t-70 27t-29 68t29 68.5t70 27.5t70 -27.5t29 -68.5zM272 905q0 -31 21.5 -52t50.5 -21q30 0 51 21t21 52q0 32 -21 53t-51 21q-29 0 -50.5 -21t-21.5 -53zM46 0h-36l334 784l333 -784h-38l-111 265h-371zM168 291h349l-174 416z" />
    <glyph glyph-name="AE" unicode="&#xc6;" horiz-adv-x="891" 
d="M452 0v265h-269l-165 -265h-38l469 750h388v-26h-349v-314h339v-26h-339v-358h349v-26h-385zM199 291h253v408z" />
    <glyph glyph-name="Ccedilla" unicode="&#xc7;" horiz-adv-x="700" 
d="M315 -180l8 17q37 -18 73 -18q31 0 49.5 13.5t18.5 37.5q0 22 -14.5 34.5t-37.5 12.5q-29 0 -52 -15l-11 8l48 79q-155 14 -249.5 119.5t-94.5 268.5q0 174 107 282t279 108q138 0 229 -62v-35q-88 70 -228 70q-157 0 -254.5 -101t-97.5 -262t97.5 -262t254.5 -101
q140 0 228 70v-35q-91 -62 -229 -62h-16l-34 -55q13 7 33 7q33 0 52.5 -18.5t19.5 -48.5q0 -34 -25.5 -54.5t-67.5 -20.5t-86 23z" />
    <glyph glyph-name="Egrave" unicode="&#xc8;" horiz-adv-x="545" 
d="M293 814l-131 136h43l116 -136h-28zM481 384h-339v-358h349v-26h-385v750h385v-26h-349v-314h339v-26z" />
    <glyph glyph-name="Eacute" unicode="&#xc9;" horiz-adv-x="545" 
d="M323 814h-29l119 136h42zM481 384h-339v-358h349v-26h-385v750h385v-26h-349v-314h339v-26z" />
    <glyph glyph-name="Ecircumflex" unicode="&#xca;" horiz-adv-x="545" 
d="M321 950l154 -136h-36l-131 111l-131 -111h-36l156 136h24zM481 384h-339v-358h349v-26h-385v750h385v-26h-349v-314h339v-26z" />
    <glyph glyph-name="Edieresis" unicode="&#xcb;" horiz-adv-x="545" 
d="M175 882q0 12 9 21t21 9t21 -9t9 -21t-9 -21t-21 -9t-21 9t-9 21zM381 882q0 12 9 21t21 9t21 -9t9 -21t-9 -21t-21 -9t-21 9t-9 21zM481 384h-339v-358h349v-26h-385v750h385v-26h-349v-314h339v-26z" />
    <glyph glyph-name="Igrave" unicode="&#xcc;" horiz-adv-x="248" 
d="M109 814l-131 136h43l116 -136h-28zM142 0h-36v750h36v-750z" />
    <glyph glyph-name="Iacute" unicode="&#xcd;" horiz-adv-x="248" 
d="M139 814h-29l119 136h42zM142 0h-36v750h36v-750z" />
    <glyph glyph-name="Icircumflex" unicode="&#xce;" horiz-adv-x="248" 
d="M137 950l154 -136h-36l-131 111l-131 -111h-36l156 136h24zM142 0h-36v750h36v-750z" />
    <glyph glyph-name="Idieresis" unicode="&#xcf;" horiz-adv-x="248" 
d="M-9 882q0 12 9 21t21 9t21 -9t9 -21t-9 -21t-21 -9t-21 9t-9 21zM197 882q0 12 9 21t21 9t21 -9t9 -21t-9 -21t-21 -9t-21 9t-9 21zM142 0h-36v750h36v-750z" />
    <glyph glyph-name="Eth" unicode="&#xd0;" horiz-adv-x="791" 
d="M31 363v25h80v362h222q181 0 293.5 -101.5t112.5 -273.5t-112.5 -273.5t-293.5 -101.5h-222v363h-80zM147 26h187q167 0 269 94.5t102 254.5t-102 254.5t-269 94.5h-187v-336h237v-25h-237v-337z" />
    <glyph glyph-name="Ntilde" unicode="&#xd1;" horiz-adv-x="808" 
d="M547 928h30q-7 -40 -33 -62.5t-62 -22.5q-35 0 -74.5 29t-63.5 29q-25 0 -42.5 -16.5t-20.5 -44.5h-30q7 40 33 62.5t62 22.5q34 0 74 -29t64 -29q25 0 42.5 16.5t20.5 44.5zM702 750v-779l-561 707v-678h-35v750h19l542 -682v682h35z" />
    <glyph glyph-name="Ograve" unicode="&#xd2;" horiz-adv-x="868" 
d="M419 814l-131 136h43l116 -136h-28zM52 377q0 171 106.5 280.5t275.5 109.5t275.5 -109.5t106.5 -280.5t-106.5 -280.5t-275.5 -109.5t-275.5 109.5t-106.5 280.5zM434 740q-154 0 -250.5 -102.5t-96.5 -260.5t96.5 -260.5t250.5 -102.5t250.5 102.5t96.5 260.5
t-96.5 260.5t-250.5 102.5z" />
    <glyph glyph-name="Oacute" unicode="&#xd3;" horiz-adv-x="868" 
d="M449 814h-29l119 136h42zM52 377q0 171 106.5 280.5t275.5 109.5t275.5 -109.5t106.5 -280.5t-106.5 -280.5t-275.5 -109.5t-275.5 109.5t-106.5 280.5zM434 740q-154 0 -250.5 -102.5t-96.5 -260.5t96.5 -260.5t250.5 -102.5t250.5 102.5t96.5 260.5t-96.5 260.5
t-250.5 102.5z" />
    <glyph glyph-name="Ocircumflex" unicode="&#xd4;" horiz-adv-x="868" 
d="M447 950l154 -136h-36l-131 111l-131 -111h-36l156 136h24zM52 377q0 171 106.5 280.5t275.5 109.5t275.5 -109.5t106.5 -280.5t-106.5 -280.5t-275.5 -109.5t-275.5 109.5t-106.5 280.5zM434 740q-154 0 -250.5 -102.5t-96.5 -260.5t96.5 -260.5t250.5 -102.5
t250.5 102.5t96.5 260.5t-96.5 260.5t-250.5 102.5z" />
    <glyph glyph-name="Otilde" unicode="&#xd5;" horiz-adv-x="868" 
d="M567 928h30q-7 -40 -33 -62.5t-62 -22.5q-35 0 -74.5 29t-63.5 29q-25 0 -42.5 -16.5t-20.5 -44.5h-30q7 40 33 62.5t62 22.5q34 0 74 -29t64 -29q25 0 42.5 16.5t20.5 44.5zM52 377q0 171 106.5 280.5t275.5 109.5t275.5 -109.5t106.5 -280.5t-106.5 -280.5
t-275.5 -109.5t-275.5 109.5t-106.5 280.5zM434 740q-154 0 -250.5 -102.5t-96.5 -260.5t96.5 -260.5t250.5 -102.5t250.5 102.5t96.5 260.5t-96.5 260.5t-250.5 102.5z" />
    <glyph glyph-name="Odieresis" unicode="&#xd6;" horiz-adv-x="868" 
d="M301 882q0 12 9 21t21 9t21 -9t9 -21t-9 -21t-21 -9t-21 9t-9 21zM507 882q0 12 9 21t21 9t21 -9t9 -21t-9 -21t-21 -9t-21 9t-9 21zM52 377q0 171 106.5 280.5t275.5 109.5t275.5 -109.5t106.5 -280.5t-106.5 -280.5t-275.5 -109.5t-275.5 109.5t-106.5 280.5zM434 740
q-154 0 -250.5 -102.5t-96.5 -260.5t96.5 -260.5t250.5 -102.5t250.5 102.5t96.5 260.5t-96.5 260.5t-250.5 102.5z" />
    <glyph glyph-name="multiply" unicode="&#xd7;" horiz-adv-x="513" 
d="M457 146l-22 -22l-179 181l-180 -181l-20 19l180 181l-181 181l22 22l181 -181l180 181l20 -19l-180 -181z" />
    <glyph glyph-name="Oslash" unicode="&#xd8;" horiz-adv-x="874" 
d="M98 -8l-18 17l81 88q-106 109 -106 280t106.5 280.5t275.5 109.5q154 0 258 -93l81 88l18 -17l-81 -88q106 -109 106 -280t-106.5 -280.5t-275.5 -109.5q-154 0 -258 93zM437 740q-154 0 -250.5 -102.5t-96.5 -260.5q0 -155 93 -257l491 531q-95 89 -237 89zM784 377
q0 155 -93 257l-491 -531q95 -89 237 -89q154 0 250.5 102.5t96.5 260.5z" />
    <glyph glyph-name="Ugrave" unicode="&#xd9;" horiz-adv-x="772" 
d="M371 814l-131 136h43l116 -136h-28zM386 14q120 0 187.5 75.5t67.5 207.5v453h35v-451q0 -146 -77 -229t-213 -83t-213 83t-77 229v451h36v-453q0 -132 67.5 -207.5t186.5 -75.5z" />
    <glyph glyph-name="Uacute" unicode="&#xda;" horiz-adv-x="772" 
d="M401 814h-29l119 136h42zM386 14q120 0 187.5 75.5t67.5 207.5v453h35v-451q0 -146 -77 -229t-213 -83t-213 83t-77 229v451h36v-453q0 -132 67.5 -207.5t186.5 -75.5z" />
    <glyph glyph-name="Ucircumflex" unicode="&#xdb;" horiz-adv-x="772" 
d="M399 950l154 -136h-36l-131 111l-131 -111h-36l156 136h24zM386 14q120 0 187.5 75.5t67.5 207.5v453h35v-451q0 -146 -77 -229t-213 -83t-213 83t-77 229v451h36v-453q0 -132 67.5 -207.5t186.5 -75.5z" />
    <glyph glyph-name="Udieresis" unicode="&#xdc;" horiz-adv-x="772" 
d="M253 882q0 12 9 21t21 9t21 -9t9 -21t-9 -21t-21 -9t-21 9t-9 21zM459 882q0 12 9 21t21 9t21 -9t9 -21t-9 -21t-21 -9t-21 9t-9 21zM386 14q120 0 187.5 75.5t67.5 207.5v453h35v-451q0 -146 -77 -229t-213 -83t-213 83t-77 229v451h36v-453q0 -132 67.5 -207.5
t186.5 -75.5z" />
    <glyph glyph-name="Yacute" unicode="&#xdd;" horiz-adv-x="614" 
d="M326 814h-29l119 136h42zM595 750l-270 -423v-327h-36v326l-270 424h39l250 -393l250 393h37z" />
    <glyph glyph-name="Thorn" unicode="&#xde;" horiz-adv-x="592" 
d="M315 187h-173v-187h-36v750h36v-170h173q111 0 171.5 -52.5t60.5 -144.5t-60.5 -144t-171.5 -52zM142 554v-341h160q210 0 210 171q0 170 -210 170h-160z" />
    <glyph glyph-name="germandbls" unicode="&#xdf;" horiz-adv-x="569" 
d="M191 11v32q48 -30 115 -30q83 0 132 47.5t49 135.5q0 97 -58.5 147.5t-146.5 50.5h-50v25h41q84 0 123 43.5t39 115.5q0 76 -40 119.5t-110 43.5q-76 0 -121 -50.5t-45 -137.5v-553h-34v556q0 95 55.5 153t144.5 58q85 0 135.5 -52t50.5 -135q0 -67 -34.5 -113.5
t-95.5 -59.5q89 -10 135.5 -68t46.5 -140q0 -94 -59 -153t-159 -59q-67 0 -114 24z" />
    <glyph glyph-name="agrave" unicode="&#xe0;" horiz-adv-x="488" 
d="M233 614l-123 136h44l109 -136h-30zM376 338v27q0 56 -39 88t-99 32q-86 0 -162 -65v33q78 58 165 58q76 0 122.5 -40t46.5 -109v-362h-32v148q-14 -74 -58.5 -116t-113.5 -42q-73 0 -120 43t-47 103q0 59 42.5 94t137.5 59q79 19 105.5 27.5t51.5 21.5zM376 240v70
l-170 -49q-72 -21 -102 -47.5t-30 -72.5q0 -57 38 -91t95 -34q73 0 121 58.5t48 165.5z" />
    <glyph glyph-name="aacute" unicode="&#xe1;" horiz-adv-x="488" 
d="M261 614h-29l109 136h42zM376 338v27q0 56 -39 88t-99 32q-86 0 -162 -65v33q78 58 165 58q76 0 122.5 -40t46.5 -109v-362h-32v148q-14 -74 -58.5 -116t-113.5 -42q-73 0 -120 43t-47 103q0 59 42.5 94t137.5 59q79 19 105.5 27.5t51.5 21.5zM376 240v70l-170 -49
q-72 -21 -102 -47.5t-30 -72.5q0 -57 38 -91t95 -34q73 0 121 58.5t48 165.5z" />
    <glyph glyph-name="acircumflex" unicode="&#xe2;" horiz-adv-x="488" 
d="M260 750l138 -136h-35l-115 111l-116 -111h-36l140 136h24zM376 338v27q0 56 -39 88t-99 32q-86 0 -162 -65v33q78 58 165 58q76 0 122.5 -40t46.5 -109v-362h-32v148q-14 -74 -58.5 -116t-113.5 -42q-73 0 -120 43t-47 103q0 59 42.5 94t137.5 59q79 19 105.5 27.5
t51.5 21.5zM376 240v70l-170 -49q-72 -21 -102 -47.5t-30 -72.5q0 -57 38 -91t95 -34q73 0 121 58.5t48 165.5z" />
    <glyph glyph-name="atilde" unicode="&#xe3;" horiz-adv-x="488" 
d="M376 743h29q-7 -40 -31.5 -62.5t-60.5 -22.5q-35 0 -73 29t-62 29t-40.5 -16.5t-19.5 -44.5h-29q7 40 31.5 62.5t60.5 22.5q34 0 72.5 -29t62.5 -29t40.5 16.5t19.5 44.5zM376 338v27q0 56 -39 88t-99 32q-86 0 -162 -65v33q78 58 165 58q76 0 122.5 -40t46.5 -109v-362
h-32v148q-14 -74 -58.5 -116t-113.5 -42q-73 0 -120 43t-47 103q0 59 42.5 94t137.5 59q79 19 105.5 27.5t51.5 21.5zM376 240v70l-170 -49q-72 -21 -102 -47.5t-30 -72.5q0 -57 38 -91t95 -34q73 0 121 58.5t48 165.5z" />
    <glyph glyph-name="adieresis" unicode="&#xe4;" horiz-adv-x="488" 
d="M130 717q0 12 9 21t21 9t21 -9t9 -21t-9 -21t-21 -9t-21 9t-9 21zM304 717q0 12 9 21t21 9t21 -9t9 -21t-9 -21t-21 -9t-21 9t-9 21zM376 338v27q0 56 -39 88t-99 32q-86 0 -162 -65v33q78 58 165 58q76 0 122.5 -40t46.5 -109v-362h-32v148q-14 -74 -58.5 -116
t-113.5 -42q-73 0 -120 43t-47 103q0 59 42.5 94t137.5 59q79 19 105.5 27.5t51.5 21.5zM376 240v70l-170 -49q-72 -21 -102 -47.5t-30 -72.5q0 -57 38 -91t95 -34q73 0 121 58.5t48 165.5z" />
    <glyph glyph-name="aring" unicode="&#xe5;" horiz-adv-x="488" 
d="M344 699q0 -41 -28 -67t-69 -26t-69 26t-28 67t28.5 67.5t68.5 26.5t68.5 -26.5t28.5 -67.5zM178 699q0 -29 21 -49.5t48 -20.5q28 0 48.5 20t20.5 50q0 31 -20.5 51t-48.5 20q-27 0 -48 -20.5t-21 -50.5zM376 338v27q0 56 -39 88t-99 32q-86 0 -162 -65v33q78 58 165 58
q76 0 122.5 -40t46.5 -109v-362h-32v148q-14 -74 -58.5 -116t-113.5 -42q-73 0 -120 43t-47 103q0 59 42.5 94t137.5 59q79 19 105.5 27.5t51.5 21.5zM376 240v70l-170 -49q-72 -21 -102 -47.5t-30 -72.5q0 -57 38 -91t95 -34q73 0 121 58.5t48 165.5z" />
    <glyph glyph-name="ae" unicode="&#xe6;" horiz-adv-x="856" 
d="M791 56q-69 -69 -181 -69q-80 0 -138.5 43t-81.5 124q-19 -77 -65 -120.5t-117 -43.5q-75 0 -122 43t-47 103q0 59 42.5 94t137.5 59q79 19 105.5 27.5t51.5 21.5v27q0 56 -39 88t-99 32q-86 0 -162 -65v33q78 58 165 58q68 0 112 -33t52 -92q29 62 81 93.5t118 31.5
q97 0 153.5 -64t56.5 -182h-407v-17q0 -116 58 -175t146 -59q109 0 180 77v-35zM603 485q-81 0 -132.5 -52.5t-61.5 -142.5h370q-5 93 -50.5 144t-125.5 51zM376 240v70l-170 -49q-71 -21 -101 -47.5t-30 -72.5q0 -57 38 -91t94 -34q73 0 121 58.5t48 165.5z" />
    <glyph glyph-name="ccedilla" unicode="&#xe7;" horiz-adv-x="460" 
d="M47 249q0 117 74 189.5t188 72.5q70 0 118 -24v-31q-49 29 -117 29q-102 0 -165 -65.5t-63 -170.5t63 -170.5t165 -65.5q66 0 117 30v-32q-48 -24 -118 -24h-8l-34 -55q13 7 33 7q33 0 52.5 -18.5t19.5 -48.5q0 -34 -25.5 -54.5t-67.5 -20.5t-86 23l8 17q37 -18 73 -18
q31 0 49.5 13.5t18.5 37.5q0 22 -14.5 34.5t-37.5 12.5q-29 0 -52 -15l-11 8l48 79q-101 11 -164.5 82t-63.5 178z" />
    <glyph glyph-name="egrave" unicode="&#xe8;" horiz-adv-x="535" 
d="M271 614l-123 136h44l109 -136h-30zM289 -13q-105 0 -172.5 69.5t-67.5 191.5q0 127 67.5 195t166.5 68q97 0 153.5 -64t56.5 -182h-409v-17q0 -116 58.5 -175t147.5 -59q109 0 180 77v-35q-69 -69 -181 -69zM282 485q-83 0 -134.5 -52.5t-61.5 -142.5h373
q-5 93 -50.5 144t-126.5 51z" />
    <glyph glyph-name="eacute" unicode="&#xe9;" horiz-adv-x="535" 
d="M299 614h-29l109 136h42zM289 -13q-105 0 -172.5 69.5t-67.5 191.5q0 127 67.5 195t166.5 68q97 0 153.5 -64t56.5 -182h-409v-17q0 -116 58.5 -175t147.5 -59q109 0 180 77v-35q-69 -69 -181 -69zM282 485q-83 0 -134.5 -52.5t-61.5 -142.5h373q-5 93 -50.5 144
t-126.5 51z" />
    <glyph glyph-name="ecircumflex" unicode="&#xea;" horiz-adv-x="535" 
d="M298 750l138 -136h-35l-115 111l-116 -111h-36l140 136h24zM289 -13q-105 0 -172.5 69.5t-67.5 191.5q0 127 67.5 195t166.5 68q97 0 153.5 -64t56.5 -182h-409v-17q0 -116 58.5 -175t147.5 -59q109 0 180 77v-35q-69 -69 -181 -69zM282 485q-83 0 -134.5 -52.5
t-61.5 -142.5h373q-5 93 -50.5 144t-126.5 51z" />
    <glyph glyph-name="edieresis" unicode="&#xeb;" horiz-adv-x="535" 
d="M168 717q0 12 9 21t21 9t21 -9t9 -21t-9 -21t-21 -9t-21 9t-9 21zM342 717q0 12 9 21t21 9t21 -9t9 -21t-9 -21t-21 -9t-21 9t-9 21zM289 -13q-105 0 -172.5 69.5t-67.5 191.5q0 127 67.5 195t166.5 68q97 0 153.5 -64t56.5 -182h-409v-17q0 -116 58.5 -175t147.5 -59
q109 0 180 77v-35q-69 -69 -181 -69zM282 485q-83 0 -134.5 -52.5t-61.5 -142.5h373q-5 93 -50.5 144t-126.5 51z" />
    <glyph glyph-name="igrave" unicode="&#xec;" 
d="M88 614l-123 136h44l109 -136h-30zM119 0h-34v500h34v-500z" />
    <glyph glyph-name="iacute" unicode="&#xed;" 
d="M116 614h-29l109 136h42zM119 0h-34v500h34v-500z" />
    <glyph glyph-name="icircumflex" unicode="&#xee;" 
d="M115 750l138 -136h-35l-115 111l-116 -111h-36l140 136h24zM119 0h-34v500h34v-500z" />
    <glyph glyph-name="idieresis" unicode="&#xef;" 
d="M-5 717q0 12 9 21t21 9t21 -9t9 -21t-9 -21t-21 -9t-21 9t-9 21zM149 717q0 12 9 21t21 9t21 -9t9 -21t-9 -21t-21 -9t-21 9t-9 21zM119 0h-34v500h34v-500z" />
    <glyph glyph-name="eth" unicode="&#xf0;" horiz-adv-x="570" 
d="M520 264q0 -126 -64 -201.5t-172 -75.5q-106 0 -171 72t-65 190t65 190t169 72q61 0 102 -24.5t76 -69.5l2 1q-42 99 -141 208l-104 -56l-11 21l99 53q-48 51 -115 106h40q55 -44 102 -91l105 56l11 -21l-99 -53q171 -180 171 -377zM284 485q-92 0 -146 -63.5t-54 -172.5
t54 -172.5t146 -63.5t146 63.5t54 172.5t-54 172.5t-146 63.5z" />
    <glyph glyph-name="ntilde" unicode="&#xf1;" horiz-adv-x="569" 
d="M420 743h29q-7 -40 -31.5 -62.5t-60.5 -22.5q-35 0 -73 29t-62 29t-40.5 -16.5t-19.5 -44.5h-29q7 40 31.5 62.5t60.5 22.5q34 0 72.5 -29t62.5 -29t40.5 16.5t19.5 44.5zM117 500v-122q18 61 69.5 97t119.5 36q85 0 135 -57.5t50 -150.5v-303h-34v288q0 93 -40.5 145
t-116.5 52q-78 0 -129.5 -53t-51.5 -129v-303h-34v500h32z" />
    <glyph glyph-name="ograve" unicode="&#xf2;" horiz-adv-x="568" 
d="M270 614l-123 136h44l109 -136h-30zM48 249q0 118 65 190t171 72t171 -72t65 -190t-65 -190t-171 -72t-171 72t-65 190zM284 485q-93 0 -147 -63.5t-54 -172.5t54.5 -172.5t146.5 -63.5q93 0 147 63.5t54 172.5t-54 172.5t-147 63.5z" />
    <glyph glyph-name="oacute" unicode="&#xf3;" horiz-adv-x="568" 
d="M298 614h-29l109 136h42zM48 249q0 118 65 190t171 72t171 -72t65 -190t-65 -190t-171 -72t-171 72t-65 190zM284 485q-93 0 -147 -63.5t-54 -172.5t54.5 -172.5t146.5 -63.5q93 0 147 63.5t54 172.5t-54 172.5t-147 63.5z" />
    <glyph glyph-name="ocircumflex" unicode="&#xf4;" horiz-adv-x="568" 
d="M297 750l138 -136h-35l-115 111l-116 -111h-36l140 136h24zM48 249q0 118 65 190t171 72t171 -72t65 -190t-65 -190t-171 -72t-171 72t-65 190zM284 485q-93 0 -147 -63.5t-54 -172.5t54.5 -172.5t146.5 -63.5q93 0 147 63.5t54 172.5t-54 172.5t-147 63.5z" />
    <glyph glyph-name="otilde" unicode="&#xf5;" horiz-adv-x="568" 
d="M413 743h29q-7 -40 -31.5 -62.5t-60.5 -22.5q-35 0 -73 29t-62 29t-40.5 -16.5t-19.5 -44.5h-29q7 40 31.5 62.5t60.5 22.5q34 0 72.5 -29t62.5 -29t40.5 16.5t19.5 44.5zM48 249q0 118 65 190t171 72t171 -72t65 -190t-65 -190t-171 -72t-171 72t-65 190zM284 485
q-93 0 -147 -63.5t-54 -172.5t54.5 -172.5t146.5 -63.5q93 0 147 63.5t54 172.5t-54 172.5t-147 63.5z" />
    <glyph glyph-name="odieresis" unicode="&#xf6;" horiz-adv-x="568" 
d="M167 717q0 12 9 21t21 9t21 -9t9 -21t-9 -21t-21 -9t-21 9t-9 21zM341 717q0 12 9 21t21 9t21 -9t9 -21t-9 -21t-21 -9t-21 9t-9 21zM48 249q0 118 65 190t171 72t171 -72t65 -190t-65 -190t-171 -72t-171 72t-65 190zM284 485q-93 0 -147 -63.5t-54 -172.5t54.5 -172.5
t146.5 -63.5q93 0 147 63.5t54 172.5t-54 172.5t-147 63.5z" />
    <glyph glyph-name="oslash" unicode="&#xf8;" horiz-adv-x="582" 
d="M291 -13q-100 0 -165 65l-64 -69l-18 17l66 71q-55 71 -55 178q0 118 65 190t171 72q101 0 165 -66l64 70l18 -17l-66 -71q55 -71 55 -178q0 -118 -65 -190t-171 -72zM291 485q-92 0 -146 -63.5t-54 -172.5q0 -95 41 -154l303 328q-53 62 -144 62zM491 249q0 94 -40 154
l-304 -328q54 -62 144 -62q92 0 146 63.5t54 172.5z" />
    <glyph glyph-name="ugrave" unicode="&#xf9;" horiz-adv-x="551" 
d="M262 614l-123 136h44l109 -136h-30zM434 0v118q-19 -60 -63.5 -95.5t-110.5 -35.5q-83 0 -132.5 55.5t-49.5 152.5v305h34v-290q0 -93 40.5 -145t112.5 -52q74 0 120.5 52.5t46.5 129.5v305h34v-500h-32z" />
    <glyph glyph-name="uacute" unicode="&#xfa;" horiz-adv-x="551" 
d="M290 614h-29l109 136h42zM434 0v118q-19 -60 -63.5 -95.5t-110.5 -35.5q-83 0 -132.5 55.5t-49.5 152.5v305h34v-290q0 -93 40.5 -145t112.5 -52q74 0 120.5 52.5t46.5 129.5v305h34v-500h-32z" />
    <glyph glyph-name="ucircumflex" unicode="&#xfb;" horiz-adv-x="551" 
d="M289 750l138 -136h-35l-115 111l-116 -111h-36l140 136h24zM434 0v118q-19 -60 -63.5 -95.5t-110.5 -35.5q-83 0 -132.5 55.5t-49.5 152.5v305h34v-290q0 -93 40.5 -145t112.5 -52q74 0 120.5 52.5t46.5 129.5v305h34v-500h-32z" />
    <glyph glyph-name="udieresis" unicode="&#xfc;" horiz-adv-x="551" 
d="M159 717q0 12 9 21t21 9t21 -9t9 -21t-9 -21t-21 -9t-21 9t-9 21zM333 717q0 12 9 21t21 9t21 -9t9 -21t-9 -21t-21 -9t-21 9t-9 21zM434 0v118q-19 -60 -63.5 -95.5t-110.5 -35.5q-83 0 -132.5 55.5t-49.5 152.5v305h34v-290q0 -93 40.5 -145t112.5 -52q74 0 120.5 52.5
t46.5 129.5v305h34v-500h-32z" />
    <glyph glyph-name="yacute" unicode="&#xfd;" horiz-adv-x="513" 
d="M274 614h-29l109 136h42zM123 -204l118 244l-223 460h38l203 -424l205 424h33l-341 -704h-33z" />
    <glyph glyph-name="thorn" unicode="&#xfe;" horiz-adv-x="580" 
d="M119 101v-305h-34v954h34v-350q18 53 68 82t112 29q103 0 168 -73t65 -189t-65 -189t-168 -73q-62 0 -111.5 30t-68.5 84zM496 249q0 109 -54 172.5t-148 63.5q-72 0 -123.5 -45.5t-51.5 -124.5v-134q0 -79 51 -123.5t124 -44.5q94 0 148 63.5t54 172.5z" />
    <glyph glyph-name="ydieresis" unicode="&#xff;" horiz-adv-x="513" 
d="M143 717q0 12 9 21t21 9t21 -9t9 -21t-9 -21t-21 -9t-21 9t-9 21zM317 717q0 12 9 21t21 9t21 -9t9 -21t-9 -21t-21 -9t-21 9t-9 21zM123 -204l118 244l-223 460h38l203 -424l205 424h33l-341 -704h-33z" />
    <glyph glyph-name="Amacron" unicode="&#x100;" horiz-adv-x="687" 
d="M486 872h-284v24h284v-24zM46 0h-36l334 784l333 -784h-38l-111 265h-371zM168 291h349l-174 416z" />
    <glyph glyph-name="amacron" unicode="&#x101;" horiz-adv-x="488" 
d="M384 687h-274v24h274v-24zM376 338v27q0 56 -39 88t-99 32q-86 0 -162 -65v33q78 58 165 58q76 0 122.5 -40t46.5 -109v-362h-32v148q-14 -74 -58.5 -116t-113.5 -42q-73 0 -120 43t-47 103q0 59 42.5 94t137.5 59q79 19 105.5 27.5t51.5 21.5zM376 240v70l-170 -49
q-72 -21 -102 -47.5t-30 -72.5q0 -57 38 -91t95 -34q73 0 121 58.5t48 165.5z" />
    <glyph glyph-name="Abreve" unicode="&#x102;" horiz-adv-x="687" 
d="M197 946h27q3 -50 35 -77.5t85 -27.5t86 27.5t36 77.5h25q-4 -62 -44 -96t-103 -34t-103 34t-44 96zM46 0h-36l334 784l333 -784h-38l-111 265h-371zM168 291h349l-174 416z" />
    <glyph glyph-name="abreve" unicode="&#x103;" horiz-adv-x="488" 
d="M110 750h27q3 -51 33 -81t77 -30q48 0 78.5 30t33.5 81h25q-4 -63 -41.5 -99.5t-95.5 -36.5t-95.5 36.5t-41.5 99.5zM376 338v27q0 56 -39 88t-99 32q-86 0 -162 -65v33q78 58 165 58q76 0 122.5 -40t46.5 -109v-362h-32v148q-14 -74 -58.5 -116t-113.5 -42
q-73 0 -120 43t-47 103q0 59 42.5 94t137.5 59q79 19 105.5 27.5t51.5 21.5zM376 240v70l-170 -49q-72 -21 -102 -47.5t-30 -72.5q0 -57 38 -91t95 -34q73 0 121 58.5t48 165.5z" />
    <glyph glyph-name="Aogonek" unicode="&#x104;" horiz-adv-x="687" 
d="M677 0q-45 -18 -69.5 -45.5t-24.5 -58.5q0 -25 17.5 -39.5t46.5 -14.5q43 0 72 31v-31q-30 -30 -76 -30q-41 0 -65 21.5t-24 57.5q0 67 85 109l-111 265h-371l-111 -265h-36l334 784zM168 291h349l-174 416z" />
    <glyph glyph-name="aogonek" unicode="&#x105;" horiz-adv-x="488" 
d="M453 -158q-30 -30 -76 -30q-35 0 -62 18.5t-27 60.5q0 65 90 109v148q-14 -74 -58.5 -116t-113.5 -42q-73 0 -120 43t-47 103q0 59 42.5 94t137.5 59q79 19 105.5 27.5t51.5 21.5v27q0 56 -39 88t-99 32q-86 0 -162 -65v33q78 58 165 58q76 0 122.5 -40t46.5 -109v-362
q-44 -19 -68.5 -46t-24.5 -58q0 -27 18.5 -40.5t45.5 -13.5q43 0 72 31v-31zM376 240v70l-170 -49q-72 -21 -102 -47.5t-30 -72.5q0 -57 38 -91t95 -34q73 0 121 58.5t48 165.5z" />
    <glyph glyph-name="Cacute" unicode="&#x106;" horiz-adv-x="700" 
d="M454 814h-29l119 136h42zM53 377q0 174 107 282t279 108q138 0 229 -62v-35q-88 70 -228 70q-157 0 -254.5 -101t-97.5 -262t97.5 -262t254.5 -101q140 0 228 70v-35q-91 -62 -229 -62q-172 0 -279 108t-107 282z" />
    <glyph glyph-name="cacute" unicode="&#x107;" horiz-adv-x="460" 
d="M301 614h-29l109 136h42zM47 249q0 117 74 189.5t188 72.5q70 0 118 -24v-31q-49 29 -117 29q-102 0 -165 -65.5t-63 -170.5t63 -170.5t165 -65.5q66 0 117 30v-32q-48 -24 -118 -24q-114 0 -188 72.5t-74 189.5z" />
    <glyph glyph-name="Ccircumflex" unicode="&#x108;" horiz-adv-x="700" 
d="M452 950l154 -136h-36l-131 111l-131 -111h-36l156 136h24zM53 377q0 174 107 282t279 108q138 0 229 -62v-35q-88 70 -228 70q-157 0 -254.5 -101t-97.5 -262t97.5 -262t254.5 -101q140 0 228 70v-35q-91 -62 -229 -62q-172 0 -279 108t-107 282z" />
    <glyph glyph-name="ccircumflex" unicode="&#x109;" horiz-adv-x="460" 
d="M300 750l138 -136h-35l-115 111l-116 -111h-36l140 136h24zM47 249q0 117 74 189.5t188 72.5q70 0 118 -24v-31q-49 29 -117 29q-102 0 -165 -65.5t-63 -170.5t63 -170.5t165 -65.5q66 0 117 30v-32q-48 -24 -118 -24q-114 0 -188 72.5t-74 189.5z" />
    <glyph glyph-name="Cdotaccent" unicode="&#x10a;" horiz-adv-x="700" 
d="M439 852q-13 0 -21.5 8.5t-8.5 21.5t8.5 21.5t21.5 8.5t21.5 -8.5t8.5 -21.5t-8.5 -21.5t-21.5 -8.5zM53 377q0 174 107 282t279 108q138 0 229 -62v-35q-88 70 -228 70q-157 0 -254.5 -101t-97.5 -262t97.5 -262t254.5 -101q140 0 228 70v-35q-91 -62 -229 -62
q-172 0 -279 108t-107 282z" />
    <glyph glyph-name="cdotaccent" unicode="&#x10b;" horiz-adv-x="460" 
d="M287 687q-13 0 -21.5 8.5t-8.5 21.5t8.5 21.5t21.5 8.5t21.5 -8.5t8.5 -21.5t-8.5 -21.5t-21.5 -8.5zM47 249q0 117 74 189.5t188 72.5q70 0 118 -24v-31q-49 29 -117 29q-102 0 -165 -65.5t-63 -170.5t63 -170.5t165 -65.5q66 0 117 30v-32q-48 -24 -118 -24
q-114 0 -188 72.5t-74 189.5z" />
    <glyph glyph-name="Ccaron" unicode="&#x10c;" horiz-adv-x="700" 
d="M426 814l-154 136h36l131 -111l131 111h36l-156 -136h-24zM53 377q0 174 107 282t279 108q138 0 229 -62v-35q-88 70 -228 70q-157 0 -254.5 -101t-97.5 -262t97.5 -262t254.5 -101q140 0 228 70v-35q-91 -62 -229 -62q-172 0 -279 108t-107 282z" />
    <glyph glyph-name="ccaron" unicode="&#x10d;" horiz-adv-x="460" 
d="M274 614l-138 136h35l116 -111l115 111h36l-140 -136h-24zM47 249q0 117 74 189.5t188 72.5q70 0 118 -24v-31q-49 29 -117 29q-102 0 -165 -65.5t-63 -170.5t63 -170.5t165 -65.5q66 0 117 30v-32q-48 -24 -118 -24q-114 0 -188 72.5t-74 189.5z" />
    <glyph glyph-name="Dcaron" unicode="&#x10e;" horiz-adv-x="786" 
d="M368 814l-154 136h36l131 -111l131 111h36l-156 -136h-24zM734 375q0 -172 -112.5 -273.5t-293.5 -101.5h-222v750h222q181 0 293.5 -101.5t112.5 -273.5zM142 26h187q167 0 269 94.5t102 254.5t-102 254.5t-269 94.5h-187v-698z" />
    <glyph glyph-name="dcaron" unicode="&#x10f;" horiz-adv-x="580" 
d="M461 397v353h34v-750h-32v101q-19 -54 -69 -84t-113 -30q-103 0 -168 73t-65 189t65 189t168 73q62 0 111.5 -30t68.5 -84zM561 580h-22l37 170h33zM83 249q0 -109 54.5 -172.5t148.5 -63.5q72 0 123.5 45.5t51.5 124.5v134q0 79 -51 123.5t-124 44.5q-94 0 -148.5 -63.5
t-54.5 -172.5z" />
    <glyph glyph-name="Dcroat" unicode="&#x110;" horiz-adv-x="791" 
d="M31 363v25h80v362h222q181 0 293.5 -101.5t112.5 -273.5t-112.5 -273.5t-293.5 -101.5h-222v363h-80zM147 26h187q167 0 269 94.5t102 254.5t-102 254.5t-269 94.5h-187v-336h237v-25h-237v-337z" />
    <glyph glyph-name="dcroat" unicode="&#x111;" horiz-adv-x="580" 
d="M461 397v196h-190v24h190v133h34v-133h65v-24h-65v-593h-32v101q-19 -54 -69 -84t-113 -30q-103 0 -168 73t-65 189t65 189t168 73q62 0 111.5 -30t68.5 -84zM83 249q0 -109 54.5 -172.5t148.5 -63.5q72 0 123.5 45.5t51.5 124.5v134q0 79 -51 123.5t-124 44.5
q-94 0 -148.5 -63.5t-54.5 -172.5z" />
    <glyph glyph-name="Emacron" unicode="&#x112;" horiz-adv-x="545" 
d="M450 872h-284v24h284v-24zM481 384h-339v-358h349v-26h-385v750h385v-26h-349v-314h339v-26z" />
    <glyph glyph-name="emacron" unicode="&#x113;" horiz-adv-x="535" 
d="M422 687h-274v24h274v-24zM289 -13q-105 0 -172.5 69.5t-67.5 191.5q0 127 67.5 195t166.5 68q97 0 153.5 -64t56.5 -182h-409v-17q0 -116 58.5 -175t147.5 -59q109 0 180 77v-35q-69 -69 -181 -69zM282 485q-83 0 -134.5 -52.5t-61.5 -142.5h373q-5 93 -50.5 144
t-126.5 51z" />
    <glyph glyph-name="Ebreve" unicode="&#x114;" horiz-adv-x="545" 
d="M161 946h27q3 -50 35 -77.5t85 -27.5t86 27.5t36 77.5h25q-4 -62 -44 -96t-103 -34t-103 34t-44 96zM481 384h-339v-358h349v-26h-385v750h385v-26h-349v-314h339v-26z" />
    <glyph glyph-name="ebreve" unicode="&#x115;" horiz-adv-x="535" 
d="M148 750h27q3 -51 33 -81t77 -30q48 0 78.5 30t33.5 81h25q-4 -63 -41.5 -99.5t-95.5 -36.5t-95.5 36.5t-41.5 99.5zM289 -13q-105 0 -172.5 69.5t-67.5 191.5q0 127 67.5 195t166.5 68q97 0 153.5 -64t56.5 -182h-409v-17q0 -116 58.5 -175t147.5 -59q109 0 180 77v-35
q-69 -69 -181 -69zM282 485q-83 0 -134.5 -52.5t-61.5 -142.5h373q-5 93 -50.5 144t-126.5 51z" />
    <glyph glyph-name="Edotaccent" unicode="&#x116;" horiz-adv-x="545" 
d="M308 852q-13 0 -21.5 8.5t-8.5 21.5t8.5 21.5t21.5 8.5t21.5 -8.5t8.5 -21.5t-8.5 -21.5t-21.5 -8.5zM481 384h-339v-358h349v-26h-385v750h385v-26h-349v-314h339v-26z" />
    <glyph glyph-name="edotaccent" unicode="&#x117;" horiz-adv-x="535" 
d="M285 687q-13 0 -21.5 8.5t-8.5 21.5t8.5 21.5t21.5 8.5t21.5 -8.5t8.5 -21.5t-8.5 -21.5t-21.5 -8.5zM289 -13q-105 0 -172.5 69.5t-67.5 191.5q0 127 67.5 195t166.5 68q97 0 153.5 -64t56.5 -182h-409v-17q0 -116 58.5 -175t147.5 -59q109 0 180 77v-35
q-69 -69 -181 -69zM282 485q-83 0 -134.5 -52.5t-61.5 -142.5h373q-5 93 -50.5 144t-126.5 51z" />
    <glyph glyph-name="Eogonek" unicode="&#x118;" horiz-adv-x="545" 
d="M491 0q-46 -20 -74 -47t-28 -57q0 -25 17.5 -39.5t46.5 -14.5q43 0 72 31v-31q-30 -30 -76 -30q-41 0 -65 21.5t-24 57.5t25 61.5t70 47.5h-349v750h385v-26h-349v-314h339v-26h-339v-358h349v-26z" />
    <glyph glyph-name="eogonek" unicode="&#x119;" horiz-adv-x="535" 
d="M470 -158q-30 -30 -76 -30q-35 0 -61 19t-26 61q0 34 17.5 58.5t53.5 50.5q-40 -14 -89 -14q-105 0 -172.5 69.5t-67.5 191.5q0 127 67.5 195t166.5 68q97 0 153.5 -64t56.5 -182h-409v-17q0 -116 58.5 -175t147.5 -59q109 0 180 77v-35q-16 -15 -58.5 -50.5t-59 -58
t-16.5 -51.5q0 -27 18 -40.5t44 -13.5q43 0 72 31v-31zM282 485q-83 0 -134.5 -52.5t-61.5 -142.5h373q-5 93 -50.5 144t-126.5 51z" />
    <glyph glyph-name="Ecaron" unicode="&#x11a;" horiz-adv-x="545" 
d="M295 814l-154 136h36l131 -111l131 111h36l-156 -136h-24zM481 384h-339v-358h349v-26h-385v750h385v-26h-349v-314h339v-26z" />
    <glyph glyph-name="ecaron" unicode="&#x11b;" horiz-adv-x="535" 
d="M272 614l-138 136h35l116 -111l115 111h36l-140 -136h-24zM289 -13q-105 0 -172.5 69.5t-67.5 191.5q0 127 67.5 195t166.5 68q97 0 153.5 -64t56.5 -182h-409v-17q0 -116 58.5 -175t147.5 -59q109 0 180 77v-35q-69 -69 -181 -69zM282 485q-83 0 -134.5 -52.5
t-61.5 -142.5h373q-5 93 -50.5 144t-126.5 51z" />
    <glyph glyph-name="Gcircumflex" unicode="&#x11c;" horiz-adv-x="822" 
d="M446 950l154 -136h-36l-131 111l-131 -111h-36l156 136h24zM738 0l-6 178q-28 -85 -105 -138t-194 -53q-170 0 -275 109t-105 281t105 281t275 109q124 0 201 -59.5t112 -159.5h-34q-78 192 -279 192q-156 0 -250.5 -102t-94.5 -261t94.5 -261t250.5 -102q60 0 112 17.5
t94.5 52.5t67 96t24.5 142v27h-248v26h275v-375h-20z" />
    <glyph glyph-name="gcircumflex" unicode="&#x11d;" horiz-adv-x="512" 
d="M270 750l138 -136h-35l-115 111l-116 -111h-36l140 136h24zM62 83q0 58 83 87q-84 47 -84 158q0 84 55 133.5t135 49.5q34 0 67 -11h178v-25h-129q74 -53 74 -147q0 -83 -55 -133t-135 -50q-48 0 -84 14q-28 -8 -49 -26.5t-21 -43.5q0 -55 109 -51l95 4q83 3 130 -23
t47 -82q0 -63 -59.5 -102t-158.5 -39q-130 0 -224 59v34q94 -67 223 -67q49 0 88 9.5t68 35.5t29 66q0 49 -41.5 66.5t-119.5 15.5l-90 -3q-131 -4 -131 71zM251 485q-72 0 -114 -42.5t-42 -114.5t42 -114.5t114 -42.5t114 42.5t42 114.5t-42 114.5t-114 42.5z" />
    <glyph glyph-name="Gbreve" unicode="&#x11e;" horiz-adv-x="822" 
d="M286 946h27q3 -50 35 -77.5t85 -27.5t86 27.5t36 77.5h25q-4 -62 -44 -96t-103 -34t-103 34t-44 96zM738 0l-6 178q-28 -85 -105 -138t-194 -53q-170 0 -275 109t-105 281t105 281t275 109q124 0 201 -59.5t112 -159.5h-34q-78 192 -279 192q-156 0 -250.5 -102
t-94.5 -261t94.5 -261t250.5 -102q60 0 112 17.5t94.5 52.5t67 96t24.5 142v27h-248v26h275v-375h-20z" />
    <glyph glyph-name="gbreve" unicode="&#x11f;" horiz-adv-x="512" 
d="M120 750h27q3 -51 33 -81t77 -30q48 0 78.5 30t33.5 81h25q-4 -63 -41.5 -99.5t-95.5 -36.5t-95.5 36.5t-41.5 99.5zM62 83q0 58 83 87q-84 47 -84 158q0 84 55 133.5t135 49.5q34 0 67 -11h178v-25h-129q74 -53 74 -147q0 -83 -55 -133t-135 -50q-48 0 -84 14
q-28 -8 -49 -26.5t-21 -43.5q0 -55 109 -51l95 4q83 3 130 -23t47 -82q0 -63 -59.5 -102t-158.5 -39q-130 0 -224 59v34q94 -67 223 -67q49 0 88 9.5t68 35.5t29 66q0 49 -41.5 66.5t-119.5 15.5l-90 -3q-131 -4 -131 71zM251 485q-72 0 -114 -42.5t-42 -114.5t42 -114.5
t114 -42.5t114 42.5t42 114.5t-42 114.5t-114 42.5z" />
    <glyph glyph-name="Gdotaccent" unicode="&#x120;" horiz-adv-x="822" 
d="M433 852q-13 0 -21.5 8.5t-8.5 21.5t8.5 21.5t21.5 8.5t21.5 -8.5t8.5 -21.5t-8.5 -21.5t-21.5 -8.5zM738 0l-6 178q-28 -85 -105 -138t-194 -53q-170 0 -275 109t-105 281t105 281t275 109q124 0 201 -59.5t112 -159.5h-34q-78 192 -279 192q-156 0 -250.5 -102
t-94.5 -261t94.5 -261t250.5 -102q60 0 112 17.5t94.5 52.5t67 96t24.5 142v27h-248v26h275v-375h-20z" />
    <glyph glyph-name="gdotaccent" unicode="&#x121;" horiz-adv-x="512" 
d="M257 687q-13 0 -21.5 8.5t-8.5 21.5t8.5 21.5t21.5 8.5t21.5 -8.5t8.5 -21.5t-8.5 -21.5t-21.5 -8.5zM62 83q0 58 83 87q-84 47 -84 158q0 84 55 133.5t135 49.5q34 0 67 -11h178v-25h-129q74 -53 74 -147q0 -83 -55 -133t-135 -50q-48 0 -84 14q-28 -8 -49 -26.5
t-21 -43.5q0 -55 109 -51l95 4q83 3 130 -23t47 -82q0 -63 -59.5 -102t-158.5 -39q-130 0 -224 59v34q94 -67 223 -67q49 0 88 9.5t68 35.5t29 66q0 49 -41.5 66.5t-119.5 15.5l-90 -3q-131 -4 -131 71zM251 485q-72 0 -114 -42.5t-42 -114.5t42 -114.5t114 -42.5t114 42.5
t42 114.5t-42 114.5t-114 42.5z" />
    <glyph glyph-name="Gcommaaccent" unicode="&#x122;" horiz-adv-x="822" 
d="M738 0l-6 178q-28 -85 -105 -138t-194 -53q-170 0 -275 109t-105 281t105 281t275 109q124 0 201 -59.5t112 -159.5h-34q-78 192 -279 192q-156 0 -250.5 -102t-94.5 -261t94.5 -261t250.5 -102q60 0 112 17.5t94.5 52.5t67 96t24.5 142v27h-248v26h275v-375h-20z
M402 -223l29 94h-30v59h60v-59l-39 -94h-20z" />
    <glyph glyph-name="gcommaaccent" unicode="&#x123;" horiz-adv-x="512" 
d="M286 782l-29 -94h30v-59h-60v59l39 94h20zM62 83q0 58 83 87q-84 47 -84 158q0 84 55 133.5t135 49.5q34 0 67 -11h178v-25h-129q74 -53 74 -147q0 -83 -55 -133t-135 -50q-48 0 -84 14q-28 -8 -49 -26.5t-21 -43.5q0 -55 109 -51l95 4q83 3 130 -23t47 -82
q0 -63 -59.5 -102t-158.5 -39q-130 0 -224 59v34q94 -67 223 -67q49 0 88 9.5t68 35.5t29 66q0 49 -41.5 66.5t-119.5 15.5l-90 -3q-131 -4 -131 71zM251 485q-72 0 -114 -42.5t-42 -114.5t42 -114.5t114 -42.5t114 42.5t42 114.5t-42 114.5t-114 42.5z" />
    <glyph glyph-name="Hcircumflex" unicode="&#x124;" horiz-adv-x="798" 
d="M412 950l154 -136h-36l-131 111l-131 -111h-36l156 136h24zM142 750v-340h514v340h36v-750h-36v384h-514v-384h-36v750h36z" />
    <glyph glyph-name="hcircumflex" unicode="&#x125;" horiz-adv-x="569" 
d="M308 950l154 -136h-36l-131 111l-131 -111h-36l156 136h24zM119 750v-369q16 59 68 94.5t119 35.5q85 0 135 -57.5t50 -150.5v-303h-34v288q0 93 -40.5 145t-116.5 52q-78 0 -129.5 -53t-51.5 -129v-303h-34v750h34z" />
    <glyph glyph-name="Hbar" unicode="&#x126;" horiz-adv-x="800" 
d="M27 583v25h80v142h36v-142h514v142h36v-142h80v-25h-80v-583h-36v384h-514v-384h-36v583h-80zM143 410h514v173h-514v-173z" />
    <glyph glyph-name="hbar" unicode="&#x127;" horiz-adv-x="569" 
d="M20 593v24h65v133h34v-133h190v-24h-190v-212q16 59 68 94.5t119 35.5q85 0 135 -57.5t50 -150.5v-303h-34v288q0 93 -40.5 145t-116.5 52q-78 0 -129.5 -53t-51.5 -129v-303h-34v593h-65z" />
    <glyph glyph-name="Itilde" unicode="&#x128;" horiz-adv-x="248" 
d="M257 928h30q-7 -40 -33 -62.5t-62 -22.5q-35 0 -74.5 29t-63.5 29q-25 0 -42.5 -16.5t-20.5 -44.5h-30q7 40 33 62.5t62 22.5q34 0 74 -29t64 -29q25 0 42.5 16.5t20.5 44.5zM142 0h-36v750h36v-750z" />
    <glyph glyph-name="itilde" unicode="&#x129;" 
d="M231 743h29q-7 -40 -31.5 -62.5t-60.5 -22.5q-35 0 -73 29t-62 29t-40.5 -16.5t-19.5 -44.5h-29q7 40 31.5 62.5t60.5 22.5q34 0 72.5 -29t62.5 -29t40.5 16.5t19.5 44.5zM119 0h-34v500h34v-500z" />
    <glyph glyph-name="Imacron" unicode="&#x12a;" horiz-adv-x="248" 
d="M266 872h-284v24h284v-24zM142 0h-36v750h36v-750z" />
    <glyph glyph-name="imacron" unicode="&#x12b;" 
d="M239 687h-274v24h274v-24zM119 0h-34v500h34v-500z" />
    <glyph glyph-name="Ibreve" unicode="&#x12c;" horiz-adv-x="248" 
d="M-23 946h27q3 -50 35 -77.5t85 -27.5t86 27.5t36 77.5h25q-4 -62 -44 -96t-103 -34t-103 34t-44 96zM142 0h-36v750h36v-750z" />
    <glyph glyph-name="ibreve" unicode="&#x12d;" 
d="M-35 750h27q3 -51 33 -81t77 -30q48 0 78.5 30t33.5 81h25q-4 -63 -41.5 -99.5t-95.5 -36.5t-95.5 36.5t-41.5 99.5zM119 0h-34v500h34v-500z" />
    <glyph glyph-name="Iogonek" unicode="&#x12e;" horiz-adv-x="248" 
d="M186 -158q-30 -30 -76 -30q-41 0 -65 21.5t-24 57.5q0 67 85 109v750h36v-750q-92 -39 -92 -104q0 -25 17.5 -39.5t46.5 -14.5q43 0 72 31v-31z" />
    <glyph glyph-name="iogonek" unicode="&#x12f;" 
d="M102 687q-13 0 -21.5 8.5t-8.5 21.5t8.5 21.5t21.5 8.5t21.5 -8.5t8.5 -21.5t-8.5 -21.5t-21.5 -8.5zM-3 -109q0 66 88 109v500h34v-500q-44 -19 -68.5 -46t-24.5 -58q0 -27 18.5 -40.5t45.5 -13.5q43 0 72 31v-31q-30 -30 -76 -30q-35 0 -62 18.5t-27 60.5z" />
    <glyph glyph-name="Idotaccent" unicode="&#x130;" horiz-adv-x="248" 
d="M124 852q-13 0 -21.5 8.5t-8.5 21.5t8.5 21.5t21.5 8.5t21.5 -8.5t8.5 -21.5t-8.5 -21.5t-21.5 -8.5zM142 0h-36v750h36v-750z" />
    <glyph glyph-name="dotlessi" unicode="&#x131;" 
d="M119 0h-34v500h34v-500z" />
    <glyph glyph-name="Jcircumflex" unicode="&#x134;" horiz-adv-x="434" 
d="M330 950l154 -136h-36l-131 111l-131 -111h-36l156 136h24zM176 -13q-68 0 -109 40.5t-46 108.5h33q8 -58 39.5 -89.5t83.5 -31.5q58 0 90 40.5t32 121.5v573h36v-566q0 -95 -42 -146t-117 -51z" />
    <glyph glyph-name="jcircumflex" unicode="&#x135;" 
d="M115 750l138 -136h-35l-115 111l-116 -111h-36l140 136h24zM85 -40v540h34v-524q0 -80 -20 -115.5t-88 -73.5l-13 23q54 31 70.5 60t16.5 90z" />
    <glyph glyph-name="Kcommaaccent" unicode="&#x136;" horiz-adv-x="591" 
d="M142 0h-36v750h36v-368l398 368h43l-402 -374l412 -376h-48l-403 367v-367zM297 -223l29 94h-30v59h60v-59l-39 -94h-20z" />
    <glyph glyph-name="kcommaaccent" unicode="&#x137;" horiz-adv-x="459" 
d="M119 269v-269h-34v750h34v-476l276 226h41l-276 -227l302 -273h-45zM230 -223l29 94h-30v59h60v-59l-39 -94h-20z" />
    <glyph glyph-name="Lacute" unicode="&#x139;" horiz-adv-x="503" 
d="M139 814h-29l119 136h42zM106 0v750h36v-724h349v-26h-385z" />
    <glyph glyph-name="lacute" unicode="&#x13a;" 
d="M117 814h-29l119 136h42zM119 0h-34v750h34v-750z" />
    <glyph glyph-name="Lcommaaccent" unicode="&#x13b;" horiz-adv-x="503" 
d="M106 0v750h36v-724h349v-26h-385zM269 -223l29 94h-30v59h60v-59l-39 -94h-20z" />
    <glyph glyph-name="lcommaaccent" unicode="&#x13c;" 
d="M119 0h-34v750h34v-750zM73 -223l29 94h-30v59h60v-59l-39 -94h-20z" />
    <glyph glyph-name="Lcaron" unicode="&#x13d;" horiz-adv-x="503" 
d="M106 0v750h36v-724h349v-26h-385zM258 580h-22l37 170h33z" />
    <glyph glyph-name="lcaron" unicode="&#x13e;" 
d="M119 0h-34v750h34v-750zM185 580h-22l37 170h33z" />
    <glyph glyph-name="Ldot" unicode="&#x13f;" horiz-adv-x="506" 
d="M106 0v750h36v-724h349v-26h-385zM377 367q-13 0 -21.5 8.5t-8.5 21.5t8.5 21.5t21.5 8.5t21.5 -8.5t8.5 -21.5t-8.5 -21.5t-21.5 -8.5z" />
    <glyph glyph-name="ldot" unicode="&#x140;" horiz-adv-x="184" 
d="M119 0h-34v750h34v-750zM199 362q-13 0 -21.5 8.5t-8.5 21.5t8.5 21.5t21.5 8.5t21.5 -8.5t8.5 -21.5t-8.5 -21.5t-21.5 -8.5z" />
    <glyph glyph-name="Lslash" unicode="&#x141;" horiz-adv-x="513" 
d="M115 0v280l-75 -58v32l75 58v438h36v-410l216 168v-32l-216 -168v-282h349v-26h-385z" />
    <glyph glyph-name="lslash" unicode="&#x142;" horiz-adv-x="248" 
d="M139 0h-34v358l-68 -67v35l68 67v357h34v-324l70 69v-35l-70 -69v-391z" />
    <glyph glyph-name="Nacute" unicode="&#x143;" horiz-adv-x="808" 
d="M429 814h-29l119 136h42zM702 750v-779l-561 707v-678h-35v750h19l542 -682v682h35z" />
    <glyph glyph-name="nacute" unicode="&#x144;" horiz-adv-x="569" 
d="M305 614h-29l109 136h42zM117 500v-122q18 61 69.5 97t119.5 36q85 0 135 -57.5t50 -150.5v-303h-34v288q0 93 -40.5 145t-116.5 52q-78 0 -129.5 -53t-51.5 -129v-303h-34v500h32z" />
    <glyph glyph-name="Ncommaaccent" unicode="&#x145;" horiz-adv-x="808" 
d="M702 750v-779l-561 707v-678h-35v750h19l542 -682v682h35zM367 -223l29 94h-30v59h60v-59l-39 -94h-20z" />
    <glyph glyph-name="ncommaaccent" unicode="&#x146;" horiz-adv-x="569" 
d="M117 500v-122q18 61 69.5 97t119.5 36q85 0 135 -57.5t50 -150.5v-303h-34v288q0 93 -40.5 145t-116.5 52q-78 0 -129.5 -53t-51.5 -129v-303h-34v500h32zM259 -223l29 94h-30v59h60v-59l-39 -94h-20z" />
    <glyph glyph-name="Ncaron" unicode="&#x147;" horiz-adv-x="808" 
d="M401 814l-154 136h36l131 -111l131 111h36l-156 -136h-24zM702 750v-779l-561 707v-678h-35v750h19l542 -682v682h35z" />
    <glyph glyph-name="ncaron" unicode="&#x148;" horiz-adv-x="569" 
d="M278 614l-138 136h35l116 -111l115 111h36l-140 -136h-24zM117 500v-122q18 61 69.5 97t119.5 36q85 0 135 -57.5t50 -150.5v-303h-34v288q0 93 -40.5 145t-116.5 52q-78 0 -129.5 -53t-51.5 -129v-303h-34v500h32z" />
    <glyph glyph-name="Eng" unicode="&#x14a;" horiz-adv-x="808" 
d="M702 -23q0 -78 -21.5 -115.5t-87.5 -74.5l-15 27q54 33 71.5 61.5t17.5 85.5v54l-526 663v-678h-35v750h19l542 -682v682h35v-773z" />
    <glyph glyph-name="eng" unicode="&#x14b;" horiz-adv-x="569" 
d="M491 -24q0 -80 -20 -115.5t-88 -73.5l-13 23q54 31 70.5 60t16.5 90v328q0 93 -40.5 145t-116.5 52q-78 0 -129.5 -53t-51.5 -129v-303h-34v500h32v-122q18 61 69.5 97t119.5 36q85 0 135 -57.5t50 -150.5v-327z" />
    <glyph glyph-name="Omacron" unicode="&#x14c;" horiz-adv-x="868" 
d="M576 872h-284v24h284v-24zM52 377q0 171 106.5 280.5t275.5 109.5t275.5 -109.5t106.5 -280.5t-106.5 -280.5t-275.5 -109.5t-275.5 109.5t-106.5 280.5zM434 740q-154 0 -250.5 -102.5t-96.5 -260.5t96.5 -260.5t250.5 -102.5t250.5 102.5t96.5 260.5t-96.5 260.5
t-250.5 102.5z" />
    <glyph glyph-name="omacron" unicode="&#x14d;" horiz-adv-x="568" 
d="M421 687h-274v24h274v-24zM48 249q0 118 65 190t171 72t171 -72t65 -190t-65 -190t-171 -72t-171 72t-65 190zM284 485q-93 0 -147 -63.5t-54 -172.5t54.5 -172.5t146.5 -63.5q93 0 147 63.5t54 172.5t-54 172.5t-147 63.5z" />
    <glyph glyph-name="Obreve" unicode="&#x14e;" horiz-adv-x="868" 
d="M287 946h27q3 -50 35 -77.5t85 -27.5t86 27.5t36 77.5h25q-4 -62 -44 -96t-103 -34t-103 34t-44 96zM52 377q0 171 106.5 280.5t275.5 109.5t275.5 -109.5t106.5 -280.5t-106.5 -280.5t-275.5 -109.5t-275.5 109.5t-106.5 280.5zM434 740q-154 0 -250.5 -102.5
t-96.5 -260.5t96.5 -260.5t250.5 -102.5t250.5 102.5t96.5 260.5t-96.5 260.5t-250.5 102.5z" />
    <glyph glyph-name="obreve" unicode="&#x14f;" horiz-adv-x="568" 
d="M147 750h27q3 -51 33 -81t77 -30q48 0 78.5 30t33.5 81h25q-4 -63 -41.5 -99.5t-95.5 -36.5t-95.5 36.5t-41.5 99.5zM48 249q0 118 65 190t171 72t171 -72t65 -190t-65 -190t-171 -72t-171 72t-65 190zM284 485q-93 0 -147 -63.5t-54 -172.5t54.5 -172.5t146.5 -63.5
q93 0 147 63.5t54 172.5t-54 172.5t-147 63.5z" />
    <glyph glyph-name="Ohungarumlaut" unicode="&#x150;" horiz-adv-x="868" 
d="M384 814h-28l103 136h40zM521 814h-28l103 136h40zM52 377q0 171 106.5 280.5t275.5 109.5t275.5 -109.5t106.5 -280.5t-106.5 -280.5t-275.5 -109.5t-275.5 109.5t-106.5 280.5zM434 740q-154 0 -250.5 -102.5t-96.5 -260.5t96.5 -260.5t250.5 -102.5t250.5 102.5
t96.5 260.5t-96.5 260.5t-250.5 102.5z" />
    <glyph glyph-name="ohungarumlaut" unicode="&#x151;" horiz-adv-x="568" 
d="M240 614h-28l93 136h40zM367 614h-28l93 136h40zM48 249q0 118 65 190t171 72t171 -72t65 -190t-65 -190t-171 -72t-171 72t-65 190zM284 485q-93 0 -147 -63.5t-54 -172.5t54.5 -172.5t146.5 -63.5q93 0 147 63.5t54 172.5t-54 172.5t-147 63.5z" />
    <glyph glyph-name="OE" unicode="&#x152;" horiz-adv-x="1220" 
d="M782 0v219q-39 -110 -129.5 -171t-217.5 -61q-171 0 -276.5 108.5t-105.5 281.5t105.5 281.5t276.5 108.5q126 0 217 -61.5t130 -170.5v215h384v-26h-349v-314h339v-26h-339v-358h349v-26h-384zM435 740q-157 0 -252 -102t-95 -261t95 -261t252 -102t252 102t95 261
t-95 261t-252 102z" />
    <glyph glyph-name="oe" unicode="&#x153;" horiz-adv-x="968" 
d="M722 -13q-80 0 -138.5 41.5t-82.5 117.5q-24 -75 -80.5 -117t-136.5 -42q-106 0 -171 72t-65 190t65 190t171 72q80 0 136.5 -42t80.5 -117q25 78 83 118.5t132 40.5q97 0 153.5 -64t56.5 -182h-408v-17q0 -116 58 -175t147 -59q109 0 180 77v-35q-69 -69 -181 -69z
M284 485q-92 0 -146 -63.5t-54 -172.5t54 -172.5t146 -63.5t146 63.5t54 172.5t-54 172.5t-146 63.5zM715 485q-82 0 -133.5 -52.5t-61.5 -142.5h371q-5 93 -50.5 144t-125.5 51z" />
    <glyph glyph-name="Racute" unicode="&#x154;" horiz-adv-x="615" 
d="M291 814h-29l119 136h42zM487 554q0 -86 -53.5 -134t-136.5 -57l341 -363h-44l-338 358h-114v-358h-36v750h147q109 0 171.5 -52.5t62.5 -143.5zM240 724h-98v-340h97q213 0 213 170t-212 170z" />
    <glyph glyph-name="racute" unicode="&#x155;" horiz-adv-x="326" 
d="M209 614h-29l109 136h42zM117 500v-111q15 59 61.5 90t99.5 31q16 0 37 -4v-27q-23 5 -43 5q-64 0 -108.5 -49.5t-44.5 -134.5v-300h-34v500h32z" />
    <glyph glyph-name="Rcommaaccent" unicode="&#x156;" horiz-adv-x="615" 
d="M487 554q0 -86 -53.5 -134t-136.5 -57l341 -363h-44l-338 358h-114v-358h-36v750h147q109 0 171.5 -52.5t62.5 -143.5zM240 724h-98v-340h97q213 0 213 170t-212 170zM307 -223l29 94h-30v59h60v-59l-39 -94h-20z" />
    <glyph glyph-name="rcommaaccent" unicode="&#x157;" horiz-adv-x="326" 
d="M117 500v-111q15 59 61.5 90t99.5 31q16 0 37 -4v-27q-23 5 -43 5q-64 0 -108.5 -49.5t-44.5 -134.5v-300h-34v500h32zM73 -223l29 94h-30v59h60v-59l-39 -94h-20z" />
    <glyph glyph-name="Rcaron" unicode="&#x158;" horiz-adv-x="615" 
d="M263 814l-154 136h36l131 -111l131 111h36l-156 -136h-24zM487 554q0 -86 -53.5 -134t-136.5 -57l341 -363h-44l-338 358h-114v-358h-36v750h147q109 0 171.5 -52.5t62.5 -143.5zM240 724h-98v-340h97q213 0 213 170t-212 170z" />
    <glyph glyph-name="rcaron" unicode="&#x159;" horiz-adv-x="326" 
d="M182 614l-138 136h35l116 -111l115 111h36l-140 -136h-24zM117 500v-111q15 59 61.5 90t99.5 31q16 0 37 -4v-27q-23 5 -43 5q-64 0 -108.5 -49.5t-44.5 -134.5v-300h-34v500h32z" />
    <glyph glyph-name="Sacute" unicode="&#x15a;" horiz-adv-x="560" 
d="M298 814h-29l119 136h42zM250 429l70 -33q101 -48 146 -91t45 -116q0 -90 -62 -146t-168 -56q-105 0 -169.5 59.5t-71.5 152.5h34q9 -89 67.5 -137t140.5 -48q84 0 139 45t55 130q0 21 -6 40t-12 32t-23 28l-24.5 21.5t-31.5 19.5t-28.5 15t-30.5 15l-59 28
q-45 21 -71 36t-56.5 39.5t-45 55.5t-14.5 70q0 83 59 130.5t149 47.5q93 0 147 -51t61 -135h-33q-18 159 -177 159q-77 0 -124 -40.5t-47 -105.5q0 -60 36.5 -96.5t104.5 -68.5z" />
    <glyph glyph-name="sacute" unicode="&#x15b;" horiz-adv-x="426" 
d="M232 614h-29l109 136h42zM367 388h-33q-6 43 -36 70t-81 27q-48 0 -82.5 -25t-34.5 -73q0 -72 94 -105l56 -20q65 -23 97.5 -53.5t32.5 -82.5q0 -62 -44.5 -100.5t-119.5 -38.5q-80 0 -127.5 41.5t-51.5 101.5h33q4 -54 46 -85.5t101 -31.5q64 0 96.5 31.5t32.5 80.5
q0 45 -27.5 68t-82.5 43l-45 16q-125 45 -125 130q0 60 45.5 94.5t107.5 34.5q66 0 103.5 -35.5t44.5 -87.5z" />
    <glyph glyph-name="Scircumflex" unicode="&#x15c;" horiz-adv-x="560" 
d="M296 950l154 -136h-36l-131 111l-131 -111h-36l156 136h24zM250 429l70 -33q101 -48 146 -91t45 -116q0 -90 -62 -146t-168 -56q-105 0 -169.5 59.5t-71.5 152.5h34q9 -89 67.5 -137t140.5 -48q84 0 139 45t55 130q0 21 -6 40t-12 32t-23 28l-24.5 21.5t-31.5 19.5
t-28.5 15t-30.5 15l-59 28q-45 21 -71 36t-56.5 39.5t-45 55.5t-14.5 70q0 83 59 130.5t149 47.5q93 0 147 -51t61 -135h-33q-18 159 -177 159q-77 0 -124 -40.5t-47 -105.5q0 -60 36.5 -96.5t104.5 -68.5z" />
    <glyph glyph-name="scircumflex" unicode="&#x15d;" horiz-adv-x="426" 
d="M231 750l138 -136h-35l-115 111l-116 -111h-36l140 136h24zM367 388h-33q-6 43 -36 70t-81 27q-48 0 -82.5 -25t-34.5 -73q0 -72 94 -105l56 -20q65 -23 97.5 -53.5t32.5 -82.5q0 -62 -44.5 -100.5t-119.5 -38.5q-80 0 -127.5 41.5t-51.5 101.5h33q4 -54 46 -85.5
t101 -31.5q64 0 96.5 31.5t32.5 80.5q0 45 -27.5 68t-82.5 43l-45 16q-125 45 -125 130q0 60 45.5 94.5t107.5 34.5q66 0 103.5 -35.5t44.5 -87.5z" />
    <glyph glyph-name="Scedilla" unicode="&#x15e;" horiz-adv-x="560" 
d="M186 -180l8 17q38 -18 73 -18q31 0 49.5 13.5t18.5 37.5q0 22 -14.5 34.5t-37.5 12.5q-29 0 -52 -15l-11 8l47 77q-99 4 -159.5 63t-67.5 149h34q9 -89 67.5 -137t140.5 -48q84 0 139 45t55 130q0 21 -6 40t-12 32t-23 28l-24.5 21.5t-31.5 19.5t-28.5 15t-30.5 15
l-59 28q-45 21 -71 36t-56.5 39.5t-45 55.5t-14.5 70q0 83 59 130.5t149 47.5q93 0 147 -51t61 -135h-33q-18 159 -177 159q-77 0 -124 -40.5t-47 -105.5q0 -60 36.5 -96.5t104.5 -68.5l70 -33q101 -48 146 -91t45 -116q0 -87 -58.5 -142.5t-158.5 -59.5l-34 -55q13 7 33 7
q33 0 52.5 -18.5t19.5 -48.5q0 -34 -25.5 -54.5t-67.5 -20.5t-86 23z" />
    <glyph glyph-name="scedilla" unicode="&#x15f;" horiz-adv-x="426" 
d="M121 -180l8 17q37 -18 73 -18q31 0 49.5 13.5t18.5 37.5q0 22 -14.5 34.5t-37.5 12.5q-29 0 -52 -15l-11 8l47 77q-74 4 -117.5 45t-47.5 98h33q4 -54 46 -85.5t101 -31.5q64 0 96.5 31.5t32.5 80.5q0 45 -27.5 68t-82.5 43l-45 16q-125 45 -125 130q0 60 45.5 94.5
t107.5 34.5q66 0 103.5 -35.5t44.5 -87.5h-33q-6 43 -36 70t-81 27q-48 0 -82.5 -25t-34.5 -73q0 -72 94 -105l56 -20q65 -23 97.5 -53.5t32.5 -82.5q0 -59 -40.5 -97t-110.5 -42l-34 -55q13 7 33 7q33 0 52.5 -18.5t19.5 -48.5q0 -34 -25.5 -54.5t-67.5 -20.5t-86 23z" />
    <glyph glyph-name="Scaron" unicode="&#x160;" horiz-adv-x="560" 
d="M270 814l-154 136h36l131 -111l131 111h36l-156 -136h-24zM250 429l70 -33q101 -48 146 -91t45 -116q0 -90 -62 -146t-168 -56q-105 0 -169.5 59.5t-71.5 152.5h34q9 -89 67.5 -137t140.5 -48q84 0 139 45t55 130q0 21 -6 40t-12 32t-23 28l-24.5 21.5t-31.5 19.5
t-28.5 15t-30.5 15l-59 28q-45 21 -71 36t-56.5 39.5t-45 55.5t-14.5 70q0 83 59 130.5t149 47.5q93 0 147 -51t61 -135h-33q-18 159 -177 159q-77 0 -124 -40.5t-47 -105.5q0 -60 36.5 -96.5t104.5 -68.5z" />
    <glyph glyph-name="scaron" unicode="&#x161;" horiz-adv-x="426" 
d="M205 614l-138 136h35l116 -111l115 111h36l-140 -136h-24zM367 388h-33q-6 43 -36 70t-81 27q-48 0 -82.5 -25t-34.5 -73q0 -72 94 -105l56 -20q65 -23 97.5 -53.5t32.5 -82.5q0 -62 -44.5 -100.5t-119.5 -38.5q-80 0 -127.5 41.5t-51.5 101.5h33q4 -54 46 -85.5
t101 -31.5q64 0 96.5 31.5t32.5 80.5q0 45 -27.5 68t-82.5 43l-45 16q-125 45 -125 130q0 60 45.5 94.5t107.5 34.5q66 0 103.5 -35.5t44.5 -87.5z" />
    <glyph glyph-name="uni0162" unicode="&#x162;" horiz-adv-x="604" 
d="M284 0v724h-272v26h580v-26h-272v-724h-36zM273 -223l29 94h-30v59h60v-59l-39 -94h-20z" />
    <glyph glyph-name="uni0163" unicode="&#x163;" horiz-adv-x="335" 
d="M323 46v-29q-47 -30 -103 -30q-62 0 -96 33.5t-34 100.5v354h-54v5l88 90v-70h202v-25h-202v-354q0 -108 103 -108q47 0 96 33zM174 -223l29 94h-30v59h60v-59l-39 -94h-20z" />
    <glyph glyph-name="Tcaron" unicode="&#x164;" horiz-adv-x="604" 
d="M289 814l-154 136h36l131 -111l131 111h36l-156 -136h-24zM284 0v724h-272v26h580v-26h-272v-724h-36z" />
    <glyph glyph-name="tcaron" unicode="&#x165;" horiz-adv-x="335" 
d="M231 580h-22l37 170h33zM323 46v-29q-47 -30 -103 -30q-62 0 -96 33.5t-34 100.5v354h-54v5l88 90v-70h202v-25h-202v-354q0 -108 103 -108q47 0 96 33z" />
    <glyph glyph-name="Tbar" unicode="&#x166;" horiz-adv-x="628" 
d="M296 0v383h-190v25h190v316h-272v26h580v-26h-272v-316h190v-25h-190v-383h-36z" />
    <glyph glyph-name="tbar" unicode="&#x167;" horiz-adv-x="343" 
d="M37 246v24h54v205h-54v5l88 90v-70h202v-25h-202v-205h202v-24h-202v-125q0 -108 103 -108q46 0 96 33v-29q-46 -30 -103 -30q-63 0 -96.5 33.5t-33.5 100.5v125h-54z" />
    <glyph glyph-name="Utilde" unicode="&#x168;" horiz-adv-x="772" 
d="M519 928h30q-7 -40 -33 -62.5t-62 -22.5q-35 0 -74.5 29t-63.5 29q-25 0 -42.5 -16.5t-20.5 -44.5h-30q7 40 33 62.5t62 22.5q34 0 74 -29t64 -29q25 0 42.5 16.5t20.5 44.5zM386 14q120 0 187.5 75.5t67.5 207.5v453h35v-451q0 -146 -77 -229t-213 -83t-213 83t-77 229
v451h36v-453q0 -132 67.5 -207.5t186.5 -75.5z" />
    <glyph glyph-name="utilde" unicode="&#x169;" horiz-adv-x="551" 
d="M405 743h29q-7 -40 -31.5 -62.5t-60.5 -22.5q-35 0 -73 29t-62 29t-40.5 -16.5t-19.5 -44.5h-29q7 40 31.5 62.5t60.5 22.5q34 0 72.5 -29t62.5 -29t40.5 16.5t19.5 44.5zM434 0v118q-19 -60 -63.5 -95.5t-110.5 -35.5q-83 0 -132.5 55.5t-49.5 152.5v305h34v-290
q0 -93 40.5 -145t112.5 -52q74 0 120.5 52.5t46.5 129.5v305h34v-500h-32z" />
    <glyph glyph-name="Umacron" unicode="&#x16a;" horiz-adv-x="772" 
d="M528 872h-284v24h284v-24zM386 14q120 0 187.5 75.5t67.5 207.5v453h35v-451q0 -146 -77 -229t-213 -83t-213 83t-77 229v451h36v-453q0 -132 67.5 -207.5t186.5 -75.5z" />
    <glyph glyph-name="umacron" unicode="&#x16b;" horiz-adv-x="551" 
d="M413 687h-274v24h274v-24zM434 0v118q-19 -60 -63.5 -95.5t-110.5 -35.5q-83 0 -132.5 55.5t-49.5 152.5v305h34v-290q0 -93 40.5 -145t112.5 -52q74 0 120.5 52.5t46.5 129.5v305h34v-500h-32z" />
    <glyph glyph-name="Ubreve" unicode="&#x16c;" horiz-adv-x="772" 
d="M239 946h27q3 -50 35 -77.5t85 -27.5t86 27.5t36 77.5h25q-4 -62 -44 -96t-103 -34t-103 34t-44 96zM386 14q120 0 187.5 75.5t67.5 207.5v453h35v-451q0 -146 -77 -229t-213 -83t-213 83t-77 229v451h36v-453q0 -132 67.5 -207.5t186.5 -75.5z" />
    <glyph glyph-name="ubreve" unicode="&#x16d;" horiz-adv-x="551" 
d="M139 750h27q3 -51 33 -81t77 -30q48 0 78.5 30t33.5 81h25q-4 -63 -41.5 -99.5t-95.5 -36.5t-95.5 36.5t-41.5 99.5zM434 0v118q-19 -60 -63.5 -95.5t-110.5 -35.5q-83 0 -132.5 55.5t-49.5 152.5v305h34v-290q0 -93 40.5 -145t112.5 -52q74 0 120.5 52.5t46.5 129.5v305
h34v-500h-32z" />
    <glyph glyph-name="Uring" unicode="&#x16e;" horiz-adv-x="772" 
d="M485 905q0 -41 -29 -68t-70 -27t-70 27t-29 68t29 68.5t70 27.5t70 -27.5t29 -68.5zM314 905q0 -31 21.5 -52t50.5 -21q30 0 51 21t21 52q0 32 -21 53t-51 21q-29 0 -50.5 -21t-21.5 -53zM386 14q120 0 187.5 75.5t67.5 207.5v453h35v-451q0 -146 -77 -229t-213 -83
t-213 83t-77 229v451h36v-453q0 -132 67.5 -207.5t186.5 -75.5z" />
    <glyph glyph-name="uring" unicode="&#x16f;" horiz-adv-x="551" 
d="M373 699q0 -41 -28 -67t-69 -26t-69 26t-28 67t28.5 67.5t68.5 26.5t68.5 -26.5t28.5 -67.5zM207 699q0 -29 21 -49.5t48 -20.5q28 0 48.5 20t20.5 50q0 31 -20.5 51t-48.5 20q-27 0 -48 -20.5t-21 -50.5zM434 0v118q-19 -60 -63.5 -95.5t-110.5 -35.5q-83 0 -132.5 55.5
t-49.5 152.5v305h34v-290q0 -93 40.5 -145t112.5 -52q74 0 120.5 52.5t46.5 129.5v305h34v-500h-32z" />
    <glyph glyph-name="Uhungarumlaut" unicode="&#x170;" horiz-adv-x="772" 
d="M336 814h-28l103 136h40zM473 814h-28l103 136h40zM386 14q120 0 187.5 75.5t67.5 207.5v453h35v-451q0 -146 -77 -229t-213 -83t-213 83t-77 229v451h36v-453q0 -132 67.5 -207.5t186.5 -75.5z" />
    <glyph glyph-name="uhungarumlaut" unicode="&#x171;" horiz-adv-x="551" 
d="M232 614h-28l93 136h40zM359 614h-28l93 136h40zM434 0v118q-19 -60 -63.5 -95.5t-110.5 -35.5q-83 0 -132.5 55.5t-49.5 152.5v305h34v-290q0 -93 40.5 -145t112.5 -52q74 0 120.5 52.5t46.5 129.5v305h34v-500h-32z" />
    <glyph glyph-name="Uogonek" unicode="&#x172;" horiz-adv-x="772" 
d="M641 297v453h35v-451q0 -132 -62.5 -212.5t-176.5 -96.5q-43 -6 -68.5 -33.5t-25.5 -59.5q0 -25 17.5 -40t46.5 -15q43 0 72 31v-31q-30 -30 -76 -30q-41 0 -65 21.5t-24 58.5q0 56 62 95q-131 3 -205.5 86t-74.5 226v451h36v-453q0 -132 67.5 -207.5t186.5 -75.5
q120 0 187.5 75.5t67.5 207.5z" />
    <glyph glyph-name="uogonek" unicode="&#x173;" horiz-adv-x="551" 
d="M509 -158q-30 -30 -76 -30q-35 0 -62 18.5t-27 60.5q0 65 90 109v118q-19 -60 -63.5 -95.5t-110.5 -35.5q-83 0 -132.5 55.5t-49.5 152.5v305h34v-290q0 -93 40.5 -145t112.5 -52q74 0 120.5 52.5t46.5 129.5v305h34v-500q-44 -19 -68.5 -46t-24.5 -58q0 -27 18.5 -40.5
t45.5 -13.5q43 0 72 31v-31z" />
    <glyph glyph-name="Wcircumflex" unicode="&#x174;" horiz-adv-x="916" 
d="M470 950l154 -136h-36l-131 111l-131 -111h-36l156 136h24zM688 0h-9l-221 665l-221 -665h-9l-206 750h34l180 -657l222 663l225 -662l178 656h33z" />
    <glyph glyph-name="wcircumflex" unicode="&#x175;" horiz-adv-x="686" 
d="M356 750l138 -136h-35l-115 111l-116 -111h-36l140 136h24zM58 500l135 -423l150 427l152 -427l136 423h32l-161 -500h-14l-145 418l-145 -418h-14l-161 500h35z" />
    <glyph glyph-name="Ycircumflex" unicode="&#x176;" horiz-adv-x="614" 
d="M324 950l154 -136h-36l-131 111l-131 -111h-36l156 136h24zM595 750l-270 -423v-327h-36v326l-270 424h39l250 -393l250 393h37z" />
    <glyph glyph-name="ycircumflex" unicode="&#x177;" horiz-adv-x="513" 
d="M273 750l138 -136h-35l-115 111l-116 -111h-36l140 136h24zM123 -204l118 244l-223 460h38l203 -424l205 424h33l-341 -704h-33z" />
    <glyph glyph-name="Ydieresis" unicode="&#x178;" horiz-adv-x="614" 
d="M178 882q0 12 9 21t21 9t21 -9t9 -21t-9 -21t-21 -9t-21 9t-9 21zM384 882q0 12 9 21t21 9t21 -9t9 -21t-9 -21t-21 -9t-21 9t-9 21zM595 750l-270 -423v-327h-36v326l-270 424h39l250 -393l250 393h37z" />
    <glyph glyph-name="Zacute" unicode="&#x179;" horiz-adv-x="636" 
d="M346 814h-29l119 136h42zM624 0h-623l563 724h-518v26h574l-563 -724h567v-26z" />
    <glyph glyph-name="zacute" unicode="&#x17a;" horiz-adv-x="475" 
d="M259 614h-29l109 136h42zM446 0h-431l381 475h-351v25h407l-381 -475h375v-25z" />
    <glyph glyph-name="Zdotaccent" unicode="&#x17b;" horiz-adv-x="636" 
d="M331 852q-13 0 -21.5 8.5t-8.5 21.5t8.5 21.5t21.5 8.5t21.5 -8.5t8.5 -21.5t-8.5 -21.5t-21.5 -8.5zM624 0h-623l563 724h-518v26h574l-563 -724h567v-26z" />
    <glyph glyph-name="zdotaccent" unicode="&#x17c;" horiz-adv-x="475" 
d="M245 687q-13 0 -21.5 8.5t-8.5 21.5t8.5 21.5t21.5 8.5t21.5 -8.5t8.5 -21.5t-8.5 -21.5t-21.5 -8.5zM446 0h-431l381 475h-351v25h407l-381 -475h375v-25z" />
    <glyph glyph-name="Zcaron" unicode="&#x17d;" horiz-adv-x="636" 
d="M318 814l-154 136h36l131 -111l131 111h36l-156 -136h-24zM624 0h-623l563 724h-518v26h574l-563 -724h567v-26z" />
    <glyph glyph-name="zcaron" unicode="&#x17e;" horiz-adv-x="475" 
d="M232 614l-138 136h35l116 -111l115 111h36l-140 -136h-24zM446 0h-431l381 475h-351v25h407l-381 -475h375v-25z" />
    <glyph glyph-name="uni018F" unicode="&#x18f;" horiz-adv-x="778" 
d="M725 377q0 -172 -98 -281t-252 -109q-152 0 -246 104.5t-94 273.5h655v10q0 163 -93 264t-243 101q-147 0 -238 -70v35q94 62 239 62q164 0 267 -108t103 -282zM376 14q132 0 217 90.5t96 234.5h-616q6 -146 89 -235.5t214 -89.5z" />
    <glyph glyph-name="Scommaaccent" unicode="&#x218;" horiz-adv-x="560" 
d="M250 429l70 -33q101 -48 146 -91t45 -116q0 -90 -62 -146t-168 -56q-105 0 -169.5 59.5t-71.5 152.5h34q9 -89 67.5 -137t140.5 -48q84 0 139 45t55 130q0 21 -6 40t-12 32t-23 28l-24.5 21.5t-31.5 19.5t-28.5 15t-30.5 15l-59 28q-45 21 -71 36t-56.5 39.5t-45 55.5
t-14.5 70q0 83 59 130.5t149 47.5q93 0 147 -51t61 -135h-33q-18 159 -177 159q-77 0 -124 -40.5t-47 -105.5q0 -60 36.5 -96.5t104.5 -68.5zM251 -223l29 94h-30v59h60v-59l-39 -94h-20z" />
    <glyph glyph-name="scommaaccent" unicode="&#x219;" horiz-adv-x="426" 
d="M367 388h-33q-6 43 -36 70t-81 27q-48 0 -82.5 -25t-34.5 -73q0 -72 94 -105l56 -20q65 -23 97.5 -53.5t32.5 -82.5q0 -62 -44.5 -100.5t-119.5 -38.5q-80 0 -127.5 41.5t-51.5 101.5h33q4 -54 46 -85.5t101 -31.5q64 0 96.5 31.5t32.5 80.5q0 45 -27.5 68t-82.5 43
l-45 16q-125 45 -125 130q0 60 45.5 94.5t107.5 34.5q66 0 103.5 -35.5t44.5 -87.5zM186 -223l29 94h-30v59h60v-59l-39 -94h-20z" />
    <glyph glyph-name="Tcommaaccent" unicode="&#x21a;" horiz-adv-x="604" 
d="M284 0v724h-272v26h580v-26h-272v-724h-36zM273 -223l29 94h-30v59h60v-59l-39 -94h-20z" />
    <glyph glyph-name="tcommaaccent" unicode="&#x21b;" horiz-adv-x="335" 
d="M323 46v-29q-47 -30 -103 -30q-62 0 -96 33.5t-34 100.5v354h-54v5l88 90v-70h202v-25h-202v-354q0 -108 103 -108q47 0 96 33zM174 -223l29 94h-30v59h60v-59l-39 -94h-20z" />
    <glyph glyph-name="uni0232" unicode="&#x232;" horiz-adv-x="614" 
d="M453 872h-284v24h284v-24zM595 750l-270 -423v-327h-36v326l-270 424h39l250 -393l250 393h37z" />
    <glyph glyph-name="uni0233" unicode="&#x233;" horiz-adv-x="513" 
d="M397 687h-274v24h274v-24zM123 -204l118 244l-223 460h38l203 -424l205 424h33l-341 -704h-33z" />
    <glyph glyph-name="dotlessj" unicode="&#x237;" 
d="M85 -40v540h34v-524q0 -80 -20 -115.5t-88 -73.5l-13 23q54 31 70.5 60t16.5 90z" />
    <glyph glyph-name="uni0259" unicode="&#x259;" horiz-adv-x="535" 
d="M246 511q105 0 172.5 -69.5t67.5 -191.5q0 -127 -67.5 -195t-166.5 -68q-97 0 -153.5 64t-56.5 182h408v17q0 116 -58 175t-147 59q-109 0 -180 -77v35q69 69 181 69zM253 13q82 0 133.5 52.5t61.5 142.5h-371q5 -93 50.5 -144t125.5 -51z" />
    <glyph glyph-name="uni02BB" unicode="&#x2bb;" horiz-adv-x="201" 
d="M155 750l-64 -185h32v-65h-66v66l77 184h21z" />
    <glyph glyph-name="uni02BC" unicode="&#x2bc;" horiz-adv-x="195" 
d="M54 500l64 185h-32v65h66v-66l-77 -184h-21z" />
    <glyph glyph-name="circumflex" unicode="&#x2c6;" horiz-adv-x="394" 
d="M210 750l138 -136h-35l-115 111l-116 -111h-36l140 136h24z" />
    <glyph glyph-name="caron" unicode="&#x2c7;" horiz-adv-x="394" 
d="M184 614l-138 136h35l116 -111l115 111h36l-140 -136h-24z" />
    <glyph glyph-name="breve" unicode="&#x2d8;" horiz-adv-x="360" 
d="M43 750h27q3 -51 33 -81t77 -30q48 0 78.5 30t33.5 81h25q-4 -63 -41.5 -99.5t-95.5 -36.5t-95.5 36.5t-41.5 99.5z" />
    <glyph glyph-name="dotaccent" unicode="&#x2d9;" horiz-adv-x="166" 
d="M83 687q-13 0 -21.5 8.5t-8.5 21.5t8.5 21.5t21.5 8.5t21.5 -8.5t8.5 -21.5t-8.5 -21.5t-21.5 -8.5z" />
    <glyph glyph-name="ring" unicode="&#x2da;" horiz-adv-x="224" 
d="M209 699q0 -41 -28 -67t-69 -26t-69 26t-28 67t28.5 67.5t68.5 26.5t68.5 -26.5t28.5 -67.5zM43 699q0 -29 21 -49.5t48 -20.5q28 0 48.5 20t20.5 50q0 31 -20.5 51t-48.5 20q-27 0 -48 -20.5t-21 -50.5z" />
    <glyph glyph-name="ogonek" unicode="&#x2db;" horiz-adv-x="242" 
d="M123 0h40q-94 -39 -94 -104q0 -27 18.5 -40.5t45.5 -13.5q43 0 72 31v-31q-30 -30 -76 -30q-35 0 -62 18.5t-27 60.5q0 68 83 109z" />
    <glyph glyph-name="tilde" unicode="&#x2dc;" horiz-adv-x="412" 
d="M335 743h29q-7 -40 -31.5 -62.5t-60.5 -22.5q-35 0 -73 29t-62 29t-40.5 -16.5t-19.5 -44.5h-29q7 40 31.5 62.5t60.5 22.5q34 0 72.5 -29t62.5 -29t40.5 16.5t19.5 44.5z" />
    <glyph glyph-name="hungarumlaut" unicode="&#x2dd;" horiz-adv-x="409" 
d="M88 614h-28l93 136h40zM215 614h-28l93 136h40z" />
    <glyph glyph-name="commaaccent" unicode="&#x326;" horiz-adv-x="142" 
d="M42 -223l29 94h-30v59h60v-59l-39 -94h-20z" />
    <glyph glyph-name="Wgrave" unicode="&#x1e80;" horiz-adv-x="916" 
d="M442 814l-131 136h43l116 -136h-28zM688 0h-9l-221 665l-221 -665h-9l-206 750h34l180 -657l222 663l225 -662l178 656h33z" />
    <glyph glyph-name="wgrave" unicode="&#x1e81;" horiz-adv-x="686" 
d="M329 614l-123 136h44l109 -136h-30zM58 500l135 -423l150 427l152 -427l136 423h32l-161 -500h-14l-145 418l-145 -418h-14l-161 500h35z" />
    <glyph glyph-name="Wacute" unicode="&#x1e82;" horiz-adv-x="916" 
d="M472 814h-29l119 136h42zM688 0h-9l-221 665l-221 -665h-9l-206 750h34l180 -657l222 663l225 -662l178 656h33z" />
    <glyph glyph-name="wacute" unicode="&#x1e83;" horiz-adv-x="686" 
d="M357 614h-29l109 136h42zM58 500l135 -423l150 427l152 -427l136 423h32l-161 -500h-14l-145 418l-145 -418h-14l-161 500h35z" />
    <glyph glyph-name="Wdieresis" unicode="&#x1e84;" horiz-adv-x="916" 
d="M324 882q0 12 9 21t21 9t21 -9t9 -21t-9 -21t-21 -9t-21 9t-9 21zM530 882q0 12 9 21t21 9t21 -9t9 -21t-9 -21t-21 -9t-21 9t-9 21zM688 0h-9l-221 665l-221 -665h-9l-206 750h34l180 -657l222 663l225 -662l178 656h33z" />
    <glyph glyph-name="wdieresis" unicode="&#x1e85;" horiz-adv-x="686" 
d="M226 717q0 12 9 21t21 9t21 -9t9 -21t-9 -21t-21 -9t-21 9t-9 21zM400 717q0 12 9 21t21 9t21 -9t9 -21t-9 -21t-21 -9t-21 9t-9 21zM58 500l135 -423l150 427l152 -427l136 423h32l-161 -500h-14l-145 418l-145 -418h-14l-161 500h35z" />
    <glyph glyph-name="uni1E9E" unicode="&#x1e9e;" horiz-adv-x="668" 
d="M638 170q0 -82 -51 -132.5t-137 -50.5q-88 0 -143 55t-53 147h34q1 -89 48 -132t115 -43q66 0 109 39.5t43 115.5q0 18 -2 33t-9 29.5t-11 23.5t-17 23.5t-18 20.5t-23 23.5l-23 22.5l-47 47q-28 28 -40.5 42.5t-25.5 41.5t-13 56q0 55 36 91.5t93 47.5q-56 69 -157 69
q-97 0 -156 -68.5t-59 -216.5v-455h-35v467q0 149 70.5 224.5t180.5 75.5q67 0 121 -29.5t82 -84.5q-64 -2 -103 -33t-39 -83q0 -32 17 -59.5t59 -69.5l46 -46l18.5 -18t20 -20l17.5 -19.5t17.5 -22l13 -22.5t12 -27.5t6.5 -29t3 -33.5z" />
    <glyph glyph-name="uni1ECA" unicode="&#x1eca;" horiz-adv-x="248" 
d="M142 0h-36v750h36v-750zM124 -160q-13 0 -21.5 8.5t-8.5 21.5t8.5 21.5t21.5 8.5t21.5 -8.5t8.5 -21.5t-8.5 -21.5t-21.5 -8.5z" />
    <glyph glyph-name="uni1ECB" unicode="&#x1ecb;" 
d="M102 687q-13 0 -21.5 8.5t-8.5 21.5t8.5 21.5t21.5 8.5t21.5 -8.5t8.5 -21.5t-8.5 -21.5t-21.5 -8.5zM119 0h-34v500h34v-500zM102 -160q-13 0 -21.5 8.5t-8.5 21.5t8.5 21.5t21.5 8.5t21.5 -8.5t8.5 -21.5t-8.5 -21.5t-21.5 -8.5z" />
    <glyph glyph-name="uni1ECC" unicode="&#x1ecc;" horiz-adv-x="868" 
d="M52 377q0 171 106.5 280.5t275.5 109.5t275.5 -109.5t106.5 -280.5t-106.5 -280.5t-275.5 -109.5t-275.5 109.5t-106.5 280.5zM434 740q-154 0 -250.5 -102.5t-96.5 -260.5t96.5 -260.5t250.5 -102.5t250.5 102.5t96.5 260.5t-96.5 260.5t-250.5 102.5zM434 -160
q-13 0 -21.5 8.5t-8.5 21.5t8.5 21.5t21.5 8.5t21.5 -8.5t8.5 -21.5t-8.5 -21.5t-21.5 -8.5z" />
    <glyph glyph-name="uni1ECD" unicode="&#x1ecd;" horiz-adv-x="568" 
d="M48 249q0 118 65 190t171 72t171 -72t65 -190t-65 -190t-171 -72t-171 72t-65 190zM284 485q-93 0 -147 -63.5t-54 -172.5t54.5 -172.5t146.5 -63.5q93 0 147 63.5t54 172.5t-54 172.5t-147 63.5zM284 -160q-13 0 -21.5 8.5t-8.5 21.5t8.5 21.5t21.5 8.5t21.5 -8.5
t8.5 -21.5t-8.5 -21.5t-21.5 -8.5z" />
    <glyph glyph-name="uni1EE4" unicode="&#x1ee4;" horiz-adv-x="772" 
d="M386 14q120 0 187.5 75.5t67.5 207.5v453h35v-451q0 -146 -77 -229t-213 -83t-213 83t-77 229v451h36v-453q0 -132 67.5 -207.5t186.5 -75.5zM386 -160q-13 0 -21.5 8.5t-8.5 21.5t8.5 21.5t21.5 8.5t21.5 -8.5t8.5 -21.5t-8.5 -21.5t-21.5 -8.5z" />
    <glyph glyph-name="uni1EE5" unicode="&#x1ee5;" horiz-adv-x="551" 
d="M434 0v118q-19 -60 -63.5 -95.5t-110.5 -35.5q-83 0 -132.5 55.5t-49.5 152.5v305h34v-290q0 -93 40.5 -145t112.5 -52q74 0 120.5 52.5t46.5 129.5v305h34v-500h-32zM263 -160q-13 0 -21.5 8.5t-8.5 21.5t8.5 21.5t21.5 8.5t21.5 -8.5t8.5 -21.5t-8.5 -21.5t-21.5 -8.5z
" />
    <glyph glyph-name="Ygrave" unicode="&#x1ef2;" horiz-adv-x="614" 
d="M296 814l-131 136h43l116 -136h-28zM595 750l-270 -423v-327h-36v326l-270 424h39l250 -393l250 393h37z" />
    <glyph glyph-name="ygrave" unicode="&#x1ef3;" horiz-adv-x="513" 
d="M246 614l-123 136h44l109 -136h-30zM123 -204l118 244l-223 460h38l203 -424l205 424h33l-341 -704h-33z" />
    <glyph glyph-name="uni2007" unicode="&#x2007;" horiz-adv-x="628" 
 />
    <glyph glyph-name="uni2008" unicode="&#x2008;" 
 />
    <glyph glyph-name="uni2009" unicode="&#x2009;" horiz-adv-x="125" 
 />
    <glyph glyph-name="uni200B" unicode="&#x200b;" horiz-adv-x="0" 
 />
    <glyph glyph-name="endash" unicode="&#x2013;" horiz-adv-x="583" 
d="M70 250v27h443v-27h-443z" />
    <glyph glyph-name="emdash" unicode="&#x2014;" horiz-adv-x="733" 
d="M70 250v27h593v-27h-593z" />
    <glyph glyph-name="quoteleft" unicode="&#x2018;" horiz-adv-x="201" 
d="M155 750l-64 -185h32v-65h-66v66l77 184h21z" />
    <glyph glyph-name="quoteright" unicode="&#x2019;" horiz-adv-x="195" 
d="M54 500l64 185h-32v65h66v-66l-77 -184h-21z" />
    <glyph glyph-name="quotesinglbase" unicode="&#x201a;" horiz-adv-x="177" 
d="M26 -185l64 185h-32v65h66v-66l-77 -184h-21z" />
    <glyph glyph-name="quotedblleft" unicode="&#x201c;" horiz-adv-x="335" 
d="M155 750l-64 -185h32v-65h-66v66l77 184h21zM289 750l-64 -185h32v-65h-66v66l77 184h21z" />
    <glyph glyph-name="quotedblright" unicode="&#x201d;" horiz-adv-x="329" 
d="M54 500l64 185h-32v65h66v-66l-77 -184h-21zM188 500l64 185h-32v65h66v-66l-77 -184h-21z" />
    <glyph glyph-name="quotedblbase" unicode="&#x201e;" horiz-adv-x="311" 
d="M26 -185l64 185h-32v65h66v-66l-77 -184h-21zM160 -185l64 185h-32v65h66v-66l-77 -184h-21z" />
    <glyph glyph-name="dagger" unicode="&#x2020;" horiz-adv-x="356" 
d="M193 382h-30v240h-109v28h109v100h30v-100h109v-28h-109v-240z" />
    <glyph glyph-name="daggerdbl" unicode="&#x2021;" horiz-adv-x="366" 
d="M198 382h-30v100h-109v28h109v112h-109v28h109v100h30v-100h109v-28h-109v-112h109v-28h-109v-100z" />
    <glyph glyph-name="bullet" unicode="&#x2022;" horiz-adv-x="452" 
d="M226 412q63 0 105 -42t42 -105t-42 -105t-105 -42t-105 42t-42 105t42 105t105 42z" />
    <glyph glyph-name="ellipsis" unicode="&#x2026;" horiz-adv-x="594" 
d="M61 29q0 17 10.5 27.5t27.5 10.5t27.5 -10.5t10.5 -27.5t-10.5 -27.5t-27.5 -10.5t-27.5 10.5t-10.5 27.5zM259 29q0 17 10.5 27.5t27.5 10.5t27.5 -10.5t10.5 -27.5t-10.5 -27.5t-27.5 -10.5t-27.5 10.5t-10.5 27.5zM457 29q0 17 10.5 27.5t27.5 10.5t27.5 -10.5
t10.5 -27.5t-10.5 -27.5t-27.5 -10.5t-27.5 10.5t-10.5 27.5z" />
    <glyph glyph-name="perthousand" unicode="&#x2030;" horiz-adv-x="1243" 
d="M363 542q0 -97 -41.5 -158t-120.5 -61q-80 0 -121.5 61t-41.5 158q0 96 41.5 157t121.5 61q79 0 120.5 -61t41.5 -157zM708 750l-519 -750h-38l519 750h38zM329 542q0 88 -34 140.5t-94 52.5t-94.5 -52.5t-34.5 -140.5t35 -141t94 -53t93.5 53t34.5 141zM821 212
q0 -97 -41.5 -158t-120.5 -61q-80 0 -121.5 61t-41.5 158q0 96 41.5 157t121.5 61q79 0 120.5 -61t41.5 -157zM1206 212q0 -97 -41.5 -158t-120.5 -61q-80 0 -121.5 61t-41.5 158q0 96 41.5 157t121.5 61q79 0 120.5 -61t41.5 -157zM787 212q0 88 -34 140.5t-94 52.5
t-94.5 -52.5t-34.5 -140.5t35 -141t94 -53t93.5 53t34.5 141zM1172 212q0 88 -34 140.5t-94 52.5t-94.5 -52.5t-34.5 -140.5t35 -141t94 -53t93.5 53t34.5 141z" />
    <glyph glyph-name="guilsinglleft" unicode="&#x2039;" horiz-adv-x="300" 
d="M205 55l-159 198l159 198h41l-159 -198l159 -198h-41z" />
    <glyph glyph-name="guilsinglright" unicode="&#x203a;" horiz-adv-x="300" 
d="M95 55h-41l159 198l-159 198h41l159 -198z" />
    <glyph glyph-name="fraction" unicode="&#x2044;" horiz-adv-x="160" 
d="M357 750l-519 -750h-38l519 750h38z" />
    <glyph glyph-name="uni2060" unicode="&#x2060;" horiz-adv-x="260" 
 />
    <glyph glyph-name="zero.superior" unicode="&#x2070;" horiz-adv-x="414" 
d="M370 751q0 -97 -41.5 -158t-120.5 -61q-80 0 -121.5 61t-41.5 158q0 96 41.5 157t121.5 61q79 0 120.5 -61t41.5 -157zM336 751q0 88 -34 140.5t-94 52.5t-94.5 -52.5t-34.5 -140.5t35 -141t94 -53t93.5 53t34.5 141z" />
    <glyph glyph-name="four.superior" unicode="&#x2074;" horiz-adv-x="405" 
d="M288 784v-111h92v-27h-92v-107h-33v107h-238l271 326v-40l-213 -259h180v111h33z" />
    <glyph glyph-name="five.superior" unicode="&#x2075;" horiz-adv-x="356" 
d="M284 674q0 54 -31 84t-75 30q-35 0 -63 -17.5t-40 -45.5l-24 2l26 232h217v-27h-191l-20 -168q32 49 101 49q58 0 96 -37t38 -102t-40.5 -103.5t-101.5 -38.5t-98.5 36t-39.5 89h32q2 -46 31 -73t75 -27q48 0 78 32.5t30 84.5z" />
    <glyph glyph-name="six.superior" unicode="&#x2076;" horiz-adv-x="360" 
d="M196 807q58 0 95 -39t37 -97t-40.5 -98.5t-103.5 -40.5t-103 41.5t-40 102.5q0 57 35.5 117.5t137.5 165.5h39q-82 -88 -118.5 -134t-48.5 -80q39 62 110 62zM184 557q49 0 79.5 31.5t30.5 82.5q0 50 -30 80.5t-77 30.5q-49 0 -80.5 -29t-31.5 -80q0 -53 30.5 -84.5
t78.5 -31.5z" />
    <glyph glyph-name="seven.superior" unicode="&#x2077;" horiz-adv-x="332" 
d="M25 931v28h291l-217 -420h-33l205 392h-246z" />
    <glyph glyph-name="eight.superior" unicode="&#x2078;" horiz-adv-x="367" 
d="M183 969q54 0 89 -30t35 -78q0 -67 -67 -94q84 -32 84 -112q0 -55 -39.5 -89t-101.5 -34t-101 34t-39 89q0 80 83 112q-66 27 -66 94q0 48 34.5 78t88.5 30zM93 862q0 -36 25 -59.5t65 -23.5q41 0 66 23.5t25 59.5q0 37 -25 59.5t-66 22.5q-40 0 -65 -22.5t-25 -59.5z
M77 656q0 -44 30 -71.5t76 -27.5q47 0 77 27t30 72q0 43 -30.5 71t-76.5 28t-76 -28t-30 -71z" />
    <glyph glyph-name="nine.superior" unicode="&#x2079;" horiz-adv-x="360" 
d="M164 694q-57 0 -94.5 39t-37.5 96q0 59 40.5 99.5t103.5 40.5t103.5 -42t40.5 -102q0 -56 -37.5 -115.5t-143.5 -170.5h-39q91 97 126 140t48 77q-38 -62 -110 -62zM176 943q-49 0 -79.5 -31.5t-30.5 -82.5q0 -50 30 -80.5t77 -30.5q50 0 81.5 29t31.5 80
q0 53 -30.5 84.5t-79.5 31.5z" />
    <glyph glyph-name="zero.inferior" unicode="&#x2080;" horiz-adv-x="414" 
d="M370 1q0 -97 -41.5 -158t-120.5 -61q-80 0 -121.5 61t-41.5 158q0 96 41.5 157t121.5 61q79 0 120.5 -61t41.5 -157zM336 1q0 88 -34 140.5t-94 52.5t-94.5 -52.5t-34.5 -140.5t35 -141t94 -53t93.5 53t34.5 141z" />
    <glyph glyph-name="one.inferior" unicode="&#x2081;" horiz-adv-x="203" 
d="M48 209h85v-420h-32v392h-82z" />
    <glyph glyph-name="two.inferior" unicode="&#x2082;" horiz-adv-x="348" 
d="M73 -183h236v-28h-270v16q0 56 34 94.5t93 74.5q54 32 78 61.5t24 70.5q0 44 -25.5 65.5t-65.5 21.5q-43 0 -70 -26t-29 -72h-31q1 58 39 91t93 33q52 0 87.5 -29t35.5 -82q0 -51 -30.5 -85.5t-86.5 -68.5q-24 -14 -37.5 -24t-33.5 -28t-30 -39t-11 -46z" />
    <glyph glyph-name="three.inferior" unicode="&#x2083;" horiz-adv-x="366" 
d="M145 2v27h33q44 0 69 21t25 59q0 39 -25 61.5t-67 22.5q-43 0 -70 -23t-28 -62h-32q1 49 38 80t92 31q54 0 89.5 -30.5t35.5 -78.5q0 -34 -19 -60.5t-55 -33.5q44 -9 68.5 -38t24.5 -72q0 -54 -40.5 -89t-102.5 -35t-102 34t-42 91h32q3 -47 34.5 -73.5t77.5 -26.5
q47 0 78 26.5t31 73.5q0 46 -32 70.5t-80 24.5h-33z" />
    <glyph glyph-name="four.inferior" unicode="&#x2084;" horiz-adv-x="405" 
d="M289 34v-111h92v-27h-92v-107h-33v107h-238l271 326v-40l-213 -259h180v111h33z" />
    <glyph glyph-name="five.inferior" unicode="&#x2085;" horiz-adv-x="356" 
d="M284 -76q0 54 -31 84t-75 30q-35 0 -63 -17.5t-40 -45.5l-24 2l26 232h217v-27h-191l-20 -168q32 49 101 49q58 0 96 -37t38 -102t-40.5 -103.5t-101.5 -38.5t-98.5 36t-39.5 89h32q2 -46 31 -73t75 -27q48 0 78 32.5t30 84.5z" />
    <glyph glyph-name="six.inferior" unicode="&#x2086;" horiz-adv-x="360" 
d="M196 57q58 0 95 -39t37 -97t-40.5 -98.5t-103.5 -40.5t-103 41.5t-40 102.5q0 57 35.5 117.5t137.5 165.5h39q-82 -88 -118.5 -134t-48.5 -80q39 62 110 62zM184 -193q49 0 79.5 31.5t30.5 82.5q0 50 -30 80.5t-77 30.5q-49 0 -80.5 -29t-31.5 -80q0 -53 30.5 -84.5
t78.5 -31.5z" />
    <glyph glyph-name="seven.inferior" unicode="&#x2087;" horiz-adv-x="332" 
d="M24 181v28h291l-217 -420h-33l205 392h-246z" />
    <glyph glyph-name="eight.inferior" unicode="&#x2088;" horiz-adv-x="367" 
d="M183 219q54 0 89 -30t35 -78q0 -67 -67 -94q84 -32 84 -112q0 -55 -39.5 -89t-101.5 -34t-101 34t-39 89q0 80 83 112q-66 27 -66 94q0 48 34.5 78t88.5 30zM93 112q0 -36 25 -59.5t65 -23.5q41 0 66 23.5t25 59.5q0 37 -25 59.5t-66 22.5q-40 0 -65 -22.5t-25 -59.5z
M77 -94q0 -44 30 -71.5t76 -27.5q47 0 77 27t30 72q0 43 -30.5 71t-76.5 28t-76 -28t-30 -71z" />
    <glyph glyph-name="nine.inferior" unicode="&#x2089;" horiz-adv-x="360" 
d="M164 -56q-57 0 -94.5 39t-37.5 96q0 59 40.5 99.5t103.5 40.5t103.5 -42t40.5 -102q0 -56 -37.5 -115.5t-143.5 -170.5h-39q91 97 126 140t48 77q-38 -62 -110 -62zM176 193q-49 0 -79.5 -31.5t-30.5 -82.5q0 -50 30 -80.5t77 -30.5q50 0 81.5 29t31.5 80
q0 53 -30.5 84.5t-79.5 31.5z" />
    <glyph glyph-name="Euro" unicode="&#x20ac;" horiz-adv-x="799" 
d="M36 288l21 27h129q-4 27 -4 62q0 36 4 63h-150l21 27h133q25 137 120 218.5t234 81.5q119 0 209 -62v-35q-87 70 -208 70q-124 0 -210 -74t-110 -199h377l-21 -27h-360q-4 -27 -4 -63q0 -35 4 -62h286l-21 -27h-261q24 -125 110 -199.5t210 -74.5q121 0 208 70v-35
q-90 -62 -209 -62q-139 0 -234 82t-120 219h-154z" />
    <glyph glyph-name="uni2116" unicode="&#x2116;" horiz-adv-x="1221" 
d="M842 584q0 82 46.5 132.5t120.5 50.5t120.5 -50.5t46.5 -132.5t-46.5 -133t-120.5 -51t-120.5 51t-46.5 133zM702 750v-779l-561 707v-678h-35v750h19l542 -682v682h35zM1009 744q-62 0 -98.5 -43t-36.5 -117t36.5 -117.5t98.5 -43.5t98.5 43.5t36.5 117.5t-36.5 117
t-98.5 43zM854 250v27h310v-27h-310z" />
    <glyph glyph-name="uni2117" unicode="&#x2117;" horiz-adv-x="880" 
d="M441 767q165 0 276.5 -112.5t111.5 -277.5t-111.5 -277.5t-276.5 -112.5t-277.5 112.5t-112.5 277.5t112.5 277.5t277.5 112.5zM441 14q150 0 252.5 104.5t102.5 258.5t-102.5 258.5t-252.5 104.5q-151 0 -254 -104.5t-103 -258.5t103 -258.5t254 -104.5zM450 336h-99
v-195h-36v472h135q83 0 128 -37t45 -102t-45 -101.5t-128 -36.5zM351 587v-225h87q150 0 150 113q0 112 -150 112h-87z" />
    <glyph glyph-name="trademark" unicode="&#x2122;" horiz-adv-x="785" 
d="M159 390v336h-126v24h280v-24h-124v-336h-30zM695 390h-30v301l-136 -213l-138 215v-303h-30v360h26l142 -222l142 222h24v-360z" />
    <glyph glyph-name="uni2150" unicode="&#x2150;" horiz-adv-x="695" 
d="M48 750h85v-420h-32v392h-82zM560 750l-519 -750h-38l519 750h38zM388 392v28h291l-217 -420h-33l205 392h-246z" />
    <glyph glyph-name="uni2151" unicode="&#x2151;" horiz-adv-x="723" 
d="M48 750h85v-420h-32v392h-82zM560 750l-519 -750h-38l519 750h38zM527 155q-57 0 -94.5 39t-37.5 96q0 59 40.5 99.5t103.5 40.5t103.5 -42t40.5 -102q0 -56 -37.5 -115.5t-143.5 -170.5h-39q91 97 126 140t48 77q-38 -62 -110 -62zM539 404q-49 0 -79.5 -31.5
t-30.5 -82.5q0 -50 30 -80.5t77 -30.5q50 0 81.5 29t31.5 80q0 53 -30.5 84.5t-79.5 31.5z" />
    <glyph glyph-name="uni2152" unicode="&#x2152;" horiz-adv-x="980" 
d="M48 750h85v-420h-32v392h-82zM560 750l-519 -750h-38l519 750h38zM936 212q0 -97 -41.5 -158t-120.5 -61q-80 0 -121.5 61t-41.5 158q0 96 41.5 157t121.5 61q79 0 120.5 -61t41.5 -157zM412 420h85v-420h-32v392h-82zM902 212q0 88 -34 140.5t-94 52.5t-94.5 -52.5
t-34.5 -140.5t35 -141t94 -53t93.5 53t34.5 141z" />
    <glyph glyph-name="onethird" unicode="&#x2153;" horiz-adv-x="729" 
d="M48 750h85v-420h-32v392h-82zM560 750l-519 -750h-38l519 750h38zM508 213v27h33q44 0 69 21t25 59q0 39 -25 61.5t-67 22.5q-43 0 -70 -23t-28 -62h-32q1 49 38 80t92 31q54 0 89.5 -30.5t35.5 -78.5q0 -34 -19 -60.5t-55 -33.5q44 -9 68.5 -38t24.5 -72
q0 -54 -40.5 -89t-102.5 -35t-102 34t-42 91h32q3 -47 34.5 -73.5t77.5 -26.5q47 0 78 26.5t31 73.5q0 46 -32 70.5t-80 24.5h-33z" />
    <glyph glyph-name="twothirds" unicode="&#x2154;" horiz-adv-x="874" 
d="M72 358h236v-28h-270v16q0 56 34 94.5t93 74.5q54 32 78 61.5t24 70.5q0 44 -25.5 65.5t-65.5 21.5q-43 0 -70 -26t-29 -72h-31q1 58 39 91t93 33q52 0 87.5 -29t35.5 -82q0 -51 -30.5 -85.5t-86.5 -68.5q-24 -14 -37.5 -24t-33.5 -28t-30 -39t-11 -46zM705 750
l-519 -750h-38l519 750h38zM653 213v27h33q44 0 69 21t25 59q0 39 -25 61.5t-67 22.5q-43 0 -70 -23t-28 -62h-32q1 49 38 80t92 31q54 0 89.5 -30.5t35.5 -78.5q0 -34 -19 -60.5t-55 -33.5q44 -9 68.5 -38t24.5 -72q0 -54 -40.5 -89t-102.5 -35t-102 34t-42 91h32
q3 -47 34.5 -73.5t77.5 -26.5q47 0 78 26.5t31 73.5q0 46 -32 70.5t-80 24.5h-33z" />
    <glyph glyph-name="uni2155" unicode="&#x2155;" horiz-adv-x="719" 
d="M48 750h85v-420h-32v392h-82zM560 750l-519 -750h-38l519 750h38zM647 135q0 54 -31 84t-75 30q-35 0 -63 -17.5t-40 -45.5l-24 2l26 232h217v-27h-191l-20 -168q32 49 101 49q58 0 96 -37t38 -102t-40.5 -103.5t-101.5 -38.5t-98.5 36t-39.5 89h32q2 -46 31 -73t75 -27
q48 0 78 32.5t30 84.5z" />
    <glyph glyph-name="uni2156" unicode="&#x2156;" horiz-adv-x="864" 
d="M72 358h236v-28h-270v16q0 56 34 94.5t93 74.5q54 32 78 61.5t24 70.5q0 44 -25.5 65.5t-65.5 21.5q-43 0 -70 -26t-29 -72h-31q1 58 39 91t93 33q52 0 87.5 -29t35.5 -82q0 -51 -30.5 -85.5t-86.5 -68.5q-24 -14 -37.5 -24t-33.5 -28t-30 -39t-11 -46zM705 750
l-519 -750h-38l519 750h38zM792 135q0 54 -31 84t-75 30q-35 0 -63 -17.5t-40 -45.5l-24 2l26 232h217v-27h-191l-20 -168q32 49 101 49q58 0 96 -37t38 -102t-40.5 -103.5t-101.5 -38.5t-98.5 36t-39.5 89h32q2 -46 31 -73t75 -27q48 0 78 32.5t30 84.5z" />
    <glyph glyph-name="uni2157" unicode="&#x2157;" horiz-adv-x="882" 
d="M145 543v27h33q44 0 69 21t25 59q0 39 -25 61.5t-67 22.5q-43 0 -70 -23t-28 -62h-32q1 49 38 80t92 31q54 0 89.5 -30.5t35.5 -78.5q0 -34 -19 -60.5t-55 -33.5q44 -9 68.5 -38t24.5 -72q0 -54 -40.5 -89t-102.5 -35t-102 34t-42 91h32q3 -47 34.5 -73.5t77.5 -26.5
q47 0 78 26.5t31 73.5q0 46 -32 70.5t-80 24.5h-33zM723 750l-519 -750h-38l519 750h38zM810 135q0 54 -31 84t-75 30q-35 0 -63 -17.5t-40 -45.5l-24 2l26 232h217v-27h-191l-20 -168q32 49 101 49q58 0 96 -37t38 -102t-40.5 -103.5t-101.5 -38.5t-98.5 36t-39.5 89h32
q2 -46 31 -73t75 -27q48 0 78 32.5t30 84.5z" />
    <glyph glyph-name="uni2158" unicode="&#x2158;" horiz-adv-x="921" 
d="M288 575v-111h92v-27h-92v-107h-33v107h-238l271 326v-40l-213 -259h180v111h33zM762 750l-519 -750h-38l519 750h38zM849 135q0 54 -31 84t-75 30q-35 0 -63 -17.5t-40 -45.5l-24 2l26 232h217v-27h-191l-20 -168q32 49 101 49q58 0 96 -37t38 -102t-40.5 -103.5
t-101.5 -38.5t-98.5 36t-39.5 89h32q2 -46 31 -73t75 -27q48 0 78 32.5t30 84.5z" />
    <glyph glyph-name="uni2159" unicode="&#x2159;" horiz-adv-x="678" 
d="M48 750h85v-420h-32v392h-82zM560 750l-519 -750h-38l519 750h38zM514 268q58 0 95 -39t37 -97t-40.5 -98.5t-103.5 -40.5t-103 41.5t-40 102.5q0 57 35.5 117.5t137.5 165.5h39q-82 -88 -118.5 -134t-48.5 -80q39 62 110 62zM502 18q49 0 79.5 31.5t30.5 82.5
q0 50 -30 80.5t-77 30.5q-49 0 -80.5 -29t-31.5 -80q0 -53 30.5 -84.5t78.5 -31.5z" />
    <glyph glyph-name="uni215A" unicode="&#x215a;" horiz-adv-x="831" 
d="M284 465q0 54 -31 84t-75 30q-35 0 -63 -17.5t-40 -45.5l-24 2l26 232h217v-27h-191l-20 -168q32 49 101 49q58 0 96 -37t38 -102t-40.5 -103.5t-101.5 -38.5t-98.5 36t-39.5 89h32q2 -46 31 -73t75 -27q48 0 78 32.5t30 84.5zM713 750l-519 -750h-38l519 750h38z
M667 268q58 0 95 -39t37 -97t-40.5 -98.5t-103.5 -40.5t-103 41.5t-40 102.5q0 57 35.5 117.5t137.5 165.5h39q-82 -88 -118.5 -134t-48.5 -80q39 62 110 62zM655 18q49 0 79.5 31.5t30.5 82.5q0 50 -30 80.5t-77 30.5q-49 0 -80.5 -29t-31.5 -80q0 -53 30.5 -84.5
t78.5 -31.5z" />
    <glyph glyph-name="oneeighth" unicode="&#x215b;" horiz-adv-x="730" 
d="M48 750h85v-420h-32v392h-82zM560 750l-519 -750h-38l519 750h38zM546 430q54 0 89 -30t35 -78q0 -67 -67 -94q84 -32 84 -112q0 -55 -39.5 -89t-101.5 -34t-101 34t-39 89q0 80 83 112q-66 27 -66 94q0 48 34.5 78t88.5 30zM456 323q0 -36 25 -59.5t65 -23.5
q41 0 66 23.5t25 59.5q0 37 -25 59.5t-66 22.5q-40 0 -65 -22.5t-25 -59.5zM440 117q0 -44 30 -71.5t76 -27.5q47 0 77 27t30 72q0 43 -30.5 71t-76.5 28t-76 -28t-30 -71z" />
    <glyph glyph-name="threeeighths" unicode="&#x215c;" horiz-adv-x="893" 
d="M145 543v27h33q44 0 69 21t25 59q0 39 -25 61.5t-67 22.5q-43 0 -70 -23t-28 -62h-32q1 49 38 80t92 31q54 0 89.5 -30.5t35.5 -78.5q0 -34 -19 -60.5t-55 -33.5q44 -9 68.5 -38t24.5 -72q0 -54 -40.5 -89t-102.5 -35t-102 34t-42 91h32q3 -47 34.5 -73.5t77.5 -26.5
q47 0 78 26.5t31 73.5q0 46 -32 70.5t-80 24.5h-33zM723 750l-519 -750h-38l519 750h38zM709 430q54 0 89 -30t35 -78q0 -67 -67 -94q84 -32 84 -112q0 -55 -39.5 -89t-101.5 -34t-101 34t-39 89q0 80 83 112q-66 27 -66 94q0 48 34.5 78t88.5 30zM619 323q0 -36 25 -59.5
t65 -23.5q41 0 66 23.5t25 59.5q0 37 -25 59.5t-66 22.5q-40 0 -65 -22.5t-25 -59.5zM603 117q0 -44 30 -71.5t76 -27.5q47 0 77 27t30 72q0 43 -30.5 71t-76.5 28t-76 -28t-30 -71z" />
    <glyph glyph-name="fiveeighths" unicode="&#x215d;" horiz-adv-x="883" 
d="M284 465q0 54 -31 84t-75 30q-35 0 -63 -17.5t-40 -45.5l-24 2l26 232h217v-27h-191l-20 -168q32 49 101 49q58 0 96 -37t38 -102t-40.5 -103.5t-101.5 -38.5t-98.5 36t-39.5 89h32q2 -46 31 -73t75 -27q48 0 78 32.5t30 84.5zM713 750l-519 -750h-38l519 750h38z
M699 430q54 0 89 -30t35 -78q0 -67 -67 -94q84 -32 84 -112q0 -55 -39.5 -89t-101.5 -34t-101 34t-39 89q0 80 83 112q-66 27 -66 94q0 48 34.5 78t88.5 30zM609 323q0 -36 25 -59.5t65 -23.5q41 0 66 23.5t25 59.5q0 37 -25 59.5t-66 22.5q-40 0 -65 -22.5t-25 -59.5z
M593 117q0 -44 30 -71.5t76 -27.5q47 0 77 27t30 72q0 43 -30.5 71t-76.5 28t-76 -28t-30 -71z" />
    <glyph glyph-name="seveneighths" unicode="&#x215e;" horiz-adv-x="796" 
d="M25 722v28h291l-217 -420h-33l205 392h-246zM626 750l-519 -750h-38l519 750h38zM612 430q54 0 89 -30t35 -78q0 -67 -67 -94q84 -32 84 -112q0 -55 -39.5 -89t-101.5 -34t-101 34t-39 89q0 80 83 112q-66 27 -66 94q0 48 34.5 78t88.5 30zM522 323q0 -36 25 -59.5
t65 -23.5q41 0 66 23.5t25 59.5q0 37 -25 59.5t-66 22.5q-40 0 -65 -22.5t-25 -59.5zM506 117q0 -44 30 -71.5t76 -27.5q47 0 77 27t30 72q0 43 -30.5 71t-76.5 28t-76 -28t-30 -71z" />
    <glyph glyph-name="uni215F" unicode="&#x215f;" horiz-adv-x="363" 
d="M48 750h85v-420h-32v392h-82zM560 750l-519 -750h-38l519 750h38z" />
    <glyph glyph-name="uni2190" unicode="&#x2190;" horiz-adv-x="919" 
d="M73 375l85 63h2v-50h673v-26h-673v-50h-2z" />
    <glyph glyph-name="uni2191" unicode="&#x2191;" horiz-adv-x="262" 
d="M131 760l63 -85v-2h-50v-673h-26v673h-50v2z" />
    <glyph glyph-name="uni2192" unicode="&#x2192;" horiz-adv-x="919" 
d="M846 375l-85 -63h-2v50h-673v26h673v50h2z" />
    <glyph glyph-name="uni2193" unicode="&#x2193;" horiz-adv-x="264" 
d="M132 -10l-63 85v2h50v673h26v-673h50v-2z" />
    <glyph glyph-name="uni2196" unicode="&#x2196;" horiz-adv-x="618" 
d="M38 644l105 -16l1 -1l-35 -36l476 -475l-19 -19l-476 476l-35 -35l-1 1z" />
    <glyph glyph-name="uni2197" unicode="&#x2197;" horiz-adv-x="618" 
d="M580 644l-16 -105l-1 -1l-35 35l-476 -476l-19 19l476 475l-35 36l1 1z" />
    <glyph glyph-name="uni2198" unicode="&#x2198;" horiz-adv-x="616" 
d="M579 97l-105 16l-1 1l35 36l-476 475l19 19l476 -476l35 35l1 -1z" />
    <glyph glyph-name="uni2199" unicode="&#x2199;" horiz-adv-x="616" 
d="M37 97l16 105l1 1l35 -35l476 476l19 -19l-476 -475l35 -36l-1 -1z" />
    <glyph glyph-name="uni21B0" unicode="&#x21b0;" horiz-adv-x="893" 
d="M50 375l85 63h2v-50h673v-388h-30v362h-643v-50h-2z" />
    <glyph glyph-name="uni21B1" unicode="&#x21b1;" horiz-adv-x="893" 
d="M843 375l-85 -63h-2v50h-643v-362h-30v388h673v50h2z" />
    <glyph glyph-name="uni21B2" unicode="&#x21b2;" horiz-adv-x="882" 
d="M47 375l85 63h2v-50h643v362h30v-388h-673v-50h-2z" />
    <glyph glyph-name="uni21B3" unicode="&#x21b3;" horiz-adv-x="882" 
d="M835 375l-85 -63h-2v50h-673v388h30v-362h643v50h2z" />
    <glyph glyph-name="minus" unicode="&#x2212;" horiz-adv-x="689" 
d="M616 312h-543v27h543v-27z" />
    <glyph glyph-name="apple" unicode="&#x2318;" horiz-adv-x="757" 
d="M493 652l254 109l-189 -158l38 -29l-17 -86l51 -271l-38 -60h-69l40 60l-111 296l-35 -29h-22l-65 97l73 -55l-27 74l38 16l-48 130zM392 217l171 -184q-80 -46 -175 -46q-146 0 -249.5 103.5t-103.5 249.5q0 133 86.5 232t215.5 118q-56 -17 -92 -64t-36 -108
q0 -62 39 -111t98 -63l117 -127h-71z" />
    <glyph glyph-name="uniFB00" unicode="&#xfb00;" horiz-adv-x="629" 
d="M409 475h-271v-475h-34v475h-89v25h89v96q0 90 46 130.5t114 40.5q36 0 65 -12v-26q-31 12 -66 12q-125 0 -125 -138v-103h271v96q0 90 46 130.5t114 40.5q36 0 65 -12v-26q-31 12 -66 12q-125 0 -125 -138v-103h180v-25h-180v-475h-34v475z" />
    <glyph glyph-name="fi" unicode="&#xfb01;" horiz-adv-x="528" 
d="M138 603v-103h180v-25h-180v-475h-34v475h-89v25h89v96q0 90 46 130.5t114 40.5q36 0 65 -12v-26q-31 12 -66 12q-125 0 -125 -138zM426 687q-13 0 -21.5 8.5t-8.5 21.5t8.5 21.5t21.5 8.5t21.5 -8.5t8.5 -21.5t-8.5 -21.5t-21.5 -8.5zM443 0h-34v500h34v-500z" />
    <glyph glyph-name="fl" unicode="&#xfb02;" horiz-adv-x="528" 
d="M138 603v-103h180v-25h-180v-475h-34v475h-89v25h89v96q0 90 46 130.5t114 40.5q36 0 65 -12v-26q-31 12 -66 12q-125 0 -125 -138zM443 0h-34v750h34v-750z" />
    <glyph glyph-name="uniFB03" unicode="&#xfb03;" horiz-adv-x="833" 
d="M409 475h-271v-475h-34v475h-89v25h89v96q0 90 46 130.5t114 40.5q36 0 65 -12v-26q-31 12 -66 12q-125 0 -125 -138v-103h271v96q0 90 46 130.5t114 40.5q36 0 65 -12v-26q-31 12 -66 12q-125 0 -125 -138v-103h180v-25h-180v-475h-34v475zM731 687q-13 0 -21.5 8.5
t-8.5 21.5t8.5 21.5t21.5 8.5t21.5 -8.5t8.5 -21.5t-8.5 -21.5t-21.5 -8.5zM748 0h-34v500h34v-500z" />
    <glyph glyph-name="uniFB04" unicode="&#xfb04;" horiz-adv-x="833" 
d="M409 475h-271v-475h-34v475h-89v25h89v96q0 90 46 130.5t114 40.5q36 0 65 -12v-26q-31 12 -66 12q-125 0 -125 -138v-103h271v96q0 90 46 130.5t114 40.5q36 0 65 -12v-26q-31 12 -66 12q-125 0 -125 -138v-103h180v-25h-180v-475h-34v475zM748 0h-34v750h34v-750z" />
    <glyph glyph-name="uniFEFF" unicode="&#xfeff;" horiz-adv-x="0" 
 />
    <glyph glyph-name="L_periodcentered" horiz-adv-x="506" 
d="M106 0v750h36v-724h349v-26h-385zM377 367q-13 0 -21.5 8.5t-8.5 21.5t8.5 21.5t21.5 8.5t21.5 -8.5t8.5 -21.5t-8.5 -21.5t-21.5 -8.5z" />
    <glyph glyph-name="l_periodcentered" horiz-adv-x="184" 
d="M119 0h-34v750h34v-750zM199 362q-13 0 -21.5 8.5t-8.5 21.5t8.5 21.5t21.5 8.5t21.5 -8.5t8.5 -21.5t-8.5 -21.5t-21.5 -8.5z" />
    <glyph glyph-name="dot" horiz-adv-x="240" 
d="M120 687q-13 0 -21.5 8.5t-8.5 21.5t8.5 21.5t21.5 8.5t21.5 -8.5t8.5 -21.5t-8.5 -21.5t-21.5 -8.5z" />
    <glyph glyph-name="dotaccent.l" horiz-adv-x="500" 
d="M250 362q-13 0 -21.5 8.5t-8.5 21.5t8.5 21.5t21.5 8.5t21.5 -8.5t8.5 -21.5t-8.5 -21.5t-21.5 -8.5z" />
    <glyph glyph-name="dotaccent.low" horiz-adv-x="166" 
d="M83 -160q-13 0 -21.5 8.5t-8.5 21.5t8.5 21.5t21.5 8.5t21.5 -8.5t8.5 -21.5t-8.5 -21.5t-21.5 -8.5z" />
    <glyph glyph-name="caron.slovak" horiz-adv-x="172" 
d="M62 580h-22l37 170h33z" />
    <glyph glyph-name="commaaccent.top" horiz-adv-x="500" 
d="M279 782l-29 -94h30v-59h-60v59l39 94h20z" />
    <glyph glyph-name="dieresis.i" horiz-adv-x="194" 
d="M-10 717q0 12 9 21t21 9t21 -9t9 -21t-9 -21t-21 -9t-21 9t-9 21zM144 717q0 12 9 21t21 9t21 -9t9 -21t-9 -21t-21 -9t-21 9t-9 21z" />
    <glyph glyph-name="zero.slashed" horiz-adv-x="698" 
d="M639 378q0 -111 -30.5 -197t-97.5 -139t-162 -53t-162 53t-97.5 139t-30.5 197t30.5 197t97.5 139t162 53t162 -53t97.5 -139t30.5 -197zM94 378q0 -160 63 -257l367 537q-67 82 -175 82q-119 0 -187 -97.5t-68 -264.5zM604 378q0 160 -63 257l-367 -537q67 -82 175 -82
q119 0 187 97.5t68 264.5z" />
    <glyph glyph-name="one.pof" horiz-adv-x="268" 
d="M43 530h131v-530h-36v504h-120z" />
    <glyph glyph-name="two.pof" horiz-adv-x="540" 
d="M504 26v-26h-460v13q0 63 40.5 106t98 66.5l114.5 45t97.5 56.5t40.5 87q0 64 -43 105t-117 41q-77 0 -128 -45t-56 -125h-31q4 92 66.5 144.5t151.5 52.5q88 0 139.5 -50t51.5 -122q0 -42 -21 -73.5t-54.5 -51.5t-74.5 -36.5l-82.5 -33t-76 -35.5t-58 -49t-26.5 -70h428
z" />
    <glyph glyph-name="three.pof" horiz-adv-x="579" 
d="M222 179v26h56q89 0 137.5 38.5t48.5 111.5q0 76 -48.5 120.5t-131.5 44.5q-85 0 -139 -46t-58 -124h-31q2 86 67.5 141.5t162.5 55.5q93 0 153 -53t60 -137q0 -61 -36 -108t-108 -56q84 -11 130.5 -62.5t46.5 -129.5q0 -96 -68 -157t-175 -61q-108 0 -178.5 60
t-74.5 159h33q6 -89 68.5 -140.5t152.5 -51.5q89 0 148 50t59 139q0 91 -62 135.5t-157 44.5h-56z" />
    <glyph glyph-name="four.pof" horiz-adv-x="638" 
d="M454 574v-548h176v-26h-176v-204h-36v204h-415zM58 26h360v458z" />
    <glyph glyph-name="five.pof" horiz-adv-x="568" 
d="M495 33q0 103 -61 161t-147 58q-69 0 -126 -36.5t-80 -94.5l-21 4l51 405h377v-26h-354l-41 -324q28 46 81 72.5t117 26.5q103 0 171 -66t68 -179q0 -112 -69.5 -181.5t-180.5 -69.5q-104 0 -171.5 61t-71.5 158h34q6 -90 63.5 -141t145.5 -51q97 0 156 61.5t59 161.5z
" />
    <glyph glyph-name="six.pof" horiz-adv-x="588" 
d="M311 478q109 0 176.5 -70.5t67.5 -175.5q0 -106 -71.5 -175.5t-180.5 -69.5q-112 0 -182 73t-70 181q0 99 62.5 206.5t238.5 290.5h37q-138 -150 -197.5 -226t-80.5 -133q70 99 200 99zM303 14q97 0 157 59t60 159t-58 159.5t-152 59.5q-96 0 -160 -60t-64 -159
q0 -100 60 -159t157 -59z" />
    <glyph glyph-name="seven.pof" horiz-adv-x="514" 
d="M9 504v26h497l-375 -734h-36l369 708h-455z" />
    <glyph glyph-name="eight.pof" horiz-adv-x="586" 
d="M293 751q89 0 149 -52t60 -134q0 -116 -120 -166q73 -26 112 -78t39 -122q0 -94 -68 -153t-172 -59t-172 59t-68 153q0 70 39 122t112 78q-120 50 -120 166q0 82 60 134t149 52zM118 567q0 -70 48 -112.5t127 -42.5t127 42.5t48 112.5q0 69 -49.5 113t-125.5 44
t-125.5 -44t-49.5 -113zM88 200q0 -82 58.5 -134t146.5 -52t146.5 52t58.5 134t-57 134t-148 52t-148 -52t-57 -134z" />
    <glyph glyph-name="nine.pof" horiz-adv-x="603" 
d="M297 56q-109 0 -176.5 70.5t-67.5 175.5q0 106 71.5 175.5t180.5 69.5q112 0 182 -73t70 -180q0 -96 -66 -200.5t-251 -297.5h-37q156 168 213 236t81 123q-70 -99 -200 -99zM305 520q-97 0 -157 -59t-60 -159t58 -159.5t152 -59.5q96 0 160 60t64 159q0 100 -60 159
t-157 59z" />
    <glyph glyph-name="zero.pof" horiz-adv-x="662" 
d="M611 268q0 -113 -78 -196t-202 -83t-202 83t-78 196t78 196t202 83t202 -83t78 -196zM576 268q0 108 -71.5 180t-173.5 72t-173.5 -72t-71.5 -180t71.5 -180t173.5 -72t173.5 72t71.5 180z" />
    <glyph glyph-name="zero.slashed.pof" horiz-adv-x="662" 
d="M611 268q0 -113 -78 -196t-202 -83t-202 83t-78 196t78 196t202 83t202 -83t78 -196zM86 268q0 -91 55 -161l362 342q-69 71 -172 71q-102 0 -173.5 -72t-71.5 -180zM576 268q0 91 -55 161l-362 -342q69 -71 172 -71q102 0 173.5 72t71.5 180z" />
    <glyph glyph-name="one.tlf" horiz-adv-x="628" 
d="M88 0v26h225v698h-170l25 26h181v-724h205v-26h-466z" />
    <glyph glyph-name="two.tlf" horiz-adv-x="628" 
d="M111 26h446v-26h-482v24q0 53 18.5 97t56.5 81.5t71 61.5t87 58q103 63 147 114t44 130q0 88 -50.5 131t-127.5 43q-85 0 -139 -51t-57 -142h-31q1 103 67 161.5t163 58.5q90 0 150 -52t60 -147q0 -38 -11.5 -72t-28.5 -59t-46 -51t-55.5 -44t-65.5 -42q-91 -56 -124 -85
q-92 -81 -92 -189z" />
    <glyph glyph-name="three.tlf" horiz-adv-x="628" 
d="M245 391v26h56q91 0 141 39t50 115q0 77 -50 123t-135 46t-139 -46t-58 -124h-31q2 86 67.5 141.5t162.5 55.5q95 0 156.5 -54.5t61.5 -139.5q0 -63 -37 -111t-112 -57q86 -11 134 -64t48 -132q0 -98 -69.5 -160t-178.5 -62q-108 0 -178.5 61t-74.5 162h33
q6 -91 68.5 -143.5t152.5 -52.5q91 0 151.5 51t60.5 142q0 93 -63 138.5t-161 45.5h-56z" />
    <glyph glyph-name="four.tlf" horiz-adv-x="628" 
d="M442 437v-211h167v-26h-167v-200h-36v200h-395l431 574v-44l-378 -504h342v211h36z" />
    <glyph glyph-name="five.tlf" horiz-adv-x="628" 
d="M526 241q0 105 -60.5 163t-147.5 58q-69 0 -126 -36.5t-80 -94.5l-21 4l52 415h377v-26h-354l-42 -334q28 46 81 72.5t117 26.5q103 0 171 -66t68 -180t-69.5 -185t-180.5 -71q-103 0 -170.5 62t-72.5 161h34q6 -91 63.5 -143.5t145.5 -52.5q97 0 156 63t59 164z" />
    <glyph glyph-name="six.tlf" horiz-adv-x="628" 
d="M331 478q109 0 176.5 -70.5t67.5 -175.5q0 -106 -71.5 -175.5t-180.5 -69.5q-112 0 -182 73t-70 181q0 101 65 210t247 299h37q-145 -157 -206 -234.5t-83 -136.5q70 99 200 99zM323 14q97 0 157 59t60 159t-58 159.5t-152 59.5q-96 0 -160 -60t-64 -159q0 -100 60 -159
t157 -59z" />
    <glyph glyph-name="seven.tlf" horiz-adv-x="628" 
d="M68 724v26h497l-379 -750h-36l373 724h-455z" />
    <glyph glyph-name="eight.tlf" horiz-adv-x="628" 
d="M314 767q94 0 153.5 -53t59.5 -137q0 -119 -124 -170q75 -27 115 -79.5t40 -124.5q0 -96 -68 -156t-176 -60t-176 60t-68 156q0 72 40 124.5t115 79.5q-124 51 -124 170q0 84 59.5 137t153.5 53zM135 579q0 -71 49.5 -115t129.5 -44t129.5 44t49.5 115t-49.5 116
t-129.5 45t-129.5 -45t-49.5 -116zM105 204q0 -84 58.5 -137t150.5 -53t150.5 53t58.5 137t-58.5 137t-150.5 53t-150.5 -53t-58.5 -137z" />
    <glyph glyph-name="nine.tlf" horiz-adv-x="628" 
d="M298 276q-109 0 -176.5 70.5t-67.5 175.5q0 106 71.5 175.5t180.5 69.5q112 0 182 -73t70 -180q0 -98 -68.5 -205t-263.5 -309h-37q200 216 245 273t64 102q-70 -99 -200 -99zM306 740q-97 0 -157 -59t-60 -159t58 -159.5t152 -59.5q96 0 160 60t64 159q0 100 -60 159
t-157 59z" />
    <glyph glyph-name="zero.tlf" horiz-adv-x="628" 
d="M588 378q0 -111 -29.5 -197.5t-92.5 -139t-152 -52.5t-152 52.5t-92.5 139t-29.5 197.5t29.5 197.5t92.5 139t152 52.5t152 -52.5t92.5 -139t29.5 -197.5zM553 378q0 167 -64.5 264.5t-174.5 97.5t-174.5 -97.5t-64.5 -264.5t64.5 -264.5t174.5 -97.5t174.5 97.5
t64.5 264.5z" />
    <glyph glyph-name="zero.slashed.tlf" horiz-adv-x="628" 
d="M588 378q0 -111 -29.5 -197.5t-92.5 -139t-152 -52.5t-152 52.5t-92.5 139t-29.5 197.5t29.5 197.5t92.5 139t152 52.5t152 -52.5t92.5 -139t29.5 -197.5zM75 378q0 -160 60 -258l341 540q-63 80 -162 80q-110 0 -174.5 -97.5t-64.5 -264.5zM553 378q0 160 -60 258
l-341 -540q63 -80 162 -80q110 0 174.5 97.5t64.5 264.5z" />
    <glyph glyph-name="zero.slashed.superior" horiz-adv-x="414" 
d="M370 751q0 -97 -41.5 -158t-120.5 -61q-80 0 -121.5 61t-41.5 158q0 96 41.5 157t121.5 61q79 0 120.5 -61t41.5 -157zM79 751q0 -77 27 -127l190 275q-33 45 -88 45q-60 0 -94.5 -52.5t-34.5 -140.5zM336 751q0 77 -26 127l-191 -275q35 -46 89 -46q59 0 93.5 53
t34.5 141z" />
    <glyph glyph-name="zero.slashed.inferior" horiz-adv-x="414" 
d="M370 1q0 -97 -41.5 -158t-120.5 -61q-80 0 -121.5 61t-41.5 158q0 96 41.5 157t121.5 61q79 0 120.5 -61t41.5 -157zM79 1q0 -77 27 -127l190 275q-33 45 -88 45q-60 0 -94.5 -52.5t-34.5 -140.5zM336 1q0 77 -26 127l-191 -275q35 -46 89 -46q59 0 93.5 53t34.5 141z
" />
    <glyph glyph-name="one.numr" horiz-adv-x="203" 
d="M48 750h85v-420h-32v392h-82z" />
    <glyph glyph-name="two.numr" horiz-adv-x="348" 
d="M72 358h236v-28h-270v16q0 56 34 94.5t93 74.5q54 32 78 61.5t24 70.5q0 44 -25.5 65.5t-65.5 21.5q-43 0 -70 -26t-29 -72h-31q1 58 39 91t93 33q52 0 87.5 -29t35.5 -82q0 -51 -30.5 -85.5t-86.5 -68.5q-24 -14 -37.5 -24t-33.5 -28t-30 -39t-11 -46z" />
    <glyph glyph-name="three.numr" horiz-adv-x="366" 
d="M145 543v27h33q44 0 69 21t25 59q0 39 -25 61.5t-67 22.5q-43 0 -70 -23t-28 -62h-32q1 49 38 80t92 31q54 0 89.5 -30.5t35.5 -78.5q0 -34 -19 -60.5t-55 -33.5q44 -9 68.5 -38t24.5 -72q0 -54 -40.5 -89t-102.5 -35t-102 34t-42 91h32q3 -47 34.5 -73.5t77.5 -26.5
q47 0 78 26.5t31 73.5q0 46 -32 70.5t-80 24.5h-33z" />
    <glyph glyph-name="four.numr" horiz-adv-x="405" 
d="M288 575v-111h92v-27h-92v-107h-33v107h-238l271 326v-40l-213 -259h180v111h33z" />
    <glyph glyph-name="five.numr" horiz-adv-x="356" 
d="M284 465q0 54 -31 84t-75 30q-35 0 -63 -17.5t-40 -45.5l-24 2l26 232h217v-27h-191l-20 -168q32 49 101 49q58 0 96 -37t38 -102t-40.5 -103.5t-101.5 -38.5t-98.5 36t-39.5 89h32q2 -46 31 -73t75 -27q48 0 78 32.5t30 84.5z" />
    <glyph glyph-name="six.numr" horiz-adv-x="360" 
d="M196 598q58 0 95 -39t37 -97t-40.5 -98.5t-103.5 -40.5t-103 41.5t-40 102.5q0 57 35.5 117.5t137.5 165.5h39q-82 -88 -118.5 -134t-48.5 -80q39 62 110 62zM184 348q49 0 79.5 31.5t30.5 82.5q0 50 -30 80.5t-77 30.5q-49 0 -80.5 -29t-31.5 -80q0 -53 30.5 -84.5
t78.5 -31.5z" />
    <glyph glyph-name="seven.numr" horiz-adv-x="332" 
d="M25 722v28h291l-217 -420h-33l205 392h-246z" />
    <glyph glyph-name="eight.numr" horiz-adv-x="367" 
d="M183 760q54 0 89 -30t35 -78q0 -67 -67 -94q84 -32 84 -112q0 -55 -39.5 -89t-101.5 -34t-101 34t-39 89q0 80 83 112q-66 27 -66 94q0 48 34.5 78t88.5 30zM93 653q0 -36 25 -59.5t65 -23.5q41 0 66 23.5t25 59.5q0 37 -25 59.5t-66 22.5q-40 0 -65 -22.5t-25 -59.5z
M77 447q0 -44 30 -71.5t76 -27.5q47 0 77 27t30 72q0 43 -30.5 71t-76.5 28t-76 -28t-30 -71z" />
    <glyph glyph-name="nine.numr" horiz-adv-x="360" 
d="M164 485q-57 0 -94.5 39t-37.5 96q0 59 40.5 99.5t103.5 40.5t103.5 -42t40.5 -102q0 -56 -37.5 -115.5t-143.5 -170.5h-39q91 97 126 140t48 77q-38 -62 -110 -62zM176 734q-49 0 -79.5 -31.5t-30.5 -82.5q0 -50 30 -80.5t77 -30.5q50 0 81.5 29t31.5 80
q0 53 -30.5 84.5t-79.5 31.5z" />
    <glyph glyph-name="zero.numr" horiz-adv-x="414" 
d="M370 542q0 -97 -41.5 -158t-120.5 -61q-80 0 -121.5 61t-41.5 158q0 96 41.5 157t121.5 61q79 0 120.5 -61t41.5 -157zM336 542q0 88 -34 140.5t-94 52.5t-94.5 -52.5t-34.5 -140.5t35 -141t94 -53t93.5 53t34.5 141z" />
    <glyph glyph-name="zero.slashed.numr" horiz-adv-x="414" 
d="M370 542q0 -97 -41.5 -158t-120.5 -61q-80 0 -121.5 61t-41.5 158q0 96 41.5 157t121.5 61q79 0 120.5 -61t41.5 -157zM79 542q0 -78 27 -127l190 275q-33 45 -88 45q-60 0 -94.5 -52.5t-34.5 -140.5zM336 542q0 77 -26 127l-191 -275q35 -46 89 -46q59 0 93.5 53
t34.5 141z" />
    <glyph glyph-name="one.dnom" horiz-adv-x="203" 
d="M49 420h85v-420h-32v392h-82z" />
    <glyph glyph-name="two.dnom" horiz-adv-x="348" 
d="M72 28h236v-28h-270v16q0 56 34 94.5t93 74.5q54 32 78 61.5t24 70.5q0 44 -25.5 65.5t-65.5 21.5q-43 0 -70 -26t-29 -72h-31q1 58 39 91t93 33q52 0 87.5 -29t35.5 -82q0 -51 -30.5 -85.5t-86.5 -68.5q-24 -14 -37.5 -24t-33.5 -28t-30 -39t-11 -46z" />
    <glyph glyph-name="three.dnom" horiz-adv-x="366" 
d="M145 213v27h33q44 0 69 21t25 59q0 39 -25 61.5t-67 22.5q-43 0 -70 -23t-28 -62h-32q1 49 38 80t92 31q54 0 89.5 -30.5t35.5 -78.5q0 -34 -19 -60.5t-55 -33.5q44 -9 68.5 -38t24.5 -72q0 -54 -40.5 -89t-102.5 -35t-102 34t-42 91h32q3 -47 34.5 -73.5t77.5 -26.5
q47 0 78 26.5t31 73.5q0 46 -32 70.5t-80 24.5h-33z" />
    <glyph glyph-name="four.dnom" horiz-adv-x="405" 
d="M287 245v-111h92v-27h-92v-107h-33v107h-238l271 326v-40l-213 -259h180v111h33z" />
    <glyph glyph-name="five.dnom" horiz-adv-x="356" 
d="M284 135q0 54 -31 84t-75 30q-35 0 -63 -17.5t-40 -45.5l-24 2l26 232h217v-27h-191l-20 -168q32 49 101 49q58 0 96 -37t38 -102t-40.5 -103.5t-101.5 -38.5t-98.5 36t-39.5 89h32q2 -46 31 -73t75 -27q48 0 78 32.5t30 84.5z" />
    <glyph glyph-name="six.dnom" horiz-adv-x="360" 
d="M196 268q58 0 95 -39t37 -97t-40.5 -98.5t-103.5 -40.5t-103 41.5t-40 102.5q0 57 35.5 117.5t137.5 165.5h39q-82 -88 -118.5 -134t-48.5 -80q39 62 110 62zM184 18q49 0 79.5 31.5t30.5 82.5q0 50 -30 80.5t-77 30.5q-49 0 -80.5 -29t-31.5 -80q0 -53 30.5 -84.5
t78.5 -31.5z" />
    <glyph glyph-name="seven.dnom" horiz-adv-x="332" 
d="M25 392v28h291l-217 -420h-33l205 392h-246z" />
    <glyph glyph-name="eight.dnom" horiz-adv-x="367" 
d="M183 430q54 0 89 -30t35 -78q0 -67 -67 -94q84 -32 84 -112q0 -55 -39.5 -89t-101.5 -34t-101 34t-39 89q0 80 83 112q-66 27 -66 94q0 48 34.5 78t88.5 30zM93 323q0 -36 25 -59.5t65 -23.5q41 0 66 23.5t25 59.5q0 37 -25 59.5t-66 22.5q-40 0 -65 -22.5t-25 -59.5z
M77 117q0 -44 30 -71.5t76 -27.5q47 0 77 27t30 72q0 43 -30.5 71t-76.5 28t-76 -28t-30 -71z" />
    <glyph glyph-name="nine.dnom" horiz-adv-x="360" 
d="M164 155q-57 0 -94.5 39t-37.5 96q0 59 40.5 99.5t103.5 40.5t103.5 -42t40.5 -102q0 -56 -37.5 -115.5t-143.5 -170.5h-39q91 97 126 140t48 77q-38 -62 -110 -62zM176 404q-49 0 -79.5 -31.5t-30.5 -82.5q0 -50 30 -80.5t77 -30.5q50 0 81.5 29t31.5 80
q0 53 -30.5 84.5t-79.5 31.5z" />
    <glyph glyph-name="zero.dnom" horiz-adv-x="414" 
d="M370 212q0 -97 -41.5 -158t-120.5 -61q-80 0 -121.5 61t-41.5 158q0 96 41.5 157t121.5 61q79 0 120.5 -61t41.5 -157zM336 212q0 88 -34 140.5t-94 52.5t-94.5 -52.5t-34.5 -140.5t35 -141t94 -53t93.5 53t34.5 141z" />
    <glyph glyph-name="zero.slashed.dnom" horiz-adv-x="414" 
d="M370 212q0 -97 -41.5 -158t-120.5 -61q-80 0 -121.5 61t-41.5 158q0 96 41.5 157t121.5 61q79 0 120.5 -61t41.5 -157zM79 212q0 -78 27 -127l190 275q-33 45 -88 45q-60 0 -94.5 -52.5t-34.5 -140.5zM336 212q0 77 -26 127l-191 -275q35 -46 89 -46q59 0 93.5 53
t34.5 141z" />
    <glyph glyph-name="hyphen.case" horiz-adv-x="379" 
d="M73 364v28h233v-28h-233z" />
    <glyph glyph-name="uni00AD.case" horiz-adv-x="379" 
d="M73 364v28h233v-28h-233z" />
    <glyph glyph-name="endash.case" horiz-adv-x="581" 
d="M69 364v27h443v-27h-443z" />
    <glyph glyph-name="emdash.case" horiz-adv-x="731" 
d="M69 364v27h593v-27h-593z" />
    <glyph glyph-name="questiondown.case" horiz-adv-x="477" 
d="M305 725q0 -17 -10.5 -27.5t-27.5 -10.5t-27.5 10.5t-10.5 27.5t10.5 27.5t27.5 10.5t27.5 -10.5t10.5 -27.5zM159 364q52 40 71 75.5t19 90.5v22h35v-22q0 -69 -23 -106t-93 -94q-92 -75 -92 -164q0 -65 42.5 -108t118.5 -43q75 0 122.5 44.5t50.5 124.5h33
q-1 -90 -57.5 -143.5t-149.5 -53.5q-90 0 -143.5 49t-53.5 129q0 61 31 108t89 91z" />
    <glyph glyph-name="exclamdown.case" horiz-adv-x="246" 
d="M161 725q0 -17 -10.5 -27.5t-27.5 -10.5t-27.5 10.5t-10.5 27.5t10.5 27.5t27.5 10.5t27.5 -10.5t10.5 -27.5zM113 592h20l8 -324v-268h-36v268z" />
    <glyph glyph-name="guilsinglleft.case" horiz-adv-x="336" 
d="M217 179l-159 198l159 198h41l-159 -198l159 -198h-41z" />
    <glyph glyph-name="guilsinglright.case" horiz-adv-x="336" 
d="M119 179h-41l159 198l-159 198h41l159 -198z" />
    <glyph glyph-name="guillemotleft.case" horiz-adv-x="496" 
d="M217 179l-159 198l159 198h41l-159 -198l159 -198h-41zM377 179l-159 198l159 198h41l-159 -198l159 -198h-41z" />
    <glyph glyph-name="guillemotright.case" horiz-adv-x="496" 
d="M119 179h-41l159 198l-159 198h41l159 -198zM279 179h-41l159 198l-159 198h41l159 -198z" />
    <glyph glyph-name="parenleft.case" horiz-adv-x="264" 
d="M53 374q0 145 49 268t116 208h17q-152 -242 -152 -476t152 -476h-17q-67 85 -116 208t-49 268z" />
    <glyph glyph-name="parenright.case" horiz-adv-x="264" 
d="M211 374q0 -145 -49 -268t-116 -208h-17q152 242 152 476t-152 476h17q67 -85 116 -208t49 -268z" />
    <glyph glyph-name="bracketleft.case" horiz-adv-x="258" 
d="M223 -79v-21h-117v950h117v-21h-87v-908h87z" />
    <glyph glyph-name="bracketright.case" horiz-adv-x="258" 
d="M35 -79h87v908h-87v21h117v-950h-117v21z" />
    <glyph glyph-name="braceleft.case" horiz-adv-x="269" 
d="M33 364v22h6q47 0 68.5 15.5t21.5 61.5q0 37 -21.5 120t-21.5 128q0 139 143 139h16v-21h-4q-66 0 -95.5 -26.5t-29.5 -89.5q0 -47 21 -130t21 -117q0 -74 -57 -91q57 -17 57 -91q0 -34 -21 -117t-21 -130q0 -63 29.5 -89.5t95.5 -26.5h4v-21h-16q-143 0 -143 139
q0 45 21.5 128t21.5 120q0 46 -21.5 61.5t-68.5 15.5h-6z" />
    <glyph glyph-name="braceright.case" horiz-adv-x="269" 
d="M236 364h-6q-47 0 -68.5 -15.5t-21.5 -61.5q0 -37 21.5 -120t21.5 -128q0 -139 -143 -139h-16v21h4q66 0 95.5 26.5t29.5 89.5q0 47 -21 130t-21 117q0 74 57 91q-57 17 -57 91q0 34 21 117t21 130q0 63 -29.5 89.5t-95.5 26.5h-4v21h16q143 0 143 -139q0 -45 -21.5 -128
t-21.5 -120q0 -46 21.5 -61.5t68.5 -15.5h6v-22z" />
    <glyph glyph-name="bar.case" horiz-adv-x="244" 
d="M106 800h32v-850h-32v850z" />
    <glyph glyph-name="brokenbar.case" horiz-adv-x="244" 
d="M106 800h32v-350h-32v350zM106 300h32v-350h-32v350z" />
    <glyph glyph-name="periodcentered.case" horiz-adv-x="222" 
d="M73 377q0 17 10.5 27.5t27.5 10.5t27.5 -10.5t10.5 -27.5t-10.5 -27.5t-27.5 -10.5t-27.5 10.5t-10.5 27.5z" />
    <glyph glyph-name="plus.case" horiz-adv-x="613" 
d="M322 112h-31v250h-256v27h256v250h31v-250h256v-27h-256v-250z" />
    <glyph glyph-name="minus.case" horiz-adv-x="691" 
d="M617 362h-543v27h543v-27z" />
    <glyph glyph-name="multiply.case" horiz-adv-x="547" 
d="M474 196l-22 -22l-179 181l-180 -181l-20 19l180 181l-181 181l22 22l181 -181l180 181l20 -19l-180 -181z" />
    <glyph glyph-name="equal.case" horiz-adv-x="669" 
d="M596 498h-523v26h523v-26zM596 231h-523v26h523v-26z" />
    <glyph glyph-name="less.case" horiz-adv-x="628" 
d="M34 388l513 223v-31l-470 -203l470 -203v-32l-513 223v23z" />
    <glyph glyph-name="greater.case" horiz-adv-x="628" 
d="M594 388v-23l-513 -223v32l470 203l-470 203v31z" />
    <glyph glyph-name="acute.case" horiz-adv-x="283" 
d="M70 814h-29l119 136h42z" />
    <glyph glyph-name="breve.case" horiz-adv-x="358" 
d="M32 946h27q3 -50 35 -77.5t85 -27.5t86 27.5t36 77.5h25q-4 -62 -44 -96t-103 -34t-103 34t-44 96z" />
    <glyph glyph-name="caron.case" horiz-adv-x="394" 
d="M184 814l-154 136h36l131 -111l131 111h36l-156 -136h-24z" />
    <glyph glyph-name="cedilla.case" horiz-adv-x="245" 
d="M26 -180l8 17q38 -18 73 -18q31 0 49.5 13.5t18.5 37.5q0 22 -14.5 34.5t-37.5 12.5q-29 0 -52 -15l-11 8l57 93h27l-44 -71q13 7 33 7q33 0 52.5 -18.5t19.5 -48.5q0 -34 -25.5 -54.5t-67.5 -20.5t-86 23z" />
    <glyph glyph-name="circumflex.case" horiz-adv-x="394" 
d="M210 950l154 -136h-36l-131 111l-131 -111h-36l156 136h24z" />
    <glyph glyph-name="dieresis.case" horiz-adv-x="406" 
d="M70 882q0 12 9 21t21 9t21 -9t9 -21t-9 -21t-21 -9t-21 9t-9 21zM276 882q0 12 9 21t21 9t21 -9t9 -21t-9 -21t-21 -9t-21 9t-9 21z" />
    <glyph glyph-name="dotaccent.case" horiz-adv-x="166" 
d="M83 852q-13 0 -21.5 8.5t-8.5 21.5t8.5 21.5t21.5 8.5t21.5 -8.5t8.5 -21.5t-8.5 -21.5t-21.5 -8.5z" />
    <glyph glyph-name="dotaccent.L.case" horiz-adv-x="500" 
d="M250 367q-13 0 -21.5 8.5t-8.5 21.5t8.5 21.5t21.5 8.5t21.5 -8.5t8.5 -21.5t-8.5 -21.5t-21.5 -8.5z" />
    <glyph glyph-name="dotaccent.low.case" horiz-adv-x="166" 
d="M83 -160q-13 0 -21.5 8.5t-8.5 21.5t8.5 21.5t21.5 8.5t21.5 -8.5t8.5 -21.5t-8.5 -21.5t-21.5 -8.5z" />
    <glyph glyph-name="commaaccent.case" horiz-adv-x="142" 
d="M42 -223l29 94h-30v59h60v-59l-39 -94h-20z" />
    <glyph glyph-name="grave.case" horiz-adv-x="283" 
d="M201 814l-131 136h43l116 -136h-28z" />
    <glyph glyph-name="hungarumlaut.case" horiz-adv-x="450" 
d="M140 814h-28l103 136h40zM277 814h-28l103 136h40z" />
    <glyph glyph-name="macron.case" horiz-adv-x="344" 
d="M314 872h-284v24h284v-24z" />
    <glyph glyph-name="ogonek.case" horiz-adv-x="242" 
d="M123 0h40q-94 -39 -94 -104q0 -27 18.5 -40.5t45.5 -13.5q43 0 72 31v-31q-30 -30 -76 -30q-35 0 -62 18.5t-27 60.5q0 68 83 109z" />
    <glyph glyph-name="ring.case" horiz-adv-x="226" 
d="M212 905q0 -41 -29 -68t-70 -27t-70 27t-29 68t29 68.5t70 27.5t70 -27.5t29 -68.5zM41 905q0 -31 21.5 -52t50.5 -21q30 0 51 21t21 52q0 32 -21 53t-51 21q-29 0 -50.5 -21t-21.5 -53z" />
    <glyph glyph-name="tilde.case" horiz-adv-x="412" 
d="M339 928h30q-7 -40 -33 -62.5t-62 -22.5q-35 0 -74.5 29t-63.5 29q-25 0 -42.5 -16.5t-20.5 -44.5h-30q7 40 33 62.5t62 22.5q34 0 74 -29t64 -29q25 0 42.5 16.5t20.5 44.5z" />
    </font>
</defs>
</svg>
